<svg width="210" height="203" viewBox="0 0 310 303" fill="none" xmlns="http://www.w3.org/2000/svg">
  <mask id="mask0_155_401" style="mask-type:luminance" maskUnits="userSpaceOnUse" x="0" y="0" width="310" height="303">
    <path
      d="M4.10715 99.4607C5.09641 99.6367 5.95102 99.9421 6.67096 100.284C5.43826 99.3986 3.9725 98.0321 2.90555 95.9824C1.75571 93.7722 0.310669 75.0606 2.91074 73.8701C4.32471 73.2283 7.41681 77.3019 7.68613 77.6642C7.21481 76.6497 6.65024 75.1745 6.38611 73.3267C6.10123 71.3804 5.65579 68.3162 7.14746 67.3638C8.83594 66.282 12.0109 68.5543 12.4667 68.8804C13.5026 69.6206 14.2018 70.4436 14.6368 71.0492C14.9113 70.9664 15.4966 70.749 15.9369 70.1796C16.8329 69.0357 16.2994 67.5657 16.2632 67.4673C15.4138 66.6702 14.2898 65.4228 13.3264 63.6629C11.9435 61.1214 9.77341 58.2746 9.04312 55.464C8.7738 54.4288 9.02759 49.5322 8.77377 49.2527C7.54626 47.881 6.31357 46.5042 5.08606 45.1325C4.23666 44.9721 2.91592 44.5787 1.82825 43.5072C-0.233154 41.473 -0.0415344 38.3674 0.0931396 36.1313C0.165649 34.9046 0.419434 33.0619 1.28439 30.9242C0.937378 30.2513 0.569641 29.2678 0.631775 28.1032C0.833771 24.4282 5.22073 21.9281 7.90884 21.0534C17.8532 17.8131 28.1498 27.8961 34.593 34.3714C39.7413 39.5423 44.5685 44.9772 50.0948 49.7599C55.7145 54.6255 62.3234 57.4568 68.347 61.7219C78.8819 61.2301 89.0231 67.1982 98.7137 70.6092C101.604 71.6289 104.504 72.6072 107.405 73.5855C108.373 73.9116 109.342 74.2377 110.31 74.5689C126.713 80.1073 140.289 81.303 157.334 81.1891C174.887 81.0753 192.833 79.6415 207.558 68.9891C216.824 62.2861 220.709 49.5322 227.349 40.4119C238.92 24.5058 258.389 1.06849 280.805 6.09447C281.53 5.1783 282.255 4.26214 282.981 3.34597C282.986 3.28903 283.094 2.61097 283.732 2.3004C284.312 2.01572 284.855 2.26934 284.923 2.3004C285.575 1.41529 286.3 0.835568 286.658 1.0012C287 1.15649 287.067 2.00019 286.772 3.13893C287.202 2.09853 288.196 1.6068 288.828 1.81385C289.481 2.02607 290.009 3.08199 289.698 4.25179C289.76 4.19485 290.563 3.50125 291.055 3.76523C291.309 3.90499 291.381 4.24661 291.433 5.01267C291.48 5.68556 291.511 6.6069 291.433 7.72494C291.552 7.63695 292.179 7.17627 292.625 7.39885C292.79 7.48166 292.982 7.67835 293.111 8.80674C293.174 9.3347 293.225 10.0956 293.163 11.0273C293.334 10.9548 294.199 10.6132 294.738 11.0273C294.96 11.1981 295.116 11.488 295.173 12.6526C295.204 13.2892 295.204 14.1795 295.064 15.2561C295.297 15.6185 295.691 16.1257 296.312 16.5553C296.929 16.985 297.338 17.0367 297.778 17.2593C298.669 17.72 298.721 18.4136 299.679 20.132C300.357 21.3484 301.419 22.953 302.336 24.2004C302.673 24.6507 303.071 25.1735 303.258 25.9913C303.444 26.8092 303.325 27.5338 303.201 27.9997C304.107 28.5173 305.392 29.3765 306.671 30.7119C307.619 31.7006 308.686 32.8134 309.328 34.6147C309.981 36.4419 309.887 38.1241 309.706 39.2214C309.38 39.2059 309.054 39.1852 308.727 39.1697C308.852 39.4388 308.981 39.7132 309.105 39.9823C307.479 39.8426 305.651 39.5941 303.677 39.1697C301.533 38.709 299.622 38.1344 297.98 37.5444C297.555 37.534 296.851 37.5806 296.079 37.9222C294.748 38.5123 294.111 39.5993 293.909 39.9823C293.21 41.2556 292.055 42.9948 290.221 44.646C287.388 47.1978 284.4 48.233 282.737 48.673C282.582 48.7144 281.877 70.4695 281.706 72.7883C280.608 87.8145 282.385 103.55 279.552 118.364C278.179 125.527 276.931 126.837 276.082 134.27C275.356 140.58 275.931 142.5 275.501 147.572C274.73 156.744 271.757 163.515 270.001 167.526C263.998 181.274 255.038 189.561 250.47 193.697C240.142 203.055 227.235 209.773 213.996 213.971C211.086 214.893 208.128 215.695 205.336 216.937C195.677 221.233 182.112 231.554 175.964 240.25C175.586 240.783 175.291 241.239 175.094 241.549C174.908 242.947 174.514 244.764 173.649 246.757C172.266 249.924 170.324 252.052 169.019 253.263C169.366 254.045 169.858 255.142 170.464 256.446C170.464 256.446 173.224 262.352 176.829 268.734C180.543 275.313 184.759 281.628 189.047 287.844C189.664 288.74 190.233 290.671 191.471 290.412C191.922 290.319 192.673 290.593 193.118 290.665C193.854 290.784 194.584 290.903 195.32 291.017C196.842 291.255 198.37 291.468 199.903 291.618C201.208 291.742 202.576 291.892 203.886 291.711C204.005 291.695 205.259 291.519 206.999 291.302C208.429 291.121 209.143 291.033 209.387 291.012C209.387 291.012 213.639 290.671 216.767 291.902C216.855 291.939 216.954 291.975 217.29 292.115C217.544 292.223 217.808 292.337 218.083 292.467C219.114 291.97 220.678 291.84 221.916 293.046C222.812 293.921 223.252 295.22 223.438 295.904C222.993 295.412 222.019 294.475 220.641 294.237C220.191 294.159 219.771 294.17 219.398 294.227C219.352 294.93 218.943 295.593 218.269 295.526C217.601 295.458 216.907 295.407 216.187 295.37C211.572 295.153 209.842 295.898 203.234 296.136C205.171 297.094 206.983 296.359 210.878 297.674C212.629 298.264 213.447 298.911 213.888 299.413C214.913 298.812 216.576 298.595 217.881 299.941C218.777 300.873 219.217 302.249 219.404 302.979C218.958 302.456 217.984 301.463 216.607 301.209C215.985 301.095 215.431 301.157 214.97 301.287C215.001 302.084 214.488 302.891 213.758 302.643C212.541 302.229 211.215 301.835 209.786 301.483C204.549 300.205 202.498 300.681 194.895 299.465C190.218 298.719 187.234 297.933 185.308 297.094C183.992 298.026 181.475 298.725 176.612 299.139C170.66 299.641 169.034 299.051 164.948 299.796C164.311 299.91 163.699 300.044 163.119 300.189C162.529 300.334 162.078 299.692 161.944 298.963C161.607 298.942 161.234 298.978 160.84 299.113C159.649 299.516 158.908 300.598 158.577 301.162C158.655 300.427 158.872 299.03 159.556 298.015C160.499 296.618 161.902 296.576 162.886 296.98C163.114 296.82 163.332 296.664 163.544 296.525C163.824 296.338 163.907 296.292 163.979 296.245C166.595 294.61 170.417 294.49 170.417 294.49C170.635 294.485 171.282 294.496 172.577 294.522C174.146 294.553 175.286 294.594 175.394 294.599C176.254 294.625 177.829 294.392 180.745 293.569C180.393 292.612 179.963 291.545 179.44 290.396C175.7 282.182 172.209 280.862 164.393 269.578C160.82 264.412 160.747 263.537 157.883 260.033C156.821 258.734 155.262 256.943 153.688 254.107C152.621 252.186 151.937 250.494 151.517 249.334C150.088 247.994 148.56 246.415 147.032 244.562C144.96 242.057 143.355 239.629 142.112 237.476C139.838 238.309 138.025 238.956 136.901 239.355C130.702 241.56 129.759 241.772 128.221 242.968C126.548 244.272 126.506 244.919 124.605 246.151C122.803 247.316 121.063 247.88 119.83 248.175C119.649 253.092 119.669 258.361 119.975 263.936C120.529 273.957 122.974 277.782 124.719 285.795C129.769 286.524 132.214 286.602 133.405 286.447C133.529 286.431 134.84 286.255 136.647 286.038C138.139 285.857 138.88 285.769 139.139 285.748C139.139 285.748 143.572 285.406 146.835 286.638C146.929 286.675 147.027 286.711 147.379 286.851C147.643 286.959 147.918 287.073 148.203 287.203C149.28 286.706 150.911 286.576 152.201 287.782C153.139 288.657 153.594 289.956 153.791 290.639C153.325 290.143 152.315 289.211 150.875 288.973C150.404 288.895 149.969 288.905 149.58 288.962C149.534 289.672 149.104 290.329 148.399 290.262C147.705 290.194 146.98 290.143 146.224 290.106C141.413 289.889 139.605 290.634 132.716 290.872C134.736 291.83 136.627 291.095 140.693 292.41C142.521 293 143.376 293.647 143.831 294.149C144.898 293.548 146.633 293.331 147.995 294.677C148.933 295.609 149.389 296.985 149.586 297.715C149.119 297.192 148.109 296.199 146.67 295.945C146.022 295.831 145.442 295.893 144.966 296.023C145.002 296.82 144.463 297.627 143.697 297.379C142.428 296.965 141.045 296.571 139.553 296.219C134.094 294.941 131.955 295.417 124.025 294.201C122.404 293.952 120.975 293.699 119.721 293.44C116.386 292.756 112.947 292.689 109.601 293.31C108.399 293.533 106.944 293.719 105.178 293.869C99.2265 294.371 97.6001 293.781 93.5136 294.527C92.8765 294.641 92.2654 294.775 91.6853 294.92C91.1155 295.06 90.6753 294.47 90.5251 293.771C90.0641 293.662 89.4996 293.636 88.8832 293.843C87.692 294.247 86.9513 295.329 86.6198 295.893C86.6975 295.158 86.9151 293.761 87.5988 292.746C88.645 291.193 90.2713 291.312 91.245 291.861C91.5454 291.644 91.8355 291.437 92.1048 291.255C92.3845 291.069 92.4674 291.022 92.5399 290.976C95.1555 289.34 98.9727 289.221 98.9727 289.221C99.1902 289.216 99.8376 289.226 101.132 289.252C102.702 289.283 103.841 289.325 103.95 289.33C104.794 289.356 106.327 289.133 109.124 288.346C109.243 288.346 109.363 288.346 109.492 288.326C113.972 287.622 114.081 282.032 113.377 278.579C112.776 275.624 112.087 272.622 111.32 269.702C109.777 263.817 108.321 257.906 107.358 251.896C107.28 251.4 107.187 250.877 107.089 250.323C106.514 247.197 106.172 246.343 105.789 243.527C105.1 238.485 105.255 234.293 105.499 231.523C103.639 231.301 101.599 230.938 99.4233 230.369C94.1973 228.992 90.0331 226.865 86.9876 224.955L85.9724 224.298C84.6879 224.277 82.6369 224.08 80.3321 223.143C77.8771 222.144 76.2093 220.742 75.2666 219.82C74.5415 220.069 73.4539 220.322 72.2264 220.11C69.212 219.582 68.7821 216.834 65.1254 213.304C55.9786 204.484 43.9107 200.622 39.2389 188.298C38.5293 186.419 37.6229 183.619 37.0687 180.058C35.7635 179.53 33.7643 178.5 32.0758 176.517C29.6363 173.644 29.2737 170.456 28.9267 167.407C28.6729 165.176 28.5435 161.62 29.5897 157.314C28.7092 155.865 28.2327 155.067 27.3522 153.618C26.3319 153.39 25.2494 153.049 24.1514 152.552C18.3919 149.953 15.6054 144.684 14.4918 142.143C13.6165 141.656 12.6013 140.994 11.5603 140.083C9.86664 138.597 8.76859 137.029 8.09009 135.854C8.21957 135.352 8.48373 134.705 9.069 134.337C9.88217 133.82 10.8922 134.104 11.4567 134.228C12.6428 134.487 14.4089 134.601 16.8847 133.902C15.5898 133.369 14.0049 132.526 12.4304 131.185C8.35944 127.717 2.26849 117.07 4.95139 111.78C4.15378 110.75 3.11789 109.228 2.2374 107.225C1.69876 105.998 -0.523224 100.931 1.14972 99.528C1.76605 99.0104 2.69836 99.176 4.08127 99.4193L4.10715 99.4607Z"
      fill="white" />
  </mask>
  <g mask="url(#mask0_155_401)">
    <path
      d="M4.10715 99.4607C5.09641 99.6367 5.95102 99.9421 6.67096 100.284C5.43826 99.3986 3.9725 98.0321 2.90555 95.9824C1.75571 93.7722 0.310669 75.0606 2.91074 73.8701C4.32471 73.2283 7.41681 77.3019 7.68613 77.6642C7.21481 76.6497 6.65024 75.1745 6.38611 73.3267C6.10123 71.3804 5.65579 68.3162 7.14746 67.3638C8.83594 66.282 12.0109 68.5543 12.4667 68.8804C13.5026 69.6206 14.2018 70.4436 14.6368 71.0492C14.9113 70.9664 15.4966 70.749 15.9369 70.1796C16.8329 69.0357 16.2994 67.5657 16.2632 67.4673C15.4138 66.6702 14.2898 65.4228 13.3264 63.6629C11.9435 61.1214 9.77341 58.2746 9.04312 55.464C8.7738 54.4288 9.02759 49.5322 8.77377 49.2527C7.54626 47.881 6.31357 46.5042 5.08606 45.1325C4.23666 44.9721 2.91592 44.5787 1.82825 43.5072C-0.233154 41.473 -0.0415344 38.3674 0.0931396 36.1313C0.165649 34.9046 0.419434 33.0619 1.28439 30.9242C0.937378 30.2513 0.569641 29.2678 0.631775 28.1032C0.833771 24.4282 5.22073 21.9281 7.90884 21.0534C17.8532 17.8131 28.1498 27.8961 34.593 34.3714C39.7413 39.5423 44.5685 44.9772 50.0948 49.7599C55.7145 54.6255 62.3234 57.4568 68.347 61.7219C78.8819 61.2301 89.0231 67.1982 98.7137 70.6092C101.604 71.6289 104.504 72.6072 107.405 73.5855C108.373 73.9116 109.342 74.2377 110.31 74.5689C126.713 80.1073 140.289 81.303 157.334 81.1891C174.887 81.0753 192.833 79.6415 207.558 68.9891C216.824 62.2861 220.709 49.5322 227.349 40.4119C238.92 24.5058 258.389 1.06849 280.805 6.09447C281.53 5.1783 282.255 4.26214 282.981 3.34597C282.986 3.28903 283.094 2.61097 283.732 2.3004C284.312 2.01572 284.855 2.26934 284.923 2.3004C285.575 1.41529 286.3 0.835568 286.658 1.0012C287 1.15649 287.067 2.00019 286.772 3.13893C287.202 2.09853 288.196 1.6068 288.828 1.81385C289.481 2.02607 290.009 3.08199 289.698 4.25179C289.76 4.19485 290.563 3.50125 291.055 3.76523C291.309 3.90499 291.381 4.24661 291.433 5.01267C291.48 5.68556 291.511 6.6069 291.433 7.72494C291.552 7.63695 292.179 7.17627 292.625 7.39885C292.79 7.48166 292.982 7.67835 293.111 8.80674C293.174 9.3347 293.225 10.0956 293.163 11.0273C293.334 10.9548 294.199 10.6132 294.738 11.0273C294.96 11.1981 295.116 11.488 295.173 12.6526C295.204 13.2892 295.204 14.1795 295.064 15.2561C295.297 15.6185 295.691 16.1257 296.312 16.5553C296.929 16.985 297.338 17.0367 297.778 17.2593C298.669 17.72 298.721 18.4136 299.679 20.132C300.357 21.3484 301.419 22.953 302.336 24.2004C302.673 24.6507 303.071 25.1735 303.258 25.9913C303.444 26.8092 303.325 27.5338 303.201 27.9997C304.107 28.5173 305.392 29.3765 306.671 30.7119C307.619 31.7006 308.686 32.8134 309.328 34.6147C309.981 36.4419 309.887 38.1241 309.706 39.2214C309.38 39.2059 309.054 39.1852 308.727 39.1697C308.852 39.4388 308.981 39.7132 309.105 39.9823C307.479 39.8426 305.651 39.5941 303.677 39.1697C301.533 38.709 299.622 38.1344 297.98 37.5444C297.555 37.534 296.851 37.5806 296.079 37.9222C294.748 38.5123 294.111 39.5993 293.909 39.9823C293.21 41.2556 292.055 42.9948 290.221 44.646C287.388 47.1978 284.4 48.233 282.737 48.673C282.582 48.7144 281.877 70.4695 281.706 72.7883C280.608 87.8145 282.385 103.55 279.552 118.364C278.179 125.527 276.931 126.837 276.082 134.27C275.356 140.58 275.931 142.5 275.501 147.572C274.73 156.744 271.757 163.515 270.001 167.526C263.998 181.274 255.038 189.561 250.47 193.697C240.142 203.055 227.235 209.773 213.996 213.971C211.086 214.893 208.128 215.695 205.336 216.937C195.677 221.233 182.112 231.554 175.964 240.25C175.586 240.783 175.291 241.239 175.094 241.549C174.908 242.947 174.514 244.764 173.649 246.757C172.266 249.924 170.324 252.052 169.019 253.263C169.366 254.045 169.858 255.142 170.464 256.446C170.464 256.446 173.224 262.352 176.829 268.734C180.543 275.313 184.759 281.628 189.047 287.844C189.664 288.74 190.233 290.671 191.471 290.412C191.922 290.319 192.673 290.593 193.118 290.665C193.854 290.784 194.584 290.903 195.32 291.017C196.842 291.255 198.37 291.468 199.903 291.618C201.208 291.742 202.576 291.892 203.886 291.711C204.005 291.695 205.259 291.519 206.999 291.302C208.429 291.121 209.143 291.033 209.387 291.012C209.387 291.012 213.639 290.671 216.767 291.902C216.855 291.939 216.954 291.975 217.29 292.115C217.544 292.223 217.808 292.337 218.083 292.467C219.114 291.97 220.678 291.84 221.916 293.046C222.812 293.921 223.252 295.22 223.438 295.904C222.993 295.412 222.019 294.475 220.641 294.237C220.191 294.159 219.771 294.17 219.398 294.227C219.352 294.93 218.943 295.593 218.269 295.526C217.601 295.458 216.907 295.407 216.187 295.37C211.572 295.153 209.842 295.898 203.234 296.136C205.171 297.094 206.983 296.359 210.878 297.674C212.629 298.264 213.447 298.911 213.888 299.413C214.913 298.812 216.576 298.595 217.881 299.941C218.777 300.873 219.217 302.249 219.404 302.979C218.958 302.456 217.984 301.463 216.607 301.209C215.985 301.095 215.431 301.157 214.97 301.287C215.001 302.084 214.488 302.891 213.758 302.643C212.541 302.229 211.215 301.835 209.786 301.483C204.549 300.205 202.498 300.681 194.895 299.465C190.218 298.719 187.234 297.933 185.308 297.094C183.992 298.026 181.475 298.725 176.612 299.139C170.66 299.641 169.034 299.051 164.948 299.796C164.311 299.91 163.699 300.044 163.119 300.189C162.529 300.334 162.078 299.692 161.944 298.963C161.607 298.942 161.234 298.978 160.84 299.113C159.649 299.516 158.908 300.598 158.577 301.162C158.655 300.427 158.872 299.03 159.556 298.015C160.499 296.618 161.902 296.576 162.886 296.98C163.114 296.82 163.332 296.664 163.544 296.525C163.824 296.338 163.907 296.292 163.979 296.245C166.595 294.61 170.417 294.49 170.417 294.49C170.635 294.485 171.282 294.496 172.577 294.522C174.146 294.553 175.286 294.594 175.394 294.599C176.254 294.625 177.829 294.392 180.745 293.569C180.393 292.612 179.963 291.545 179.44 290.396C175.7 282.182 172.209 280.862 164.393 269.578C160.82 264.412 160.747 263.537 157.883 260.033C156.821 258.734 155.262 256.943 153.688 254.107C152.621 252.186 151.937 250.494 151.517 249.334C150.088 247.994 148.56 246.415 147.032 244.562C144.96 242.057 143.355 239.629 142.112 237.476C139.838 238.309 138.025 238.956 136.901 239.355C130.702 241.56 129.759 241.772 128.221 242.968C126.548 244.272 126.506 244.919 124.605 246.151C122.803 247.316 121.063 247.88 119.83 248.175C119.649 253.092 119.669 258.361 119.975 263.936C120.529 273.957 122.974 277.782 124.719 285.795C129.769 286.524 132.214 286.602 133.405 286.447C133.529 286.431 134.84 286.255 136.647 286.038C138.139 285.857 138.88 285.769 139.139 285.748C139.139 285.748 143.572 285.406 146.835 286.638C146.929 286.675 147.027 286.711 147.379 286.851C147.643 286.959 147.918 287.073 148.203 287.203C149.28 286.706 150.911 286.576 152.201 287.782C153.139 288.657 153.594 289.956 153.791 290.639C153.325 290.143 152.315 289.211 150.875 288.973C150.404 288.895 149.969 288.905 149.58 288.962C149.534 289.672 149.104 290.329 148.399 290.262C147.705 290.194 146.98 290.143 146.224 290.106C141.413 289.889 139.605 290.634 132.716 290.872C134.736 291.83 136.627 291.095 140.693 292.41C142.521 293 143.376 293.647 143.831 294.149C144.898 293.548 146.633 293.331 147.995 294.677C148.933 295.609 149.389 296.985 149.586 297.715C149.119 297.192 148.109 296.199 146.67 295.945C146.022 295.831 145.442 295.893 144.966 296.023C145.002 296.82 144.463 297.627 143.697 297.379C142.428 296.965 141.045 296.571 139.553 296.219C134.094 294.941 131.955 295.417 124.025 294.201C122.404 293.952 120.975 293.699 119.721 293.44C116.386 292.756 112.947 292.689 109.601 293.31C108.399 293.533 106.944 293.719 105.178 293.869C99.2265 294.371 97.6001 293.781 93.5136 294.527C92.8765 294.641 92.2654 294.775 91.6853 294.92C91.1155 295.06 90.6753 294.47 90.5251 293.771C90.0641 293.662 89.4996 293.636 88.8832 293.843C87.692 294.247 86.9513 295.329 86.6198 295.893C86.6975 295.158 86.9151 293.761 87.5988 292.746C88.645 291.193 90.2713 291.312 91.245 291.861C91.5454 291.644 91.8355 291.437 92.1048 291.255C92.3845 291.069 92.4674 291.022 92.5399 290.976C95.1555 289.34 98.9727 289.221 98.9727 289.221C99.1902 289.216 99.8376 289.226 101.132 289.252C102.702 289.283 103.841 289.325 103.95 289.33C104.794 289.356 106.327 289.133 109.124 288.346C109.243 288.346 109.363 288.346 109.492 288.326C113.972 287.622 114.081 282.032 113.377 278.579C112.776 275.624 112.087 272.622 111.32 269.702C109.777 263.817 108.321 257.906 107.358 251.896C107.28 251.4 107.187 250.877 107.089 250.323C106.514 247.197 106.172 246.343 105.789 243.527C105.1 238.485 105.255 234.293 105.499 231.523C103.639 231.301 101.599 230.938 99.4233 230.369C94.1973 228.992 90.0331 226.865 86.9876 224.955L85.9724 224.298C84.6879 224.277 82.6369 224.08 80.3321 223.143C77.8771 222.144 76.2093 220.742 75.2666 219.82C74.5415 220.069 73.4539 220.322 72.2264 220.11C69.212 219.582 68.7821 216.834 65.1254 213.304C55.9786 204.484 43.9107 200.622 39.2389 188.298C38.5293 186.419 37.6229 183.619 37.0687 180.058C35.7635 179.53 33.7643 178.5 32.0758 176.517C29.6363 173.644 29.2737 170.456 28.9267 167.407C28.6729 165.176 28.5435 161.62 29.5897 157.314C28.7092 155.865 28.2327 155.067 27.3522 153.618C26.3319 153.39 25.2494 153.049 24.1514 152.552C18.3919 149.953 15.6054 144.684 14.4918 142.143C13.6165 141.656 12.6013 140.994 11.5603 140.083C9.86664 138.597 8.76859 137.029 8.09009 135.854C8.21957 135.352 8.48373 134.705 9.069 134.337C9.88217 133.82 10.8922 134.104 11.4567 134.228C12.6428 134.487 14.4089 134.601 16.8847 133.902C15.5898 133.369 14.0049 132.526 12.4304 131.185C8.35944 127.717 2.26849 117.07 4.95139 111.78C4.15378 110.75 3.11789 109.228 2.2374 107.225C1.69876 105.998 -0.523224 100.931 1.14972 99.528C1.76605 99.0104 2.69836 99.176 4.08127 99.4193L4.10715 99.4607Z"
      fill="#003B52" />
    <path
      d="M23.7318 157.19C60.9197 144.56 80.3994 120.082 90.1936 101.769C100.806 81.9293 102.593 65.2519 102.666 64.5532L96.9993 63.9786L99.8324 64.2633L96.9993 63.9734C96.9837 64.1339 95.2072 80.4127 85.0608 99.2899C79.1304 110.33 71.5323 120.093 62.4735 128.317C51.1566 138.592 37.5089 146.491 21.9034 151.791L23.737 157.184L23.7318 157.19Z"
      fill="#F6F6F6" />
    <path
      d="M84.89 233.221C86.0399 231.922 113.112 201.207 119.872 180.083L114.444 178.349C108.047 198.334 80.8967 229.142 80.6222 229.448L84.89 233.221Z"
      fill="#F6F6F6" />
    <path
      d="M203.353 228.268L207.678 224.562L205.518 226.415L207.688 224.572C207.574 224.437 196.324 210.679 197.334 178.676L191.642 178.494C190.555 212.941 202.835 227.657 203.358 228.268H203.353Z"
      fill="#F6F6F6" />
    <path
      d="M283.224 127.008L284.887 121.563C284.747 121.521 270.529 117.116 254.422 106.925C239.702 97.6077 220.315 81.3858 211.562 57.022L206.202 58.9423C215.519 84.8848 235.983 102.018 251.511 111.821C268.245 122.386 282.618 126.827 283.224 127.008Z"
      fill="#F6F6F6" />
    <path
      d="M287.342 76.0545L288.119 70.4125C287.59 70.3401 235.273 62.7675 223.9 30.9656L218.534 32.8807C223.76 47.5032 237.392 59.6152 257.944 67.9021C273.212 74.0617 286.772 75.9716 287.342 76.0493V76.0545Z"
      fill="#F6F6F6" />
    <path
      d="M211.681 124.347C233.864 121.946 245.813 104.865 246.311 104.14L241.613 100.92L243.964 102.53L241.618 100.915C241.509 101.071 230.586 116.573 211.07 118.685L211.681 124.347Z"
      fill="#F6F6F6" />
    <path
      d="M219.476 150.564C221.227 140.057 215.633 130.843 214.224 128.53C212.66 125.952 206.222 116.076 186.924 109.642C168.697 103.56 152.476 105.506 120.773 109.642C97.2272 112.712 91.8199 115.098 75.6188 114.891C60.9819 114.704 48.9813 112.546 40.9688 110.693C45.2366 118.602 52.1977 129.741 63.0174 141.123C71.7913 150.352 90.9032 167.94 120.773 177.853C134.778 182.501 150.855 187.837 171.173 184.147C173.359 183.748 215.296 175.642 219.476 150.564Z"
      fill="#003B52" />
    <path
      d="M157.515 188.236C162.001 188.236 166.709 187.848 171.681 186.947C172.173 186.859 183.858 184.701 195.77 179.193C211.236 172.05 220.403 162.309 222.284 151.03C223.164 145.761 222.9 137.319 216.659 127.049C213.675 122.132 205.958 112.986 187.825 106.935C168.604 100.527 151.481 102.758 120.4 106.811C112.263 107.872 106.177 108.871 101.283 109.668C91.7735 111.226 86.0348 112.163 75.6501 112.033C64.2658 111.889 52.8091 110.501 41.606 107.908L35.4685 106.49L38.457 112.033C44.5635 123.359 52.1305 133.799 60.951 143.074C72.3042 155.016 91.7424 171.206 119.872 180.544C130.888 184.198 143.023 188.231 157.515 188.231V188.236ZM216.664 150.098C212.774 173.437 171.085 181.269 170.661 181.346C151.057 184.902 135.446 179.721 121.669 175.151C94.6584 166.186 75.9868 150.632 65.0842 139.161C58.0454 131.76 51.8353 123.576 46.5679 114.782C56.1653 116.619 65.8973 117.608 75.5828 117.732C86.4595 117.872 92.7317 116.847 102.21 115.294C107.058 114.502 113.097 113.514 121.141 112.463C153.667 108.219 168.77 106.588 186.023 112.339C202.431 117.81 209.211 125.755 211.79 130.005C217.125 138.783 217.384 145.776 216.664 150.098Z"
      fill="#F6F6F6" />
  </g>
</svg>