<svg width="449" height="307" viewBox="0 0 449 307" fill="none" xmlns="http://www.w3.org/2000/svg">
<g clip-path="url(#clip0_155_366)">
<path d="M437.801 106.056C438.98 106.079 440.94 105.948 442.94 104.89C449.133 101.625 449.006 93.0335 448.995 92.549C448.946 90.8382 448.853 87.6962 446.471 84.994C443.403 81.5054 438.92 81.4644 438.148 81.4681C434.628 77.4279 431.097 73.3131 427.555 69.1275C424.042 64.9755 420.597 60.8458 417.223 56.7384C416.103 55.378 415.625 53.5853 416.006 51.867C416.211 50.9353 416.316 49.873 416.207 48.725C415.924 45.7955 414.341 43.4847 409.649 38.9003C407.253 36.5633 404.069 33.6524 400.075 30.5067C399.299 29.8954 398.959 28.8481 399.306 27.9238C399.586 27.1709 399.784 26.1757 399.56 25.0464C399.448 24.4761 399.25 23.9842 399.03 23.5779C398.395 22.4038 398.388 20.9838 399.067 19.8321C399.567 18.986 400.288 18.058 401.325 17.238C402.386 16.3994 403.49 15.9037 404.476 15.613C406.189 15.1098 408.134 13.045 409.69 11.4125C411.168 9.86196 412.613 8.35246 413.938 5.90371C414.602 4.67748 415.442 2.83626 415.991 0.435971C416.069 0.100527 415.666 -0.138011 415.412 0.0930727C412.098 3.12698 407.928 6.4777 402.841 9.68305C398.108 12.6648 393.625 14.8601 389.724 16.4851C389.467 16.0267 387.504 14.6364 384.932 13.8388C381.949 12.9145 380.255 13.7382 379.885 13.9656C380.848 11.1553 381.811 8.34128 382.774 5.531C383.006 4.85638 382.763 4.11468 382.177 3.70469L382.151 3.68605C381.371 3.14189 380.288 3.38788 379.837 4.22276C378.374 6.92123 375.753 10.7639 371.308 13.9618C369.165 15.5049 367.064 16.5634 365.224 17.3014C363.604 17.9499 362.629 19.6085 362.824 21.3379C362.962 22.5716 363.1 23.809 363.238 25.0464C363.264 25.7844 363.204 26.8839 362.734 28.0691C361.763 30.4955 359.74 31.5391 357.687 33.1082C357.355 33.3617 357.146 33.5704 356.997 33.768C355.351 36.0005 353.201 37.8119 350.577 38.7176C348.942 39.2804 347.247 39.8619 346.083 40.16C341.04 41.4608 338.718 42.702 334.732 43.9394C334.732 43.9394 331.007 45.0948 324.101 46.0974C309.966 48.1473 283.606 45.9744 267.634 46.4589C261.972 46.6304 254.6 47.2267 245.877 48.9673C235.508 51.0359 224.944 51.9975 214.374 51.9975H195.027C192.851 51.9975 190.709 52.5528 188.809 53.6076L188.742 53.6449C186.308 54.9941 183.497 55.5271 180.743 55.1283C170.418 53.6412 161.934 53.2834 155.891 53.2535C140.468 53.179 132.827 55.1768 120.577 52.7504C118.52 52.3441 113.645 51.2782 105.441 49.7277C98.3416 48.3859 97.2479 48.2852 94.594 47.7113C91.1227 46.9621 86.6547 45.762 81.4328 43.7307C76.6924 41.8857 71.631 40.9875 66.5434 41.1067L38.2353 41.7627C32.6364 41.8932 27.1419 43.3244 22.1962 45.9483C18.7771 47.7672 14.5593 50.0072 11.0991 53.5033C3.95117 60.7265 2.94708 70.3538 2.52158 74.4089C1.77878 81.5278 3.15613 85.1245 4.54092 93.805C5.71671 101.189 5.91452 108.468 6.30646 123.022C6.30646 123.022 6.92236 145.888 4.03705 178.687C3.30173 187.025 2.93591 191.192 2.01767 195.311C0.953888 200.085 0.0132446 202.321 -0.00167847 206.142C-0.0128784 209.395 0.655273 212.303 1.55484 214.763C3.1188 219.038 4.27216 223.458 4.74994 227.983C5.87344 238.62 6.34378 246.551 6.55283 252.235C6.63495 254.509 6.82153 260.308 7.31052 268.355C7.6203 273.439 7.94879 277.729 8.20633 280.867C8.27725 281.743 8.08316 282.619 7.64645 283.383C6.9671 284.565 6.28778 285.75 5.60846 286.932C5.69431 287.185 5.94067 287.781 6.55283 288.255C7.38892 288.896 8.31085 288.84 8.53854 288.821C8.68787 287.509 9.61359 286.447 10.808 286.175C12.2488 285.851 13.3574 286.838 13.4582 286.932C13.8986 287.729 14.8355 289.686 14.6899 292.314C14.5817 294.259 13.9247 295.787 13.3387 296.797C12.8983 297.558 12.805 298.467 13.0849 299.298L14.2047 302.619C15.0034 304.982 17.2206 306.574 19.7215 306.574H38.3809C38.9818 306.574 39.5193 306.205 39.7358 305.646L39.8813 305.262C40.0941 304.714 39.956 304.095 39.5267 303.693C37.5373 301.825 35.1894 299.175 33.2261 295.616C32.3041 293.946 31.0761 291.363 29.7249 286.074C28.2244 280.2 27.9482 276.365 27.2352 269.608C25.6302 254.468 24.3984 249.019 25.0927 242.027C25.3876 239.071 25.6675 236.227 26.8582 232.709C27.3584 231.225 27.881 230.044 28.7507 227.293C29.6278 224.524 29.8182 223.447 30.2624 222.004C30.9081 219.913 32.1063 216.973 34.5512 213.566C35.1596 214.088 36.1077 214.964 37.0744 216.212C37.2125 216.388 38.3398 217.856 39.2169 219.738C43.0242 227.893 49.56 248.956 49.56 248.956C53.0351 260.156 55.5882 266.339 58.7684 272.381C59.5112 273.793 60.1532 274.941 60.5974 275.716C60.7317 276.361 60.8437 277.222 60.7877 278.236C60.7205 279.488 60.4219 280.502 60.1569 281.195C60.254 282.608 61.0751 283.849 62.2994 284.408C63.8149 285.098 65.711 284.624 66.8383 283.212C67.3123 285.265 67.4728 286.946 67.5325 288.124C67.6333 290.189 67.4579 291.546 68.4172 292.47C68.992 293.025 69.522 292.984 70.2462 293.29C71.1494 293.667 72.217 294.516 73.0979 296.54C73.5868 297.662 74.6469 298.434 75.86 298.598C78.8237 298.996 82.3585 299.231 86.3263 299.022C91.9774 298.721 96.6992 297.61 100.2 296.503C99.577 295.306 98.4834 293.633 96.6059 292.347C94.9785 291.233 94.3178 291.471 92.8845 290.521C90.4769 288.922 90.3799 286.932 88.4688 284.036C86.6622 281.3 84.9974 280.424 83.1087 278.683C79.5478 275.403 78.4691 272.071 75.0388 263.696C73.3069 259.466 70.6754 253.219 67.0921 245.374C66.4911 239.701 66.1925 233.227 66.5247 226.104C66.7114 222.068 67.0846 218.277 67.5661 214.77C68.3463 216.279 68.6224 217.599 68.7008 218.643C68.8352 220.435 68.3798 221.468 69.0778 222.139C69.6377 222.672 70.7836 222.836 71.5376 222.232C72.3177 221.606 72.2095 220.521 72.1983 220.435C72.2282 220.562 72.4894 221.632 73.333 221.945C74.2662 222.295 75.6435 221.628 76.1698 220.152C76.013 217.849 76.0504 214.856 76.7372 211.464C77.1403 209.481 77.6852 207.741 78.2489 206.268C78.9879 206.794 79.9547 207.588 80.899 208.725C81.5709 209.537 82.3734 210.506 82.8848 211.937C83.6836 214.177 82.8848 215.087 83.9262 216.66C84.2024 217.081 84.8444 218.05 85.9119 218.169C86.916 218.281 87.9724 217.606 88.6554 216.47C88.6853 216.634 88.8458 217.379 89.5064 217.793C90.3463 218.318 91.6266 218.083 92.1566 217.226C92.6082 216.492 92.2984 215.646 92.2499 215.527C91.6228 213.596 90.6411 209.537 92.2499 205.232C93.0076 203.208 94.0789 201.814 94.803 200.886C97.1434 197.893 99.6218 196.552 102.182 194.934C104.635 193.384 107.987 191.069 111.831 187.756C113.81 188.982 116.919 190.644 121.006 191.721C124.399 192.616 124.821 192.15 128.572 193.044C133.824 194.297 134.835 195.653 140.3 197.2C140.3 197.2 143.708 198.166 148.056 198.713C155.768 199.682 161.576 198.244 167.164 197.2C176.193 195.516 185.453 195.46 194.595 194.554C208.047 193.227 214.799 192.564 216.162 192.474C223.31 192.012 233.794 191.665 246.81 192.474C247.825 198.527 247.9 203.503 247.754 207.021C247.557 211.934 246.825 216.771 246.243 220.622C245.276 227.021 244.959 226.857 244.918 229.313C244.824 235.072 246.553 236.932 247.187 242.537C247.389 244.315 247.008 247.904 246.243 255.005C244.929 267.14 244.276 273.208 243.406 274.841C241.928 277.617 241.663 279.462 241.137 283.152C240.983 284.226 240.864 285.448 241.514 285.892C242.536 286.589 244.716 284.844 244.824 284.759C244.91 286.745 244.884 289 244.634 291.464C244.473 293.063 244.242 294.546 243.973 295.903C244.373 297.032 245.119 298.717 246.526 300.435C247.874 302.082 249.307 303.126 250.311 303.741L256.743 304.024C257.53 304.281 258.385 304.509 259.296 304.684C264.003 305.593 268.12 304.714 270.856 303.801C272.33 303.845 273.804 303.886 275.282 303.931C275.566 302.813 275.816 301.125 275.282 299.302C274.536 296.756 272.931 296.238 269.605 292.5C268.833 291.631 266.634 289.093 264.592 285.605C263.484 283.711 262.718 282.053 262.226 280.882C262.144 277.86 262.043 273.801 261.942 268.982C261.942 268.982 261.894 266.648 262.196 255.504C262.278 252.403 262.36 250.301 263.584 247.949C264.473 246.242 265.219 245.832 266.227 243.749C267.358 241.415 267.519 239.66 267.873 237.748C268.582 233.92 269.411 233.048 271.027 228.177C272.024 225.173 273.263 220.823 274.181 215.206C274.685 216.395 275.167 217.741 275.57 219.235C276.563 222.944 276.705 226.265 276.578 228.806C277.25 229.858 277.921 230.905 278.597 231.956C279.474 236.429 280.247 241.132 280.866 246.059C282.729 260.827 282.826 274.274 282.08 285.921C284.226 286.682 284.017 286.607 286.163 287.368L288.559 283.968L289.944 292.623C291.295 293.983 292.266 294.956 293.621 296.317C297.786 296.969 302.964 297.382 308.865 296.943C311.026 296.782 313.053 296.525 314.942 296.208C316.207 295.996 316.774 294.509 315.975 293.506C314.076 291.117 312.082 288.691 310 286.238C306.939 282.634 303.904 279.235 300.918 276.037C300.25 270.487 299.227 266.1 298.395 263.067C297.402 259.451 296.529 257.2 295.998 253.368C295.517 249.913 295.566 246.976 295.711 244.9C295.823 244.561 295.935 244.237 296.047 243.894C298.611 239.79 299.869 235.031 299.735 230.208C299.664 227.629 299.634 224.979 299.656 222.258C299.69 218.218 299.828 214.338 300.052 210.629C301.306 209.44 302.127 208.661 303.382 207.476C304.36 207.476 305.483 207.427 306.719 207.271C318.76 205.747 325.635 196.216 326.266 195.307C329.741 190.324 330.816 185.292 331.186 182.21C332.955 179.153 335.314 174.994 337.998 169.992C341.977 162.582 344 158.781 345.818 153.999C347.087 150.659 348.61 145.985 349.726 140.145C357.755 129.985 365.787 119.828 373.816 109.668C374.902 110.447 376.601 111.487 378.863 112.187C382.681 113.365 385.865 112.881 388.575 112.441C391.285 111.997 395.801 110.894 400.81 107.782C402.553 108.3 404.875 108.781 407.622 108.788C412.945 108.807 417.04 107.044 419.227 105.892C420.19 106.787 422.083 108.307 424.904 109.168C426.129 109.541 428.618 110.268 431.716 109.545C434.926 108.799 436.961 106.928 437.801 106.049V106.056Z" fill="#003B52"/>
<mask id="mask0_155_366" style="mask-type:luminance" maskUnits="userSpaceOnUse" x="-1" y="0" width="450" height="307">
<path d="M437.801 106.056C438.98 106.079 440.94 105.948 442.94 104.89C449.133 101.625 449.006 93.0335 448.995 92.549C448.946 90.8382 448.853 87.6962 446.471 84.994C443.403 81.5054 438.92 81.4644 438.148 81.4681C434.628 77.4279 431.097 73.3131 427.555 69.1275C424.042 64.9755 420.597 60.8458 417.223 56.7384C416.103 55.378 415.625 53.5853 416.006 51.867C416.211 50.9353 416.316 49.873 416.207 48.725C415.924 45.7955 414.341 43.4847 409.649 38.9003C407.253 36.5633 404.069 33.6524 400.075 30.5067C399.299 29.8954 398.959 28.8481 399.306 27.9238C399.586 27.1709 399.784 26.1757 399.56 25.0464C399.448 24.4761 399.25 23.9842 399.03 23.5779C398.395 22.4038 398.388 20.9838 399.067 19.8321C399.567 18.986 400.288 18.058 401.325 17.238C402.386 16.3994 403.49 15.9037 404.476 15.613C406.189 15.1098 408.134 13.045 409.69 11.4125C411.168 9.86196 412.613 8.35246 413.938 5.90371C414.602 4.67748 415.442 2.83626 415.991 0.435971C416.069 0.100527 415.666 -0.138011 415.412 0.0930727C412.098 3.12698 407.928 6.4777 402.841 9.68305C398.108 12.6648 393.625 14.8601 389.724 16.4851C389.467 16.0267 387.504 14.6364 384.932 13.8388C381.949 12.9145 380.255 13.7382 379.885 13.9656C380.848 11.1553 381.811 8.34128 382.774 5.531C383.006 4.85638 382.763 4.11468 382.177 3.70469L382.151 3.68605C381.371 3.14189 380.288 3.38788 379.837 4.22276C378.374 6.92123 375.753 10.7639 371.308 13.9618C369.165 15.5049 367.064 16.5634 365.224 17.3014C363.604 17.9499 362.629 19.6085 362.824 21.3379C362.962 22.5716 363.1 23.809 363.238 25.0464C363.264 25.7844 363.204 26.8839 362.734 28.0691C361.763 30.4955 359.74 31.5391 357.687 33.1082C357.355 33.3617 357.146 33.5704 356.997 33.768C355.351 36.0005 353.201 37.8119 350.577 38.7176C348.942 39.2804 347.247 39.8619 346.083 40.16C341.04 41.4608 338.718 42.702 334.732 43.9394C334.732 43.9394 331.007 45.0948 324.101 46.0974C309.966 48.1473 283.606 45.9744 267.634 46.4589C261.972 46.6304 254.6 47.2267 245.877 48.9673C235.508 51.0359 224.944 51.9975 214.374 51.9975H195.027C192.851 51.9975 190.709 52.5528 188.809 53.6076L188.742 53.6449C186.308 54.9941 183.497 55.5271 180.743 55.1283C170.418 53.6412 161.934 53.2834 155.891 53.2535C140.468 53.179 132.827 55.1768 120.577 52.7504C118.52 52.3441 113.645 51.2782 105.441 49.7277C98.3416 48.3859 97.2479 48.2852 94.594 47.7113C91.1227 46.9621 86.6547 45.762 81.4328 43.7307C76.6924 41.8857 71.631 40.9875 66.5434 41.1067L38.2353 41.7627C32.6364 41.8932 27.1419 43.3244 22.1962 45.9483C18.7771 47.7672 14.5593 50.0072 11.0991 53.5033C3.95117 60.7265 2.94708 70.3538 2.52158 74.4089C1.77878 81.5278 3.15613 85.1245 4.54092 93.805C5.71671 101.189 5.91452 108.468 6.30646 123.022C6.30646 123.022 6.92236 145.888 4.03705 178.687C3.30173 187.025 2.93591 191.192 2.01767 195.311C0.953888 200.085 0.0132446 202.321 -0.00167847 206.142C-0.0128784 209.395 0.655273 212.303 1.55484 214.763C3.1188 219.038 4.27216 223.458 4.74994 227.983C5.87344 238.62 6.34378 246.551 6.55283 252.235C6.63495 254.509 6.82153 260.308 7.31052 268.355C7.6203 273.439 7.94879 277.729 8.20633 280.867C8.27725 281.743 8.08316 282.619 7.64645 283.383C6.9671 284.565 6.28778 285.75 5.60846 286.932C5.69431 287.185 5.94067 287.781 6.55283 288.255C7.38892 288.896 8.31085 288.84 8.53854 288.821C8.68787 287.509 9.61359 286.447 10.808 286.175C12.2488 285.851 13.3574 286.838 13.4582 286.932C13.8986 287.729 14.8355 289.686 14.6899 292.314C14.5817 294.259 13.9247 295.787 13.3387 296.797C12.8983 297.558 12.805 298.467 13.0849 299.298L14.2047 302.619C15.0034 304.982 17.2206 306.574 19.7215 306.574H38.3809C38.9818 306.574 39.5193 306.205 39.7358 305.646L39.8813 305.262C40.0941 304.714 39.956 304.095 39.5267 303.693C37.5373 301.825 35.1894 299.175 33.2261 295.616C32.3041 293.946 31.0761 291.363 29.7249 286.074C28.2244 280.2 27.9482 276.365 27.2352 269.608C25.6302 254.468 24.3984 249.019 25.0927 242.027C25.3876 239.071 25.6675 236.227 26.8582 232.709C27.3584 231.225 27.881 230.044 28.7507 227.293C29.6278 224.524 29.8182 223.447 30.2624 222.004C30.9081 219.913 32.1063 216.973 34.5512 213.566C35.1596 214.088 36.1077 214.964 37.0744 216.212C37.2125 216.388 38.3398 217.856 39.2169 219.738C43.0242 227.893 49.56 248.956 49.56 248.956C53.0351 260.156 55.5882 266.339 58.7684 272.381C59.5112 273.793 60.1532 274.941 60.5974 275.716C60.7317 276.361 60.8437 277.222 60.7877 278.236C60.7205 279.488 60.4219 280.502 60.1569 281.195C60.254 282.608 61.0751 283.849 62.2994 284.408C63.8149 285.098 65.711 284.624 66.8383 283.212C67.3123 285.265 67.4728 286.946 67.5325 288.124C67.6333 290.189 67.4579 291.546 68.4172 292.47C68.992 293.025 69.522 292.984 70.2462 293.29C71.1494 293.667 72.217 294.516 73.0979 296.54C73.5868 297.662 74.6469 298.434 75.86 298.598C78.8237 298.996 82.3585 299.231 86.3263 299.022C91.9774 298.721 96.6992 297.61 100.2 296.503C99.577 295.306 98.4834 293.633 96.6059 292.347C94.9785 291.233 94.3178 291.471 92.8845 290.521C90.4769 288.922 90.3799 286.932 88.4688 284.036C86.6622 281.3 84.9974 280.424 83.1087 278.683C79.5478 275.403 78.4691 272.071 75.0388 263.696C73.3069 259.466 70.6754 253.219 67.0921 245.374C66.4911 239.701 66.1925 233.227 66.5247 226.104C66.7114 222.068 67.0846 218.277 67.5661 214.77C68.3463 216.279 68.6224 217.599 68.7008 218.643C68.8352 220.435 68.3798 221.468 69.0778 222.139C69.6377 222.672 70.7836 222.836 71.5376 222.232C72.3177 221.606 72.2095 220.521 72.1983 220.435C72.2282 220.562 72.4894 221.632 73.333 221.945C74.2662 222.295 75.6435 221.628 76.1698 220.152C76.013 217.849 76.0504 214.856 76.7372 211.464C77.1403 209.481 77.6852 207.741 78.2489 206.268C78.9879 206.794 79.9547 207.588 80.899 208.725C81.5709 209.537 82.3734 210.506 82.8848 211.937C83.6836 214.177 82.8848 215.087 83.9262 216.66C84.2024 217.081 84.8444 218.05 85.9119 218.169C86.916 218.281 87.9724 217.606 88.6554 216.47C88.6853 216.634 88.8458 217.379 89.5064 217.793C90.3463 218.318 91.6266 218.083 92.1566 217.226C92.6082 216.492 92.2984 215.646 92.2499 215.527C91.6228 213.596 90.6411 209.537 92.2499 205.232C93.0076 203.208 94.0789 201.814 94.803 200.886C97.1434 197.893 99.6218 196.552 102.182 194.934C104.635 193.384 107.987 191.069 111.831 187.756C113.81 188.982 116.919 190.644 121.006 191.721C124.399 192.616 124.821 192.15 128.572 193.044C133.824 194.297 134.835 195.653 140.3 197.2C140.3 197.2 143.708 198.166 148.056 198.713C155.768 199.682 161.576 198.244 167.164 197.2C176.193 195.516 185.453 195.46 194.595 194.554C208.047 193.227 214.799 192.564 216.162 192.474C223.31 192.012 233.794 191.665 246.81 192.474C247.825 198.527 247.9 203.503 247.754 207.021C247.557 211.934 246.825 216.771 246.243 220.622C245.276 227.021 244.959 226.857 244.918 229.313C244.824 235.072 246.553 236.932 247.187 242.537C247.389 244.315 247.008 247.904 246.243 255.005C244.929 267.14 244.276 273.208 243.406 274.841C241.928 277.617 241.663 279.462 241.137 283.152C240.983 284.226 240.864 285.448 241.514 285.892C242.536 286.589 244.716 284.844 244.824 284.759C244.91 286.745 244.884 289 244.634 291.464C244.473 293.063 244.242 294.546 243.973 295.903C244.373 297.032 245.119 298.717 246.526 300.435C247.874 302.082 249.307 303.126 250.311 303.741L256.743 304.024C257.53 304.281 258.385 304.509 259.296 304.684C264.003 305.593 268.12 304.714 270.856 303.801C272.33 303.845 273.804 303.886 275.282 303.931C275.566 302.813 275.816 301.125 275.282 299.302C274.536 296.756 272.931 296.238 269.605 292.5C268.833 291.631 266.634 289.093 264.592 285.605C263.484 283.711 262.718 282.053 262.226 280.882C262.144 277.86 262.043 273.801 261.942 268.982C261.942 268.982 261.894 266.648 262.196 255.504C262.278 252.403 262.36 250.301 263.584 247.949C264.473 246.242 265.219 245.832 266.227 243.749C267.358 241.415 267.519 239.66 267.873 237.748C268.582 233.92 269.411 233.048 271.027 228.177C272.024 225.173 273.263 220.823 274.181 215.206C274.685 216.395 275.167 217.741 275.57 219.235C276.563 222.944 276.705 226.265 276.578 228.806C277.25 229.858 277.921 230.905 278.597 231.956C279.474 236.429 280.247 241.132 280.866 246.059C282.729 260.827 282.826 274.274 282.08 285.921C284.226 286.682 284.017 286.607 286.163 287.368L288.559 283.968L289.944 292.623C291.295 293.983 292.266 294.956 293.621 296.317C297.786 296.969 302.964 297.382 308.865 296.943C311.026 296.782 313.053 296.525 314.942 296.208C316.207 295.996 316.774 294.509 315.975 293.506C314.076 291.117 312.082 288.691 310 286.238C306.939 282.634 303.904 279.235 300.918 276.037C300.25 270.487 299.227 266.1 298.395 263.067C297.402 259.451 296.529 257.2 295.998 253.368C295.517 249.913 295.566 246.976 295.711 244.9C295.823 244.561 295.935 244.237 296.047 243.894C298.611 239.79 299.869 235.031 299.735 230.208C299.664 227.629 299.634 224.979 299.656 222.258C299.69 218.218 299.828 214.338 300.052 210.629C301.306 209.44 302.127 208.661 303.382 207.476C304.36 207.476 305.483 207.427 306.719 207.271C318.76 205.747 325.635 196.216 326.266 195.307C329.741 190.324 330.816 185.292 331.186 182.21C332.955 179.153 335.314 174.994 337.998 169.992C341.977 162.582 344 158.781 345.818 153.999C347.087 150.659 348.61 145.985 349.726 140.145C357.755 129.985 365.787 119.828 373.816 109.668C374.902 110.447 376.601 111.487 378.863 112.187C382.681 113.365 385.865 112.881 388.575 112.441C391.285 111.997 395.801 110.894 400.81 107.782C402.553 108.3 404.875 108.781 407.622 108.788C412.945 108.807 417.04 107.044 419.227 105.892C420.19 106.787 422.083 108.307 424.904 109.168C426.129 109.541 428.618 110.268 431.716 109.545C434.926 108.799 436.961 106.928 437.801 106.049V106.056Z" fill="white"/>
</mask>
<g mask="url(#mask0_155_366)">
<path d="M381.136 121.423C381.326 121.423 381.613 121.416 381.942 121.338C382.17 121.293 382.401 121.222 382.629 121.129C382.868 121.032 383.11 120.905 383.327 120.76C383.569 120.603 383.778 120.432 383.958 120.238C384.14 120.052 384.297 119.858 384.432 119.649C384.588 119.407 384.697 119.198 384.786 118.975C384.879 118.743 384.947 118.516 384.995 118.289C385.07 117.957 385.081 117.674 385.081 117.484C385.081 117.193 385.055 116.928 384.995 116.679C384.95 116.459 384.883 116.235 384.79 116C384.7 115.777 384.581 115.549 384.443 115.329L384.398 115.259C384.245 115.039 384.099 114.86 383.931 114.696C383.737 114.502 383.536 114.338 383.327 114.2C383.099 114.047 382.883 113.947 382.741 113.88L382.625 113.831C382.39 113.738 382.147 113.667 381.912 113.619C380.632 113.358 379.307 113.753 378.359 114.681L378.28 114.759C378.116 114.938 377.989 115.098 377.873 115.259L377.829 115.326C377.687 115.549 377.59 115.758 377.526 115.896L377.481 115.997C377.381 116.25 377.31 116.485 377.265 116.723C377.231 116.917 377.19 117.178 377.19 117.476C377.19 117.715 377.213 117.961 377.261 118.222C377.31 118.475 377.384 118.721 377.481 118.963L377.526 119.068C377.608 119.243 377.713 119.452 377.87 119.675C378.008 119.88 378.165 120.074 378.347 120.257C379.06 120.987 380.079 121.412 381.136 121.412V121.423ZM381.225 117.618C381.225 117.618 381.18 117.651 381.128 117.644L381.151 117.584L381.225 117.618ZM381.296 117.506L381.248 117.461L381.296 117.443C381.296 117.476 381.296 117.491 381.296 117.502V117.506ZM380.99 117.42L381.013 117.435L380.99 117.424C380.99 117.424 380.99 117.424 380.99 117.42ZM381.113 117.323L381.106 117.338L381.095 117.327C381.095 117.327 381.11 117.327 381.113 117.327V117.323ZM381.113 117.32H381.098C381.098 117.32 381.102 117.32 381.113 117.32Z" fill="#F6F6F6"/>
<path d="M334.187 25.8553C335.213 25.8553 336.217 25.4453 336.945 24.7334C337.136 24.5545 337.307 24.3495 337.468 24.1035C337.613 23.8873 337.744 23.6451 337.841 23.3991C337.931 23.1754 338.002 22.9444 338.046 22.717C338.121 22.389 338.128 22.102 338.128 21.9157C338.128 21.6249 338.102 21.3603 338.046 21.1143C338.002 20.8981 337.938 20.6857 337.845 20.4546C337.729 20.1527 337.587 19.9142 337.486 19.7614L337.438 19.6905C337.341 19.5489 337.184 19.3402 336.968 19.124C336.251 18.4084 335.236 18.0096 334.168 17.9984C333.112 17.9984 332.1 18.4159 331.387 19.1352C330.656 19.862 330.234 20.8795 330.234 21.9157C330.234 22.9518 330.656 23.973 331.395 24.7036C332.123 25.4341 333.134 25.8553 334.179 25.8553H334.187ZM334.34 21.8598C334.347 21.8821 334.351 21.9007 334.351 21.9194C334.351 21.9529 334.344 21.9977 334.31 22.0312C334.258 22.0871 334.202 22.102 334.191 22.1057C334.183 22.1057 334.138 22.0908 334.086 22.0424L334.34 21.8635V21.8598ZM334.034 21.9716C334.034 21.9716 334.034 21.9604 334.026 21.9492V21.9641H334.034C334.034 21.9641 334.034 21.9641 334.034 21.9567V21.9716ZM334.299 21.8001L334.034 21.9716C334.03 21.9417 334.026 21.9231 334.026 21.9119C334.026 21.9119 334.026 21.897 334.034 21.8709C334.037 21.8597 334.041 21.8523 334.049 21.8374C334.056 21.8262 334.071 21.8076 334.093 21.7889C334.116 21.774 334.146 21.7554 334.191 21.7554C334.209 21.7554 334.25 21.7554 334.302 21.8001H334.299Z" fill="#F6F6F6"/>
<path d="M220.932 140.16C242.809 140.16 262.621 139.522 279.25 138.68C327.737 136.224 360.375 131.543 360.7 131.494L360.11 127.435C359.789 127.484 327.3 132.139 278.989 134.584C234.425 136.839 166.895 137.618 98.2707 128.527L97.7294 132.59C141.058 138.33 183.942 140.156 220.932 140.156V140.16Z" fill="#F6F6F6"/>
<path d="M67.2934 217.42L69.2082 214.442C78.9503 199.295 86.9269 181.069 92.9103 160.275C97.6843 143.682 101.212 125.415 103.391 105.989C107.102 72.9293 105.605 47.5659 105.59 47.3125L101.492 47.5659C101.507 47.8157 102.985 72.8883 99.3043 105.613C97.1468 124.8 93.6643 142.828 88.9537 159.191C83.4705 178.24 76.3002 195.061 67.6218 209.258C54.5838 185.803 38.6157 175.076 27.2984 170.193C14.3835 164.621 4.69366 165.199 4.2868 165.225L4.56301 169.314L4.4249 167.267L4.55927 169.314C4.65259 169.306 13.8423 168.796 25.8949 174.051C37.0256 178.904 52.9601 189.82 65.666 214.278L67.3008 217.42H67.2934Z" fill="#F6F6F6"/>
<path d="M136.993 196.678C153.461 137.532 151.863 52.989 151.845 52.1429L147.739 52.2287C147.757 53.071 149.34 137.022 133.032 195.579L136.989 196.678H136.993Z" fill="#F6F6F6"/>
<path d="M195.113 137.83H199.219C199.219 103.671 207.405 51.5541 207.487 51.0285L203.429 50.3875C203.407 50.5179 201.324 63.727 199.271 81.0061C197.371 96.9732 195.109 119.795 195.109 137.827L195.113 137.83Z" fill="#F6F6F6"/>
<path d="M307.85 217.319L304.061 208.859C303.96 208.631 293.86 185.057 301.553 134.763L297.495 134.144C291.825 171.207 295.517 193.902 298.216 204.133C295.204 202.057 291.038 199.459 286.018 197.036C273.009 190.756 260.08 188.542 248.434 190.57C248.744 148.531 256.772 111.457 263.529 87.577C270.99 61.2074 278.522 44.8638 278.597 44.6998L274.872 42.9741C274.794 43.1381 267.127 59.7799 259.576 86.4589C252.614 111.062 244.317 149.534 244.317 193.074V195.653L246.833 195.072C274.413 188.695 300.578 211.021 300.84 211.244L307.85 217.319Z" fill="#F6F6F6"/>
</g>
</g>
<defs>
<clipPath id="clip0_155_366">
<rect width="449" height="306.581" fill="white"/>
</clipPath>
</defs>
</svg>
