<svg width="337" height="261" viewBox="0 0 397 281" fill="none" xmlns="http://www.w3.org/2000/svg">
  <g clip-path="url(#clip0_155_480)">
    <mask id="mask0_155_480" style="mask-type:luminance" maskUnits="userSpaceOnUse" x="0" y="-1" width="398"
      height="282">
      <path
        d="M3.83588 105.256C2.98624 103.132 3.16492 100.757 4.24792 98.8016C4.09479 98.5458 3.95255 98.2863 3.82858 98.0085C2.20224 94.3721 3.6973 90.1326 7.15781 88.2906C7.15051 88.2797 7.14322 88.2723 7.13593 88.2614C4.76935 84.8442 5.61169 80.1516 9.02115 77.7797C10.7386 76.5846 12.7807 76.2081 14.6842 76.5626C15.0889 74.8011 16.1136 73.1747 17.7144 72.06C18.5421 71.4826 19.4465 71.1025 20.3727 70.8942C20.6352 70.4995 20.9634 70.1048 21.3499 69.7174C21.2077 69.6187 21.08 69.5017 20.9816 69.3592C20.1429 68.1495 21.3791 65.8397 23.7384 64.1988C24.351 63.7748 24.9745 63.4386 25.5835 63.19C26.0356 62.5212 26.5899 61.9182 27.2426 61.4139C28.6028 60.3686 30.1707 59.9191 31.7059 59.9958C32.0414 59.6815 32.4024 59.3709 32.8108 59.0858C33.5912 58.5449 34.3897 58.1575 35.1482 57.9053C35.1591 55.5371 36.2823 53.209 38.3717 51.7544C39.3563 51.071 40.4429 50.6617 41.5514 50.4972C41.7666 50.0623 42.0765 49.6676 42.5032 49.3716C43.2106 48.8782 44.0566 48.7503 44.8333 48.9257C44.939 48.1326 45.3547 47.3871 46.0621 46.8937C47.2874 46.0421 48.921 46.2578 49.9019 47.3286C50.2993 46.2395 51.3021 45.0079 52.7243 44.0174C54.646 42.6798 56.7062 42.2156 57.8622 42.7383C58.1867 42.2266 58.6243 41.7478 59.1822 41.3568C60.4439 40.4797 61.9098 40.286 63.0037 40.7245C63.3902 40.3408 63.8205 39.9643 64.3128 39.6208C66.6721 37.9798 69.2647 37.6253 70.1034 38.835C70.2201 39.0032 70.2894 39.1969 70.3259 39.4052C70.6978 39.4563 71.0624 39.5258 71.4125 39.6281C71.4672 39.5879 71.5182 39.5441 71.5729 39.5038C72.6122 38.7802 73.6916 38.3234 74.6506 38.1224C75.6315 35.1767 78.3737 33.0277 81.6518 32.9729C83.3985 32.9436 85.0103 33.5211 86.3011 34.5005C87.5591 33.4809 89.1526 32.8523 90.8993 32.823C92.646 32.7938 94.2577 33.3712 95.5486 34.3507C96.8066 33.331 98.4001 32.7024 100.147 32.6732C101.893 32.644 103.505 33.2214 104.796 34.2009C106.054 33.1812 107.648 32.5526 109.394 32.5233C111.141 32.4941 112.753 33.0716 114.044 34.051C115.302 33.0313 116.895 32.4027 118.642 32.3735C121.3 32.3296 123.656 33.6819 125.023 35.7505C125.125 34.4969 126.011 33.3968 127.299 33.1081C128.783 32.7719 130.249 33.6344 130.726 35.0488C131.277 34.9099 131.846 34.8258 132.436 34.8149C134.241 34.7856 135.908 35.396 137.221 36.4412C137.545 35.5129 138.318 34.7673 139.346 34.5371C140.076 34.3726 140.794 34.5042 141.399 34.8368C141.899 34.7235 142.42 34.6577 142.953 34.6467C144.896 34.6138 146.676 35.3338 148.029 36.5253C149.367 35.1474 151.223 34.2776 153.294 34.2447C155.526 34.2082 157.539 35.1584 158.939 36.6824C159.621 36.4229 160.354 36.2585 161.12 36.211C165.021 35.9624 168.416 38.7473 169.014 42.5446C170.09 39.5806 172.963 37.5011 176.282 37.5961C178.721 37.6655 180.847 38.8972 182.171 40.7391C182.605 40.6514 183.053 40.5966 183.513 40.5893C184.665 40.571 185.759 40.8195 186.744 41.2691C188.082 39.3979 190.251 38.1626 192.724 38.1224C195.196 38.0822 197.402 39.248 198.802 41.0754C199.772 40.593 200.855 40.3079 202.008 40.2896C203.754 40.2604 205.366 40.8378 206.657 41.8173C207.915 40.7976 209.509 40.169 211.255 40.1398C213.002 40.1105 214.614 40.688 215.904 41.6674C217.162 40.6478 218.756 40.0192 220.503 39.9899C220.659 39.9899 220.813 39.9972 220.966 40.0045C221.119 39.9936 221.272 39.9753 221.429 39.9753C221.586 39.9753 221.739 39.9826 221.892 39.9899C222.045 39.979 222.198 39.9607 222.355 39.9607C222.512 39.9607 222.665 39.968 222.818 39.9753C222.971 39.9643 223.124 39.9461 223.281 39.9461C224.864 39.9205 226.337 40.3883 227.562 41.2069C228.022 41.3568 228.463 41.5468 228.882 41.7771C230.848 41.9927 232.594 42.9649 233.805 44.4085C234.119 44.1819 234.483 44.0101 234.884 43.9187C235.424 43.7981 235.956 43.842 236.445 44.0028C236.937 44.1636 240.124 42.3984 241.207 42.424C243.067 42.4715 244.93 43.2865 246.258 44.5876C246.065 43.9151 246.743 43.334 247.348 42.9831C251.428 40.6076 256.052 39.1786 260.76 38.846C261.548 38.7912 262.342 38.7619 263.101 38.55C263.907 38.3234 264.64 37.8994 265.424 37.5961C268.724 36.3242 272.815 37.6071 274.799 40.5381C277.074 40.794 278.598 38.2539 279.229 36.0465C280.021 33.2726 281.574 30.6156 282.963 28.3168C284.728 25.3967 286.143 22.9334 290.059 22.8712C290.402 22.8676 290.741 22.8932 291.073 22.9297C291.215 22.8018 291.365 22.6849 291.514 22.5716C290.73 22.0234 290.198 21.1097 290.249 19.984C290.293 18.9936 290.869 18.069 291.737 17.5865C292.707 17.0456 293.735 17.1151 294.559 17.5536C294.628 16.2672 295.525 15.1269 296.842 14.8309C297.721 14.6335 298.592 14.8601 299.259 15.3681C300.266 14.6883 301.447 14.2498 302.72 14.1255C301.699 13.6541 301.054 12.9779 301.039 12.2104C301.013 10.7376 303.325 9.50961 306.195 9.4621C307.431 9.44383 308.565 9.64484 309.462 9.99934C309.553 8.47167 310.79 7.24369 312.343 7.21811C313.743 7.19618 314.925 8.15737 315.246 9.4621C316.139 9.06374 317.291 8.81522 318.553 8.79694C319.621 8.77867 320.621 8.92851 321.452 9.19896C321.394 5.04721 324.697 1.63005 328.843 1.56061C330.565 1.53137 332.158 2.0942 333.438 3.05173C333.438 3.03346 333.431 3.01518 333.431 2.99326C333.405 1.36325 334.703 0.0183195 336.33 -0.00726348C337.19 -0.0218823 337.96 0.339934 338.51 0.921034C339.199 1.64832 342.503 -1.6665 343.666 2.32079C345.924 1.02702 348.808 0.891796 351.174 1.97359C351.929 2.31713 352.669 2.78494 353.497 2.79956C354.081 2.81052 354.653 2.58758 355.24 2.62048C356.389 2.68261 357.268 3.67303 358.369 4.01292C359.766 4.44052 361.242 3.76075 362.701 3.70958C363.959 3.66572 365.294 4.17007 365.99 5.22263C366.603 6.14727 366.453 7.49221 366.067 8.46436C366.982 8.80791 368.688 9.62656 369.031 10.6901C369.184 10.6608 369.341 10.6389 369.505 10.6353C371.132 10.6097 372.474 11.9108 372.499 13.5408C372.499 13.7089 372.481 13.8697 372.459 14.0305C374.76 14.4581 376.346 15.3608 376.361 16.4353C376.364 16.7204 376.259 16.9945 376.062 17.254C377.112 17.7254 377.783 18.4125 377.794 19.1909C377.816 20.6638 375.507 21.8918 372.638 21.9393C372.032 21.9503 371.456 21.9027 370.913 21.815C370.588 22.0489 370.194 22.2536 369.742 22.4254C370.916 23.7301 371.649 25.4478 371.682 27.3446C371.715 29.4607 370.873 31.3867 369.491 32.7755C371.026 34.0876 372.35 35.279 373.447 36.295C378.592 41.0717 383.351 46.287 387.687 51.8093C389.94 54.6782 392.857 56.8893 394.757 60.0506C396.085 62.2581 397.51 64.6337 396.839 67.3162C396.548 68.4894 395.946 69.3519 395.494 69.8855C395.625 70.4958 395.76 71.4278 395.651 72.5498C395.538 73.7229 395.326 75.9596 393.754 76.7527C393.485 76.8879 392.617 77.2607 391.213 76.7929C391.49 77.4069 391.818 78.4229 391.486 79.4535C391.18 80.4074 390.367 81.1676 387.603 82.2969C383.785 83.8538 381.878 84.6323 380.004 84.2741C377.083 83.7149 376.795 81.6171 373.578 80.2064C370.752 78.9675 367.915 79.2452 366.056 79.6326C365.735 80.0821 365.367 80.4951 364.958 80.8606C365.439 81.237 365.822 81.7706 366.012 82.4248C367.46 87.4245 361.235 84.8625 358.675 85.6665C357.497 86.0357 356.422 86.9932 356.261 88.2212C356.104 89.4053 356.786 90.5127 357.202 91.631C358.274 94.5292 357.428 98.0341 355.156 100.121C354.526 100.698 353.778 101.206 353.432 101.992C353.001 102.972 353.322 104.094 353.432 105.161C353.884 109.455 350.682 112.028 348.308 115.069C346.12 117.872 346.46 121.187 341.774 121.64C341.763 121.64 341.752 121.64 341.741 121.64C341.741 123.383 341.198 125.013 340.271 126.329C339.473 129.348 337.008 131.679 333.905 131.979C333.803 131.99 333.704 131.986 333.606 131.994C333.93 132.765 334.149 133.598 334.229 134.486C334.576 138.488 332.038 142.055 328.439 142.848C328.654 143.532 328.778 144.252 328.792 145.004C328.858 148.966 325.857 152.255 321.984 152.617C321.631 156.389 318.495 159.368 314.629 159.433C314.618 159.433 314.607 159.433 314.593 159.433C314.469 161.107 313.791 162.628 312.748 163.823C312.164 165.416 311.059 166.757 309.634 167.638C310.115 168.61 310.403 169.699 310.421 170.858C310.487 175.017 307.18 178.441 303.03 178.507C302.961 178.507 302.891 178.5 302.818 178.5C301.586 180.872 299.128 182.509 296.273 182.557C296.109 182.557 295.945 182.549 295.781 182.538C294.763 183.423 293.505 184.033 292.112 184.267C291.029 184.987 289.782 185.411 288.451 185.455C287.051 187.812 284.743 189.369 282.106 189.413C278.897 189.464 276.108 187.264 274.813 184.066C273.632 184.888 272.203 185.382 270.656 185.407C270.58 185.407 270.507 185.4 270.43 185.4C270.518 185.835 270.573 186.284 270.58 186.741C270.631 189.906 268.724 192.64 265.982 193.799C265.457 196.054 263.921 197.925 261.865 198.893C261.788 200.468 261.227 202.011 260.217 203.268C260.913 207.683 260.64 212.46 259.513 216.315C259.462 216.944 259.181 218.691 259.67 220.938C259.958 222.258 260.264 222.609 260.33 223.555C260.486 225.818 259.006 227.619 258.546 228.233C257.865 229.151 256.825 229.713 255.691 229.684C254.568 245.849 257.708 253.908 261.259 258.268C262.455 259.737 266.27 263.947 267.466 270.449C267.943 273.036 267.896 275.408 267.655 277.393C267.462 278.997 266.171 280.243 264.559 280.335L253.237 280.993C251.574 281.088 250.087 279.929 249.795 278.285C249.791 278.259 249.788 278.237 249.784 278.211C249.514 276.677 248.19 275.551 246.637 275.503C245.908 275.481 245.182 275.46 244.453 275.434C242.939 275.386 241.656 274.316 241.328 272.832C240.635 269.703 239.785 265.007 239.847 262.091C239.935 258.133 240.73 254.902 241.459 252.683C240.504 245.816 239.468 238.847 238.345 231.778C238.148 230.532 237.94 229.308 237.74 228.069C237.291 227.535 236.999 226.866 236.952 226.124C236.945 226.004 236.937 225.891 236.93 225.785C236.693 222.605 236.401 223.106 235.719 217.616C235.143 212.979 234.728 209.517 234.706 206.893C233.054 205.537 231.985 203.495 231.949 201.188C231.931 199.997 232.197 198.868 232.671 197.855C229.006 197.406 226.136 194.314 226.074 190.509C226.074 190.436 226.082 190.363 226.082 190.294C225.943 190.305 225.808 190.323 225.67 190.327C223.832 190.356 222.133 189.64 220.769 188.426C219.445 189.683 217.768 190.455 215.93 190.484C214.854 190.502 213.826 190.264 212.882 189.822C209.45 192.158 204.783 191.266 202.449 187.83C202.409 187.772 202.376 187.71 202.34 187.651C202.31 187.651 202.278 187.651 202.248 187.659C200.83 189.552 198.77 190.765 196.447 190.802C194.609 190.831 192.906 190.115 191.546 188.901C190.222 190.158 188.545 190.93 186.707 190.959C183.316 191.014 180.391 188.55 179.206 185.049C178.579 185.48 177.883 185.813 177.139 186.04C175.899 186.898 174.448 187.377 172.898 187.322C171.946 187.29 171.042 187.048 170.203 186.657C169.27 187.136 168.241 187.406 167.158 187.425C166.112 187.443 165.113 187.213 164.19 186.796C162.852 189.526 160.365 191.386 157.477 191.43C155.639 191.46 153.94 190.743 152.576 189.53C151.252 190.787 149.575 191.558 147.737 191.587C145.899 191.617 144.2 190.9 142.836 189.687C141.513 190.944 139.835 191.715 137.997 191.745C136.159 191.774 134.457 191.058 133.096 189.844C131.773 191.101 130.095 191.873 128.258 191.902C125.26 191.949 122.624 190.038 121.234 187.176C120.483 187.523 119.674 187.746 118.82 187.805C116.355 187.98 114.076 186.811 112.512 184.834C111.983 185.005 111.433 185.122 110.86 185.162C110.04 185.221 109.237 185.13 108.479 184.91C107.589 188.803 104.595 191.69 100.989 191.748C100.424 191.756 99.8733 191.693 99.3373 191.569C98.8669 196.086 95.6288 199.613 91.6396 199.675C91.3004 199.683 90.965 199.653 90.6368 199.61C90.9467 202.745 89.2621 205.863 86.2355 207.222C84.8644 207.836 83.4094 208.004 82.0274 207.789C81.2653 208.973 80.1677 209.96 78.7893 210.581C77.2943 211.253 75.6971 211.389 74.2094 211.078C74.6725 211.158 72.4372 241.383 73.7317 244.303C74.7235 246.543 75.9998 248.93 77.8595 254.149C78.1621 254.997 78.4356 255.804 78.6909 256.568C78.6909 256.568 78.6909 256.572 78.6945 256.576C79.7812 257.939 83.7595 262.197 84.9883 268.863C85.4952 271.607 85.4113 274.111 85.1342 276.165C84.9409 277.579 83.7704 278.654 82.3483 278.734C79.1649 278.921 73.4946 279.249 70.3368 279.432C68.9438 279.513 67.6858 278.624 67.2956 277.283C67.1169 276.666 66.9419 276 66.7815 275.295C63.0803 275.178 59.3755 275.065 55.6743 274.948C53.8474 274.889 52.2976 273.566 51.984 271.761C51.6704 269.963 51.4589 267.843 51.51 265.475C51.5975 261.517 52.3925 258.286 53.1217 256.068C54.3579 252.307 51.2802 244.04 50.7369 240.067C50.303 236.902 50.4343 233.2 48.746 230.368C46.9264 227.316 44.465 226.545 44.0347 222.594C43.7904 220.357 43.5497 218.124 43.3054 215.888C42.835 211.571 42.3719 207.178 43.2033 202.917C44.0529 198.583 46.4086 194.508 50.4051 192.41C50.0259 192.607 48.0276 180.419 47.601 179.728C45.9856 177.126 42.0583 177.356 40.4612 173.785C39.7464 172.188 39.6407 170.478 40.0309 168.903C38.5978 168.146 37.3944 166.925 36.6797 165.328C36.563 165.069 36.4646 164.802 36.3807 164.539C35.4618 163.812 34.6961 162.861 34.1855 161.717C33.6495 160.519 33.4526 159.254 33.5547 158.034C33.3104 157.672 33.0843 157.288 32.902 156.875C32.1873 155.278 32.0815 153.567 32.4717 151.989C31.0386 151.232 29.8353 150.011 29.1206 148.414C28.0339 145.98 28.3439 143.279 29.7003 141.204C28.5116 141.602 27.1551 141.222 26.3784 140.147C25.485 138.912 25.6965 137.224 26.8087 136.226C26.4659 135.773 26.1633 135.283 25.9189 134.742C24.6937 132.005 25.2407 128.931 27.0567 126.793C26.7504 126.651 26.4623 126.479 26.1815 126.3C25.6892 126.906 25.0584 127.502 24.2999 128.032C21.9406 129.673 19.348 130.027 18.5093 128.818C18.2905 128.503 18.2212 128.112 18.265 127.681C15.0269 129.143 11.1106 128.142 9.01385 125.112C8.0986 123.789 7.6683 122.276 7.6756 120.781C6.34827 121.099 5.05377 120.781 4.39011 119.816C4.10931 119.407 3.98535 118.932 3.97806 118.435C1.65524 117.185 0.0581055 114.751 0.0107117 111.918C-0.0366821 109.057 1.52032 106.539 3.84677 105.227L3.83588 105.256ZM126.128 38.4696C126.15 38.433 126.172 38.3928 126.194 38.3599C126.161 38.3343 126.128 38.3088 126.095 38.2832C126.11 38.3453 126.113 38.4074 126.128 38.4696ZM36.9131 62.7953C36.8839 62.7588 36.8548 62.7186 36.8256 62.682C36.8256 62.682 36.8256 62.682 36.822 62.6857C36.8511 62.7222 36.8876 62.7551 36.9168 62.7953H36.9131ZM31.7351 139.142C31.6913 139.135 31.6512 139.131 31.6075 139.128C31.5966 139.168 31.5892 139.208 31.5783 139.248C31.6294 139.212 31.6841 139.183 31.7387 139.146L31.7351 139.142Z"
        fill="white" />
    </mask>
    <g mask="url(#mask0_155_480)">
      <path
        d="M3.83588 105.256C2.98624 103.132 3.16492 100.757 4.24792 98.8016C4.09479 98.5458 3.95255 98.2863 3.82858 98.0085C2.20224 94.3721 3.6973 90.1326 7.15781 88.2906C7.15051 88.2797 7.14322 88.2723 7.13593 88.2614C4.76935 84.8442 5.61169 80.1516 9.02115 77.7797C10.7386 76.5846 12.7807 76.2081 14.6842 76.5626C15.0889 74.8011 16.1136 73.1747 17.7144 72.06C18.5421 71.4826 19.4465 71.1025 20.3727 70.8942C20.6352 70.4995 20.9634 70.1048 21.3499 69.7174C21.2077 69.6187 21.08 69.5017 20.9816 69.3592C20.1429 68.1495 21.3791 65.8397 23.7384 64.1988C24.351 63.7748 24.9745 63.4386 25.5835 63.19C26.0356 62.5212 26.5899 61.9182 27.2426 61.4139C28.6028 60.3686 30.1707 59.9191 31.7059 59.9958C32.0414 59.6815 32.4024 59.3709 32.8108 59.0858C33.5912 58.5449 34.3897 58.1575 35.1482 57.9053C35.1591 55.5371 36.2823 53.209 38.3717 51.7544C39.3563 51.071 40.4429 50.6617 41.5514 50.4972C41.7666 50.0623 42.0765 49.6676 42.5032 49.3716C43.2106 48.8782 44.0566 48.7503 44.8333 48.9257C44.939 48.1326 45.3547 47.3871 46.0621 46.8937C47.2874 46.0421 48.921 46.2578 49.9019 47.3286C50.2993 46.2395 51.3021 45.0079 52.7243 44.0174C54.646 42.6798 56.7062 42.2156 57.8622 42.7383C58.1867 42.2266 58.6243 41.7478 59.1822 41.3568C60.4439 40.4797 61.9098 40.286 63.0037 40.7245C63.3902 40.3408 63.8205 39.9643 64.3128 39.6208C66.6721 37.9798 69.2647 37.6253 70.1034 38.835C70.2201 39.0032 70.2894 39.1969 70.3259 39.4052C70.6978 39.4563 71.0624 39.5258 71.4125 39.6281C71.4672 39.5879 71.5182 39.5441 71.5729 39.5038C72.6122 38.7802 73.6916 38.3234 74.6506 38.1224C75.6315 35.1767 78.3737 33.0277 81.6518 32.9729C83.3985 32.9436 85.0103 33.5211 86.3011 34.5005C87.5591 33.4809 89.1526 32.8523 90.8993 32.823C92.646 32.7938 94.2577 33.3712 95.5486 34.3507C96.8066 33.331 98.4001 32.7024 100.147 32.6732C101.893 32.644 103.505 33.2214 104.796 34.2009C106.054 33.1812 107.648 32.5526 109.394 32.5233C111.141 32.4941 112.753 33.0716 114.044 34.051C115.302 33.0313 116.895 32.4027 118.642 32.3735C121.3 32.3296 123.656 33.6819 125.023 35.7505C125.125 34.4969 126.011 33.3968 127.299 33.1081C128.783 32.7719 130.249 33.6344 130.726 35.0488C131.277 34.9099 131.846 34.8258 132.436 34.8149C134.241 34.7856 135.908 35.396 137.221 36.4412C137.545 35.5129 138.318 34.7673 139.346 34.5371C140.076 34.3726 140.794 34.5042 141.399 34.8368C141.899 34.7235 142.42 34.6577 142.953 34.6467C144.896 34.6138 146.676 35.3338 148.029 36.5253C149.367 35.1474 151.223 34.2776 153.294 34.2447C155.526 34.2082 157.539 35.1584 158.939 36.6824C159.621 36.4229 160.354 36.2585 161.12 36.211C165.021 35.9624 168.416 38.7473 169.014 42.5446C170.09 39.5806 172.963 37.5011 176.282 37.5961C178.721 37.6655 180.847 38.8972 182.171 40.7391C182.605 40.6514 183.053 40.5966 183.513 40.5893C184.665 40.571 185.759 40.8195 186.744 41.2691C188.082 39.3979 190.251 38.1626 192.724 38.1224C195.196 38.0822 197.402 39.248 198.802 41.0754C199.772 40.593 200.855 40.3079 202.008 40.2896C203.754 40.2604 205.366 40.8378 206.657 41.8173C207.915 40.7976 209.509 40.169 211.255 40.1398C213.002 40.1105 214.614 40.688 215.904 41.6674C217.162 40.6478 218.756 40.0192 220.503 39.9899C220.659 39.9899 220.813 39.9972 220.966 40.0045C221.119 39.9936 221.272 39.9753 221.429 39.9753C221.586 39.9753 221.739 39.9826 221.892 39.9899C222.045 39.979 222.198 39.9607 222.355 39.9607C222.512 39.9607 222.665 39.968 222.818 39.9753C222.971 39.9643 223.124 39.9461 223.281 39.9461C224.864 39.9205 226.337 40.3883 227.562 41.2069C228.022 41.3568 228.463 41.5468 228.882 41.7771C230.848 41.9927 232.594 42.9649 233.805 44.4085C234.119 44.1819 234.483 44.0101 234.884 43.9187C235.424 43.7981 235.956 43.842 236.445 44.0028C236.937 44.1636 240.124 42.3984 241.207 42.424C243.067 42.4715 244.93 43.2865 246.258 44.5876C246.065 43.9151 246.743 43.334 247.348 42.9831C251.428 40.6076 256.052 39.1786 260.76 38.846C261.548 38.7912 262.342 38.7619 263.101 38.55C263.907 38.3234 264.64 37.8994 265.424 37.5961C268.724 36.3242 272.815 37.6071 274.799 40.5381C277.074 40.794 278.598 38.2539 279.229 36.0465C280.021 33.2726 281.574 30.6156 282.963 28.3168C284.728 25.3967 286.143 22.9334 290.059 22.8712C290.402 22.8676 290.741 22.8932 291.073 22.9297C291.215 22.8018 291.365 22.6849 291.514 22.5716C290.73 22.0234 290.198 21.1097 290.249 19.984C290.293 18.9936 290.869 18.069 291.737 17.5865C292.707 17.0456 293.735 17.1151 294.559 17.5536C294.628 16.2672 295.525 15.1269 296.842 14.8309C297.721 14.6335 298.592 14.8601 299.259 15.3681C300.266 14.6883 301.447 14.2498 302.72 14.1255C301.699 13.6541 301.054 12.9779 301.039 12.2104C301.013 10.7376 303.325 9.50961 306.195 9.4621C307.431 9.44383 308.565 9.64484 309.462 9.99934C309.553 8.47167 310.79 7.24369 312.343 7.21811C313.743 7.19618 314.925 8.15737 315.246 9.4621C316.139 9.06374 317.291 8.81522 318.553 8.79694C319.621 8.77867 320.621 8.92851 321.452 9.19896C321.394 5.04721 324.697 1.63005 328.843 1.56061C330.565 1.53137 332.158 2.0942 333.438 3.05173C333.438 3.03346 333.431 3.01518 333.431 2.99326C333.405 1.36325 334.703 0.0183195 336.33 -0.00726348C337.19 -0.0218823 337.96 0.339934 338.51 0.921034C339.199 1.64832 342.503 -1.6665 343.666 2.32079C345.924 1.02702 348.808 0.891796 351.174 1.97359C351.929 2.31713 352.669 2.78494 353.497 2.79956C354.081 2.81052 354.653 2.58758 355.24 2.62048C356.389 2.68261 357.268 3.67303 358.369 4.01292C359.766 4.44052 361.242 3.76075 362.701 3.70958C363.959 3.66572 365.294 4.17007 365.99 5.22263C366.603 6.14727 366.453 7.49221 366.067 8.46436C366.982 8.80791 368.688 9.62656 369.031 10.6901C369.184 10.6608 369.341 10.6389 369.505 10.6353C371.132 10.6097 372.474 11.9108 372.499 13.5408C372.499 13.7089 372.481 13.8697 372.459 14.0305C374.76 14.4581 376.346 15.3608 376.361 16.4353C376.364 16.7204 376.259 16.9945 376.062 17.254C377.112 17.7254 377.783 18.4125 377.794 19.1909C377.816 20.6638 375.507 21.8918 372.638 21.9393C372.032 21.9503 371.456 21.9027 370.913 21.815C370.588 22.0489 370.194 22.2536 369.742 22.4254C370.916 23.7301 371.649 25.4478 371.682 27.3446C371.715 29.4607 370.873 31.3867 369.491 32.7755C371.026 34.0876 372.35 35.279 373.447 36.295C378.592 41.0717 383.351 46.287 387.687 51.8093C389.94 54.6782 392.857 56.8893 394.757 60.0506C396.085 62.2581 397.51 64.6337 396.839 67.3162C396.548 68.4894 395.946 69.3519 395.494 69.8855C395.625 70.4958 395.76 71.4278 395.651 72.5498C395.538 73.7229 395.326 75.9596 393.754 76.7527C393.485 76.8879 392.617 77.2607 391.213 76.7929C391.49 77.4069 391.818 78.4229 391.486 79.4535C391.18 80.4074 390.367 81.1676 387.603 82.2969C383.785 83.8538 381.878 84.6323 380.004 84.2741C377.083 83.7149 376.795 81.6171 373.578 80.2064C370.752 78.9675 367.915 79.2452 366.056 79.6326C365.735 80.0821 365.367 80.4951 364.958 80.8606C365.439 81.237 365.822 81.7706 366.012 82.4248C367.46 87.4245 361.235 84.8625 358.675 85.6665C357.497 86.0357 356.422 86.9932 356.261 88.2212C356.104 89.4053 356.786 90.5127 357.202 91.631C358.274 94.5292 357.428 98.0341 355.156 100.121C354.526 100.698 353.778 101.206 353.432 101.992C353.001 102.972 353.322 104.094 353.432 105.161C353.884 109.455 350.682 112.028 348.308 115.069C346.12 117.872 346.46 121.187 341.774 121.64C341.763 121.64 341.752 121.64 341.741 121.64C341.741 123.383 341.198 125.013 340.271 126.329C339.473 129.348 337.008 131.679 333.905 131.979C333.803 131.99 333.704 131.986 333.606 131.994C333.93 132.765 334.149 133.598 334.229 134.486C334.576 138.488 332.038 142.055 328.439 142.848C328.654 143.532 328.778 144.252 328.792 145.004C328.858 148.966 325.857 152.255 321.984 152.617C321.631 156.389 318.495 159.368 314.629 159.433C314.618 159.433 314.607 159.433 314.593 159.433C314.469 161.107 313.791 162.628 312.748 163.823C312.164 165.416 311.059 166.757 309.634 167.638C310.115 168.61 310.403 169.699 310.421 170.858C310.487 175.017 307.18 178.441 303.03 178.507C302.961 178.507 302.891 178.5 302.818 178.5C301.586 180.872 299.128 182.509 296.273 182.557C296.109 182.557 295.945 182.549 295.781 182.538C294.763 183.423 293.505 184.033 292.112 184.267C291.029 184.987 289.782 185.411 288.451 185.455C287.051 187.812 284.743 189.369 282.106 189.413C278.897 189.464 276.108 187.264 274.813 184.066C273.632 184.888 272.203 185.382 270.656 185.407C270.58 185.407 270.507 185.4 270.43 185.4C270.518 185.835 270.573 186.284 270.58 186.741C270.631 189.906 268.724 192.64 265.982 193.799C265.457 196.054 263.921 197.925 261.865 198.893C261.788 200.468 261.227 202.011 260.217 203.268C260.913 207.683 260.64 212.46 259.513 216.315C259.462 216.944 259.181 218.691 259.67 220.938C259.958 222.258 260.264 222.609 260.33 223.555C260.486 225.818 259.006 227.619 258.546 228.233C257.865 229.151 256.825 229.713 255.691 229.684C254.568 245.849 257.708 253.908 261.259 258.268C262.455 259.737 266.27 263.947 267.466 270.449C267.943 273.036 267.896 275.408 267.655 277.393C267.462 278.997 266.171 280.243 264.559 280.335L253.237 280.993C251.574 281.088 250.087 279.929 249.795 278.285C249.791 278.259 249.788 278.237 249.784 278.211C249.514 276.677 248.19 275.551 246.637 275.503C245.908 275.481 245.182 275.46 244.453 275.434C242.939 275.386 241.656 274.316 241.328 272.832C240.635 269.703 239.785 265.007 239.847 262.091C239.935 258.133 240.73 254.902 241.459 252.683C240.504 245.816 239.468 238.847 238.345 231.778C238.148 230.532 237.94 229.308 237.74 228.069C237.291 227.535 236.999 226.866 236.952 226.124C236.945 226.004 236.937 225.891 236.93 225.785C236.693 222.605 236.401 223.106 235.719 217.616C235.143 212.979 234.728 209.517 234.706 206.893C233.054 205.537 231.985 203.495 231.949 201.188C231.931 199.997 232.197 198.868 232.671 197.855C229.006 197.406 226.136 194.314 226.074 190.509C226.074 190.436 226.082 190.363 226.082 190.294C225.943 190.305 225.808 190.323 225.67 190.327C223.832 190.356 222.133 189.64 220.769 188.426C219.445 189.683 217.768 190.455 215.93 190.484C214.854 190.502 213.826 190.264 212.882 189.822C209.45 192.158 204.783 191.266 202.449 187.83C202.409 187.772 202.376 187.71 202.34 187.651C202.31 187.651 202.278 187.651 202.248 187.659C200.83 189.552 198.77 190.765 196.447 190.802C194.609 190.831 192.906 190.115 191.546 188.901C190.222 190.158 188.545 190.93 186.707 190.959C183.316 191.014 180.391 188.55 179.206 185.049C178.579 185.48 177.883 185.813 177.139 186.04C175.899 186.898 174.448 187.377 172.898 187.322C171.946 187.29 171.042 187.048 170.203 186.657C169.27 187.136 168.241 187.406 167.158 187.425C166.112 187.443 165.113 187.213 164.19 186.796C162.852 189.526 160.365 191.386 157.477 191.43C155.639 191.46 153.94 190.743 152.576 189.53C151.252 190.787 149.575 191.558 147.737 191.587C145.899 191.617 144.2 190.9 142.836 189.687C141.513 190.944 139.835 191.715 137.997 191.745C136.159 191.774 134.457 191.058 133.096 189.844C131.773 191.101 130.095 191.873 128.258 191.902C125.26 191.949 122.624 190.038 121.234 187.176C120.483 187.523 119.674 187.746 118.82 187.805C116.355 187.98 114.076 186.811 112.512 184.834C111.983 185.005 111.433 185.122 110.86 185.162C110.04 185.221 109.237 185.13 108.479 184.91C107.589 188.803 104.595 191.69 100.989 191.748C100.424 191.756 99.8733 191.693 99.3373 191.569C98.8669 196.086 95.6288 199.613 91.6396 199.675C91.3004 199.683 90.965 199.653 90.6368 199.61C90.9467 202.745 89.2621 205.863 86.2355 207.222C84.8644 207.836 83.4094 208.004 82.0274 207.789C81.2653 208.973 80.1677 209.96 78.7893 210.581C77.2943 211.253 75.6971 211.389 74.2094 211.078C74.6725 211.158 72.4372 241.383 73.7317 244.303C74.7235 246.543 75.9998 248.93 77.8595 254.149C78.1621 254.997 78.4356 255.804 78.6909 256.568C78.6909 256.568 78.6909 256.572 78.6945 256.576C79.7812 257.939 83.7595 262.197 84.9883 268.863C85.4952 271.607 85.4113 274.111 85.1342 276.165C84.9409 277.579 83.7704 278.654 82.3483 278.734C79.1649 278.921 73.4946 279.249 70.3368 279.432C68.9438 279.513 67.6858 278.624 67.2956 277.283C67.1169 276.666 66.9419 276 66.7815 275.295C63.0803 275.178 59.3755 275.065 55.6743 274.948C53.8474 274.889 52.2976 273.566 51.984 271.761C51.6704 269.963 51.4589 267.843 51.51 265.475C51.5975 261.517 52.3925 258.286 53.1217 256.068C54.3579 252.307 51.2802 244.04 50.7369 240.067C50.303 236.902 50.4343 233.2 48.746 230.368C46.9264 227.316 44.465 226.545 44.0347 222.594C43.7904 220.357 43.5497 218.124 43.3054 215.888C42.835 211.571 42.3719 207.178 43.2033 202.917C44.0529 198.583 46.4086 194.508 50.4051 192.41C50.0259 192.607 48.0276 180.419 47.601 179.728C45.9856 177.126 42.0583 177.356 40.4612 173.785C39.7464 172.188 39.6407 170.478 40.0309 168.903C38.5978 168.146 37.3944 166.925 36.6797 165.328C36.563 165.069 36.4646 164.802 36.3807 164.539C35.4618 163.812 34.6961 162.861 34.1855 161.717C33.6495 160.519 33.4526 159.254 33.5547 158.034C33.3104 157.672 33.0843 157.288 32.902 156.875C32.1873 155.278 32.0815 153.567 32.4717 151.989C31.0386 151.232 29.8353 150.011 29.1206 148.414C28.0339 145.98 28.3439 143.279 29.7003 141.204C28.5116 141.602 27.1551 141.222 26.3784 140.147C25.485 138.912 25.6965 137.224 26.8087 136.226C26.4659 135.773 26.1633 135.283 25.9189 134.742C24.6937 132.005 25.2407 128.931 27.0567 126.793C26.7504 126.651 26.4623 126.479 26.1815 126.3C25.6892 126.906 25.0584 127.502 24.2999 128.032C21.9406 129.673 19.348 130.027 18.5093 128.818C18.2905 128.503 18.2212 128.112 18.265 127.681C15.0269 129.143 11.1106 128.142 9.01385 125.112C8.0986 123.789 7.6683 122.276 7.6756 120.781C6.34827 121.099 5.05377 120.781 4.39011 119.816C4.10931 119.407 3.98535 118.932 3.97806 118.435C1.65524 117.185 0.0581055 114.751 0.0107117 111.918C-0.0366821 109.057 1.52032 106.539 3.84677 105.227L3.83588 105.256ZM126.128 38.4696C126.15 38.433 126.172 38.3928 126.194 38.3599C126.161 38.3343 126.128 38.3088 126.095 38.2832C126.11 38.3453 126.113 38.4074 126.128 38.4696ZM36.9131 62.7953C36.8839 62.7588 36.8548 62.7186 36.8256 62.682C36.8256 62.682 36.8256 62.682 36.822 62.6857C36.8511 62.7222 36.8876 62.7551 36.9168 62.7953H36.9131ZM31.7351 139.142C31.6913 139.135 31.6512 139.131 31.6075 139.128C31.5966 139.168 31.5892 139.208 31.5783 139.248C31.6294 139.212 31.6841 139.183 31.7387 139.146L31.7351 139.142Z"
        fill="#003B52" />
      <path
        d="M108.26 195.918C109.241 187.86 110.703 165.84 109.245 140.18C108.173 121.34 105.744 103.235 102.032 86.3572C97.3828 65.2257 90.6879 45.9763 82.1332 29.1427L78.5596 30.9664C89.0615 51.6338 102.211 87.3842 105.237 140.323C107.05 172.057 104.307 195.202 104.282 195.432L108.264 195.918H108.26Z"
        fill="#F6F6F6" />
      <path
        d="M234.768 148.447C236.248 143.758 237.459 138.839 238.367 133.832C243.289 106.674 238.79 79.6729 234.148 61.805C229.123 42.4642 223.03 29.7129 222.774 29.1793L219.161 30.9263C219.223 31.0542 225.367 43.9261 230.29 62.9087C234.815 80.3636 239.205 106.71 234.418 133.112C233.539 137.955 232.368 142.706 230.942 147.234L234.768 148.447Z"
        fill="#F6F6F6" />
      <path
        d="M138.887 139.636C156.642 139.636 175.009 139.011 189.712 138.331C215.839 137.125 236.347 135.495 236.551 135.477L236.23 131.471C236.026 131.486 215.573 133.112 189.511 134.318C165.484 135.429 131.645 136.394 106.867 134.702L106.594 138.711C116.352 139.376 127.492 139.636 138.883 139.636H138.887Z"
        fill="#F6F6F6" />
      <path
        d="M174.601 136.913C179.837 104.174 176.285 76.3178 172.384 58.7094C168.146 39.5879 162.731 28.3606 162.502 27.8892L158.899 29.6544C158.976 29.8115 164.38 41.0571 168.5 59.7181C172.307 76.9537 175.768 104.225 170.641 136.273L174.601 136.909V136.913Z"
        fill="#F6F6F6" />
      <path
        d="M173.252 192.911C173.773 191.836 185.981 166.242 180.154 137.293L176.223 138.09C181.784 165.719 169.769 190.9 169.649 191.153L173.255 192.914L173.252 192.911Z"
        fill="#F6F6F6" />
      <path
        d="M212.389 196.145L216.287 195.202C216.265 195.107 213.994 185.269 216.911 173.65C220.791 158.202 231.581 147.007 248.974 140.381C266.27 133.792 281.756 136.683 295.004 148.974C305.061 158.3 310.017 169.813 310.064 169.93L313.758 168.362C313.546 167.861 308.47 156.034 297.826 146.116C287.871 136.84 271.068 127.667 247.549 136.628C224.182 145.531 215.853 161.235 212.98 172.846C209.873 185.393 212.283 195.714 212.389 196.149V196.145Z"
        fill="#F6F6F6" />
      <path
        d="M342.58 125.258L343.717 121.402C343.506 121.34 328.497 116.764 311.621 104.02C301.717 96.5393 293.111 87.746 286.044 77.882C277.216 65.5619 270.773 51.5169 266.89 36.1378L263.002 37.1246C267.017 53.0299 273.694 67.5611 282.85 80.3123C290.172 90.5163 299.088 99.6056 309.342 107.328C326.812 120.489 341.941 125.064 342.58 125.254V125.258Z"
        fill="#F6F6F6" />
      <path
        d="M359.507 92.5265L360.859 88.7439C360.677 88.6781 349.362 84.5081 335.112 73.5366C321.937 63.3911 303.482 45.1833 290.366 16.037L286.708 17.6889C300.2 47.6722 319.224 66.4026 332.811 76.8332C347.579 88.1737 359.025 92.3547 359.507 92.5265Z"
        fill="#F6F6F6" />
    </g>
  </g>
  <defs>
    <clipPath id="clip0_155_480">
      <rect width="397" height="281" fill="white" transform="matrix(-1 0 0 1 397 0)" />
    </clipPath>
  </defs>
</svg>