<svg width="424" height="221" viewBox="0 0 624 311" fill="none" xmlns="http://www.w3.org/2000/svg">
  <mask id="mask0_155_385" style="mask-type:luminance" maskUnits="userSpaceOnUse" x="0" y="-1" width="625" height="313">
    <path
      d="M24.3831 83.9147C27.7963 81.368 28.8736 75.8296 28.8477 72.3461C28.8322 70.6484 28.5629 69.8461 25.8696 60.7776C24.0361 54.5973 23.1401 51.4813 24.2174 50.2028C25.5951 48.5568 29.0187 48.443 31.3287 49.7059C34.2861 51.326 33.6594 54.2402 37.4455 61.2745C39.6208 65.317 40.434 65.4775 40.9053 66.8905C42.3556 65.4309 43.899 63.9919 45.546 62.5944C59.375 50.8964 73.5044 48.1738 101.758 42.7234C138.692 35.6011 168.422 36.745 176.502 37.1436C197.82 38.1943 200.746 40.5908 230.403 42.1023C239.524 42.5681 244.647 42.6147 275.707 42.7648C317.738 42.9667 332.204 42.9925 346.478 43.0961C361.613 43.2048 384.127 43.448 411.956 44.0899C429.178 41.3931 443.721 39.4728 454.619 38.1426C478.314 35.2439 487.596 34.7884 493.417 35.2336C493.402 33.4116 493.552 31.3722 494.013 29.1776C494.464 27.0243 495.106 25.4404 496.37 22.3607C500.72 11.7549 502.471 12.7901 504.429 6.24751C504.993 4.37376 505.397 2.44826 507.158 1.16459C508.8 -0.031085 511.105 -0.295065 512.985 0.295008C514.85 0.879906 515.989 2.34474 518.196 5.2537C519.62 7.13262 520.635 8.79932 521.298 9.96394C522.303 9.44115 523.862 8.8252 525.763 8.85108C530.207 8.90802 533.247 12.4278 535.189 14.6742C536.531 16.2322 542.099 22.6712 541.886 31.6517C541.746 37.5318 539.276 38.4635 538.665 47.0195C538.457 49.8819 538.602 51.6211 538.675 52.8064C551.96 59.9546 553.136 62.4287 568.715 69.8616C568.715 69.8616 590.836 80.4156 606.623 79.1165C612.155 78.661 614.926 78.4332 617.536 76.5129C618.986 75.4466 620.499 73.8213 621.876 74.282C622.337 74.4373 623.197 74.9601 623.736 77.5067C625.077 83.8163 621.012 86.3216 621.628 92.8331C621.892 95.6075 622.69 95.7834 623.114 99.9398C623.249 101.249 623.296 102.455 623.29 103.537C623.285 105.458 621.856 107.078 619.96 107.373L617.572 107.745C616.184 107.963 615.019 108.91 614.553 110.235C614.004 111.783 613.16 113.568 611.844 115.323C607.581 120.996 601.366 122.316 595.674 124.066C577.308 129.708 580.125 134.935 565.83 137.865C556.031 139.873 551.634 138.046 544.005 142.327C542.404 143.227 540.98 144.211 539.726 145.22C534.568 149.366 528.332 151.939 521.8 153.005C518.75 153.502 515.699 153.999 512.649 154.496C510.748 154.806 508.914 155.407 507.189 156.271C497.587 161.09 487.451 165.888 476.792 170.578C471.032 173.114 465.356 175.516 459.777 177.788C454.567 179.91 449.745 182.845 445.42 186.437C442.442 188.912 438.537 191.484 433.642 193.384C431.772 194.108 429.97 194.652 428.276 195.061C424.853 195.884 422.02 198.285 420.626 201.515C418.871 205.579 417.27 209.129 415.908 212.1C413.204 217.975 411.008 222.447 409.087 226.35C406.394 231.821 404.016 236.485 402.141 240.108C402.82 244.736 403.415 248.649 403.876 251.635C405.943 264.964 404.866 256.635 405.86 263.038C406.844 269.374 406.891 271.077 408.59 272.707C410.004 274.063 410.982 273.779 413.919 276.299C415.82 277.93 417.369 279.291 417.079 280.699C416.902 281.564 416.089 282.143 415.406 282.495C413.769 282.93 409.77 283.743 405.238 282.123C402.638 281.191 400.784 279.793 399.66 278.779C399.505 279.612 399.329 280.808 399.287 282.247C399.127 287.77 401.064 291.931 402.017 293.898C403.612 297.195 405.042 300.161 408.217 302.573C410.273 304.136 412.598 305.12 413.179 307.532C413.469 308.748 413.204 309.866 412.93 310.632L398.79 311.005C397.557 310.586 393.896 309.152 391.472 305.306C390.063 303.07 389.638 300.907 389.488 299.607C389.576 300.368 389.612 301.517 389.239 302.832C388.53 305.342 386.815 306.781 386.137 307.294C383.723 303.179 380.932 297.428 379.067 290.192C376.436 279.98 376.773 271.191 377.456 265.528C373.898 257.645 372.173 250.973 371.257 246.32C369.775 238.825 370.122 235.201 368.651 227.484C367.118 219.43 364.788 213.094 363.073 209.016C357.63 209.078 349.539 209.311 339.761 210.128C325.761 211.303 319.784 212.727 300.325 215.703C281.902 218.524 269.653 220.398 253.446 221.65C239.224 222.753 231.729 223.333 221.08 222.763C199.503 221.619 183.147 216.743 173.213 213.715C158.741 209.305 144.83 203.436 136.009 199.709C132.088 198.053 128.841 196.624 126.583 195.62C126.148 197.892 125.324 201.464 123.729 205.656C121.89 210.491 120.393 212.556 118.151 217.799C117.099 220.258 115.649 223.959 114.308 228.705C114.131 230.382 113.981 232.939 114.308 236.019C114.779 240.471 115.923 243.043 118.399 249.901C120.228 254.964 118.591 250.755 122.74 262.541C124.076 266.336 125.744 271.03 127.701 276.424C128.789 276.682 130.131 277.128 131.544 277.909C134.621 279.607 136.387 281.983 137.247 283.36L134.642 287.325L121.994 286.952C120.984 286.067 119.596 284.654 118.399 282.614C117.115 280.43 116.555 278.401 116.291 277.04L114.432 281.377C113.023 279.462 110.977 276.507 108.854 272.702C104.089 264.177 102.115 257.101 101.167 253.991C99.0801 247.174 95.1542 237.318 87.0277 224.74L86.6548 220.651C82.7754 224.611 79.8698 228.39 77.7255 231.557C75.5813 234.72 74.2761 236.677 73.2609 239.487C71.7796 243.587 71.9247 247.07 72.2665 253.861C72.8725 265.787 73.178 271.75 73.3852 273.442C73.3852 273.442 74.333 281.305 77.6012 292.899C77.9897 294.281 78.7459 296.859 80.8228 299.468C82.3404 301.367 83.9978 302.584 85.1631 303.308L83.0188 306.005C77.1351 306.828 73.3904 307.351 67.5118 308.169C64.6321 306.098 63.3528 303.966 62.7209 302.444C61.6332 299.83 62.0476 298.086 61.2344 294.017C60.6906 291.305 59.9189 289.167 59.375 287.821C59.3284 289.55 59.0228 292.231 57.6399 295.135C56.9666 296.543 56.1949 297.677 55.4905 298.562C54.496 294.882 53.253 289.276 52.8438 282.366C52.2327 271.998 54.2474 271.403 53.8382 263.199C52.9163 244.958 43.9197 231.143 43.9197 231.143C41.8894 228.027 39.8384 225.61 39.9523 221.888C40.1077 216.8 44.1476 214.725 45.572 208.669C46.5612 204.481 45.7584 200.677 44.909 198.094C40.6619 193.016 7.3999 151.965 20.1049 104.567C20.9077 101.581 22.5082 95.8042 25.7039 88.9562C24.0413 89.6498 22.187 90.1208 20.1049 90.1881C13.5116 90.4107 8.79315 86.5338 7.20825 85.2294C3.26157 81.9892 1.4074 78.1641 0.594238 76.1402C8.9693 85.2708 19.4109 87.6311 24.4038 83.9043L24.3831 83.9147Z"
      fill="white" />
  </mask>
  <g mask="url(#mask0_155_385)">
    <path
      d="M24.3831 83.9147C27.7963 81.368 28.8736 75.8296 28.8477 72.3461C28.8322 70.6484 28.5629 69.8461 25.8696 60.7776C24.0361 54.5973 23.1401 51.4813 24.2174 50.2028C25.5951 48.5568 29.0187 48.443 31.3287 49.7059C34.2861 51.326 33.6594 54.2402 37.4455 61.2745C39.6208 65.317 40.434 65.4775 40.9053 66.8905C42.3556 65.4309 43.899 63.9919 45.546 62.5944C59.375 50.8964 73.5044 48.1738 101.758 42.7234C138.692 35.6011 168.422 36.745 176.502 37.1436C197.82 38.1943 200.746 40.5908 230.403 42.1023C239.524 42.5681 244.647 42.6147 275.707 42.7648C317.738 42.9667 332.204 42.9925 346.478 43.0961C361.613 43.2048 384.127 43.448 411.956 44.0899C429.178 41.3931 443.721 39.4728 454.619 38.1426C478.314 35.2439 487.596 34.7884 493.417 35.2336C493.402 33.4116 493.552 31.3722 494.013 29.1776C494.464 27.0243 495.106 25.4404 496.37 22.3607C500.72 11.7549 502.471 12.7901 504.429 6.24751C504.993 4.37376 505.397 2.44826 507.158 1.16459C508.8 -0.031085 511.105 -0.295065 512.985 0.295008C514.85 0.879906 515.989 2.34474 518.196 5.2537C519.62 7.13262 520.635 8.79932 521.298 9.96394C522.303 9.44115 523.862 8.8252 525.763 8.85108C530.207 8.90802 533.247 12.4278 535.189 14.6742C536.531 16.2322 542.099 22.6712 541.886 31.6517C541.746 37.5318 539.276 38.4635 538.665 47.0195C538.457 49.8819 538.602 51.6211 538.675 52.8064C551.96 59.9546 553.136 62.4287 568.715 69.8616C568.715 69.8616 590.836 80.4156 606.623 79.1165C612.155 78.661 614.926 78.4332 617.536 76.5129C618.986 75.4466 620.499 73.8213 621.876 74.282C622.337 74.4373 623.197 74.9601 623.736 77.5067C625.077 83.8163 621.012 86.3216 621.628 92.8331C621.892 95.6075 622.69 95.7834 623.114 99.9398C623.249 101.249 623.296 102.455 623.29 103.537C623.285 105.458 621.856 107.078 619.96 107.373L617.572 107.745C616.184 107.963 615.019 108.91 614.553 110.235C614.004 111.783 613.16 113.568 611.844 115.323C607.581 120.996 601.366 122.316 595.674 124.066C577.308 129.708 580.125 134.935 565.83 137.865C556.031 139.873 551.634 138.046 544.005 142.327C542.404 143.227 540.98 144.211 539.726 145.22C534.568 149.366 528.332 151.939 521.8 153.005C518.75 153.502 515.699 153.999 512.649 154.496C510.748 154.806 508.914 155.407 507.189 156.271C497.587 161.09 487.451 165.888 476.792 170.578C471.032 173.114 465.356 175.516 459.777 177.788C454.567 179.91 449.745 182.845 445.42 186.437C442.442 188.912 438.537 191.484 433.642 193.384C431.772 194.108 429.97 194.652 428.276 195.061C424.853 195.884 422.02 198.285 420.626 201.515C418.871 205.579 417.27 209.129 415.908 212.1C413.204 217.975 411.008 222.447 409.087 226.35C406.394 231.821 404.016 236.485 402.141 240.108C402.82 244.736 403.415 248.649 403.876 251.635C405.943 264.964 404.866 256.635 405.86 263.038C406.844 269.374 406.891 271.077 408.59 272.707C410.004 274.063 410.982 273.779 413.919 276.299C415.82 277.93 417.369 279.291 417.079 280.699C416.902 281.564 416.089 282.143 415.406 282.495C413.769 282.93 409.77 283.743 405.238 282.123C402.638 281.191 400.784 279.793 399.66 278.779C399.505 279.612 399.329 280.808 399.287 282.247C399.127 287.77 401.064 291.931 402.017 293.898C403.612 297.195 405.042 300.161 408.217 302.573C410.273 304.136 412.598 305.12 413.179 307.532C413.469 308.748 413.204 309.866 412.93 310.632L398.79 311.005C397.557 310.586 393.896 309.152 391.472 305.306C390.063 303.07 389.638 300.907 389.488 299.607C389.576 300.368 389.612 301.517 389.239 302.832C388.53 305.342 386.815 306.781 386.137 307.294C383.723 303.179 380.932 297.428 379.067 290.192C376.436 279.98 376.773 271.191 377.456 265.528C373.898 257.645 372.173 250.973 371.257 246.32C369.775 238.825 370.122 235.201 368.651 227.484C367.118 219.43 364.788 213.094 363.073 209.016C357.63 209.078 349.539 209.311 339.761 210.128C325.761 211.303 319.784 212.727 300.325 215.703C281.902 218.524 269.653 220.398 253.446 221.65C239.224 222.753 231.729 223.333 221.08 222.763C199.503 221.619 183.147 216.743 173.213 213.715C158.741 209.305 144.83 203.436 136.009 199.709C132.088 198.053 128.841 196.624 126.583 195.62C126.148 197.892 125.324 201.464 123.729 205.656C121.89 210.491 120.393 212.556 118.151 217.799C117.099 220.258 115.649 223.959 114.308 228.705C114.131 230.382 113.981 232.939 114.308 236.019C114.779 240.471 115.923 243.043 118.399 249.901C120.228 254.964 118.591 250.755 122.74 262.541C124.076 266.336 125.744 271.03 127.701 276.424C128.789 276.682 130.131 277.128 131.544 277.909C134.621 279.607 136.387 281.983 137.247 283.36L134.642 287.325L121.994 286.952C120.984 286.067 119.596 284.654 118.399 282.614C117.115 280.43 116.555 278.401 116.291 277.04L114.432 281.377C113.023 279.462 110.977 276.507 108.854 272.702C104.089 264.177 102.115 257.101 101.167 253.991C99.0801 247.174 95.1542 237.318 87.0277 224.74L86.6548 220.651C82.7754 224.611 79.8698 228.39 77.7255 231.557C75.5813 234.72 74.2761 236.677 73.2609 239.487C71.7796 243.587 71.9247 247.07 72.2665 253.861C72.8725 265.787 73.178 271.75 73.3852 273.442C73.3852 273.442 74.333 281.305 77.6012 292.899C77.9897 294.281 78.7459 296.859 80.8228 299.468C82.3404 301.367 83.9978 302.584 85.1631 303.308L83.0188 306.005C77.1351 306.828 73.3904 307.351 67.5118 308.169C64.6321 306.098 63.3528 303.966 62.7209 302.444C61.6332 299.83 62.0476 298.086 61.2344 294.017C60.6906 291.305 59.9189 289.167 59.375 287.821C59.3284 289.55 59.0228 292.231 57.6399 295.135C56.9666 296.543 56.1949 297.677 55.4905 298.562C54.496 294.882 53.253 289.276 52.8438 282.366C52.2327 271.998 54.2474 271.403 53.8382 263.199C52.9163 244.958 43.9197 231.143 43.9197 231.143C41.8894 228.027 39.8384 225.61 39.9523 221.888C40.1077 216.8 44.1476 214.725 45.572 208.669C46.5612 204.481 45.7584 200.677 44.909 198.094C40.6619 193.016 7.3999 151.965 20.1049 104.567C20.9077 101.581 22.5082 95.8042 25.7039 88.9562C24.0413 89.6498 22.187 90.1208 20.1049 90.1881C13.5116 90.4107 8.79315 86.5338 7.20825 85.2294C3.26157 81.9892 1.4074 78.1641 0.594238 76.1402C8.9693 85.2708 19.4109 87.6311 24.4038 83.9043L24.3831 83.9147Z"
      fill="#003B52" />
    <path
      d="M126.375 203.011C126.287 202.944 117.306 196.034 101.644 191.494C87.2192 187.317 63.9845 184.346 35.2131 193.943L33.4106 188.544C63.7152 178.44 88.2603 181.644 103.514 186.111C120.139 190.982 129.504 198.229 129.892 198.534L126.381 203.016L126.375 203.011Z"
      fill="#F6F6F6" />
    <path
      d="M131.819 207.53L126.608 205.227C144.705 164.305 150.371 119.304 151.93 88.7647C153.629 55.586 150.988 31.8174 150.962 31.5793L156.623 30.9374C156.649 31.1755 159.337 55.322 157.623 88.9355C156.043 119.987 150.283 165.769 131.814 207.525L131.819 207.53Z"
      fill="#F6F6F6" />
    <path
      d="M361.374 219.689C361.292 219.44 352.948 194.352 347.965 159.372C343.361 127.031 340.755 79.3132 354.491 35.6425L359.924 37.3506C352.518 60.8915 345.412 101.027 353.6 158.569C358.51 193.042 366.689 217.634 366.771 217.877L361.369 219.689H361.374Z"
      fill="#F6F6F6" />
    <path
      d="M363.047 222.587L357.821 220.32C363.622 206.945 377.897 198.938 399.096 197.167C414.644 195.868 428.333 198.306 428.908 198.41L427.888 204.01C427.36 203.917 375.1 194.807 363.047 222.587Z"
      fill="#F6F6F6" />
    <path
      d="M445.192 194.171C445.151 193.788 440.495 155.867 414.536 142.011C398.345 133.372 377.104 135.691 351.404 148.906L348.799 143.843C376.275 129.713 399.308 127.415 417.25 137.001C429.147 143.362 438.734 155.179 444.975 171.178C449.636 183.125 450.812 193.104 450.859 193.524L445.197 194.171H445.192Z"
      fill="#F6F6F6" />
    <path d="M422.649 32.5478L415.864 141.241L421.55 141.596L428.336 32.9023L422.649 32.5478Z" fill="#F6F6F6" />
    <path
      d="M489.072 172.089C488.57 171.541 476.668 158.311 466.682 133.243C457.509 110.204 448.357 72.3979 456.877 23.1008L462.492 24.0688C454.22 71.9165 463.025 108.558 471.866 130.872C481.458 155.07 493.164 168.13 493.283 168.254L489.067 172.084L489.072 172.089Z"
      fill="#F6F6F6" />
    <path
      d="M550.81 129.946C526.731 129.946 495.588 126.25 459.622 113.563L461.518 108.196C510.37 125.427 550.049 125.727 574.729 122.942C601.475 119.925 616.873 112.745 617.024 112.673L619.473 117.813C618.826 118.123 603.267 125.411 575.671 128.564C568.555 129.376 560.221 129.94 550.81 129.94V129.946Z"
      fill="#F6F6F6" />
    <path
      d="M321.213 187.421C310.865 187.421 298.75 186.877 285.475 185.273C261.599 182.395 238.985 176.655 218.273 168.228C192.335 157.669 169.318 142.839 149.864 124.143L153.81 120.039C172.746 138.233 195.157 152.674 220.417 162.959C240.663 171.199 262.779 176.805 286.154 179.626C325.973 184.429 355.894 179.403 356.195 179.357L357.163 184.967C356.324 185.112 342.532 187.426 321.213 187.426V187.421Z"
      fill="#F6F6F6" />
    <path
      d="M345.753 132.974C345.515 132.906 321.343 125.939 285.538 121.379C252.55 117.181 202.647 114.231 152.241 123.998L151.159 118.408C202.352 108.486 252.949 111.483 286.382 115.748C322.601 120.365 347.11 127.435 347.354 127.508L345.758 132.974H345.753Z"
      fill="#F6F6F6" />
    <path
      d="M155.339 89.0442L154.106 83.4851C211.483 70.7882 261.122 69.4113 292.66 70.4983C326.895 71.6733 347.245 75.7986 348.094 75.9746L346.945 81.5492C346.738 81.5078 326.098 77.3307 292.302 76.1816C261.128 75.1205 212.058 76.4922 155.339 89.0442Z"
      fill="#F6F6F6" />
  </g>
</svg>