<svg width="39" height="30" viewBox="0 0 39 30" fill="none" xmlns="http://www.w3.org/2000/svg">
<path d="M38.1714 3.85883C37.6196 3.45559 36.0885 2.30148 35.5782 2.02339C35.0678 1.74529 34.5437 0.827565 33.785 0.785851C33.0126 0.744136 32.0195 1.38376 31.5505 1.42548C31.0815 1.46719 29.5228 0.785851 28.5435 0.285276C27.5642 -0.2153 27.2883 -0.0901559 27.6607 0.9249C28.0193 1.93996 28.8608 2.30148 28.8608 2.30148L28.9021 2.32929C28.7228 2.3432 28.5711 2.48225 28.5159 2.6491C28.1987 2.76034 28.0056 3.06625 27.7573 3.34435C27.6607 3.37216 27.578 3.42778 27.5228 3.51121C27.3435 3.53902 27.1779 3.67807 27.1228 3.87273C27.2331 3.90054 27.2331 3.91445 27.1504 3.91445C27.0814 3.91445 27.0262 3.91445 26.9572 3.94226C26.8607 3.95616 26.7641 3.98397 26.6814 4.03959C26.4745 4.16474 26.4469 4.40112 26.2952 4.55407C25.9779 4.45674 25.8676 4.60969 25.5641 4.67922C25.4538 4.70703 25.3572 4.70703 25.2744 4.70703C24.8744 4.45674 24.502 4.45674 23.9917 4.37331C23.3847 4.27598 22.9158 4.40112 22.3226 4.56798C22.1019 4.6375 21.9226 4.73484 21.7019 4.77655C21.564 4.80436 21.4261 4.76265 21.2881 4.80436C21.2329 4.83217 21.2054 4.84608 21.2192 4.85998C21.0536 4.79046 20.9709 4.70703 20.764 4.73484C20.4881 4.76265 20.295 4.94341 20.1019 5.11027C20.0881 5.12417 20.0743 5.13808 20.0605 5.15198C19.9777 5.06855 19.8536 5.09636 19.6743 5.08246C19.5088 5.08246 19.357 4.99903 19.1915 4.97122C19.1639 4.97122 19.0812 4.97122 19.0122 4.97122C18.957 4.9156 18.8467 4.84608 18.8329 4.83217C18.626 4.73484 18.4191 4.80436 18.2122 4.77655C17.9501 4.73484 17.7294 4.59579 17.4535 4.6236C16.9708 4.65141 16.5432 4.72093 16.1156 4.87389C15.9914 4.83217 15.8673 4.79046 15.7431 4.74874C15.5224 4.67922 15.3431 4.76265 15.2604 4.9156C15.219 4.80436 15.1086 4.72093 14.9845 4.76265C14.7914 4.81827 14.5293 4.65141 14.3086 4.69312C14.0465 4.74874 13.8121 4.79046 13.55 4.80436C13.4948 4.80436 13.4258 4.80436 13.3707 4.80436C13.2879 4.79046 13.2189 4.77655 13.15 4.76265C13.0672 4.74874 13.0258 4.67922 12.9431 4.66531C12.8327 4.65141 12.7224 4.66531 12.6258 4.66531C12.3637 4.56798 12.1706 4.54017 11.881 4.6236C11.7844 4.65141 11.7154 4.72093 11.6741 4.80436H11.6465C11.5913 4.79046 11.5499 4.76265 11.4947 4.74874C11.3982 4.72093 11.2878 4.77655 11.2603 4.87389C11.2603 4.84608 11.2465 4.83217 11.2189 4.81827C10.943 4.70703 10.5706 4.55407 10.4051 4.80436C10.3361 4.80436 10.2809 4.80436 10.1844 4.80436C10.0326 4.81827 9.88091 4.83217 9.71539 4.84608C9.52228 4.79046 9.31537 4.69312 9.12226 4.66531C8.88778 4.6236 8.68088 4.66531 8.44639 4.69312C8.32225 4.72093 8.25328 4.80436 8.2257 4.90169C8.2257 4.90169 8.22569 4.90169 8.2119 4.90169C8.12914 4.90169 7.96362 4.73484 7.86706 4.70703C7.7981 4.67922 7.71533 4.66531 7.64636 4.67922C7.64636 4.67922 7.54981 4.70703 7.49463 4.72093C7.39808 4.67922 7.30153 4.66531 7.19119 4.66531C7.08084 4.66531 6.99808 4.72093 6.9429 4.79046C6.92911 4.79046 6.91531 4.79046 6.88773 4.79046C6.88773 4.79046 6.87394 4.76265 6.84635 4.74874C6.77738 4.67922 6.69461 4.6375 6.61185 4.6236C6.5015 4.59579 6.34977 4.6236 6.26701 4.72093C6.26701 4.72093 6.25323 4.72093 6.19805 4.73484C6.12909 4.73484 6.06012 4.73484 5.99115 4.74874C5.85321 4.74874 5.71527 4.77655 5.57734 4.81827C5.4394 4.84608 5.37044 4.95731 5.35665 5.06855C5.30147 5.04074 5.2463 5.02684 5.19112 5.01293C4.99801 4.97122 4.79111 5.05465 4.598 5.09636C4.43248 5.13808 4.28075 5.17979 4.11523 5.24932C4.07385 5.26322 3.86695 5.33275 3.83937 5.37446C3.71523 5.24932 3.49453 5.30494 3.43935 5.47179C3.42556 5.52741 3.41177 5.56913 3.39798 5.62475C3.30142 5.68037 3.20487 5.74989 3.10831 5.81942C2.91521 5.79161 2.7221 5.93066 2.61175 6.12532C2.51519 6.27828 2.39105 6.43123 2.34967 6.59809C2.17035 6.70933 2.03241 6.83447 1.97724 7.02914C1.89448 7.05695 1.8393 7.11257 1.78413 7.1821C1.78413 7.20991 1.75655 7.23771 1.72897 7.26552C1.70138 7.26552 1.65999 7.29333 1.6324 7.30724C1.50826 7.37676 1.39792 7.488 1.35654 7.62705C1.34274 7.62705 1.32895 7.64096 1.31516 7.65486C1.2186 7.65486 1.13584 7.71048 1.09446 7.79391C1.09446 7.79391 1.09446 7.82172 1.08067 7.83563C1.08067 7.83563 1.08067 7.86343 1.06687 7.87734C1.06687 7.87734 1.06687 7.86343 1.06687 7.84953C1.06687 7.86343 1.03929 7.89124 1.03929 7.90515C1.0117 7.93296 0.997906 7.96077 0.970319 7.98858C0.915145 8.0581 0.846174 8.12763 0.804794 8.21106C0.666859 8.44744 0.63927 8.73944 0.597889 9.00363C0.570302 9.03144 0.528922 9.05925 0.501335 9.10097C0.404781 9.25392 0.377199 9.42078 0.377199 9.58764C0.377199 9.68497 0.418576 9.7545 0.459957 9.81012C0.322022 9.92136 0.211674 10.0048 0.115119 10.1716C0.0875324 10.2273 0.0737435 10.2829 0.087537 10.3524C-0.0917783 10.7835 0.0599441 11.2701 0.0599441 11.7707C0.0599441 12.16 0.0323588 12.5494 0.0185653 12.9387C0.0185653 13.2724 0.184093 13.5922 0.142712 13.9121C0.142712 14.0233 0.170296 14.0928 0.22547 14.1484C0.101328 14.3987 0.128914 14.6629 0.170295 14.9549C0.211675 15.1774 0.253052 15.3721 0.253052 15.5945C0.253052 15.9144 0.390989 15.9978 0.459957 16.262C0.418576 16.1368 0.390991 16.5679 0.418578 16.6652C0.501339 16.9711 0.777206 17.1519 0.901348 17.43C1.02549 17.6942 1.10825 18.014 1.2186 18.2782C1.24619 18.3338 1.27377 18.3894 1.30136 18.4172C1.25998 18.459 1.23239 18.5146 1.19101 18.5563C1.10825 18.6814 1.02549 18.8066 0.942726 18.9317C0.846172 19.0708 0.832388 19.2098 0.791008 19.3628C0.777214 19.4184 0.749626 19.4601 0.735833 19.5018C0.666865 19.4879 0.597899 19.4879 0.542725 19.5157C0.211681 19.6965 0.28064 20.058 0.404781 20.35C0.694445 21.0592 0.846174 21.6432 0.804794 22.4218C0.804794 22.5609 0.859968 22.6582 0.956523 22.6999C0.942729 22.8251 0.956523 22.9363 0.956523 23.0615C0.942729 23.27 0.956526 23.4786 0.970319 23.7011C0.970319 23.8958 1.01169 24.0348 1.09446 24.2156C1.13584 24.2851 1.17722 24.3685 1.2186 24.438C1.24619 24.4798 1.34275 24.5354 1.38413 24.5771C1.46689 24.8135 1.56344 25.0221 1.6462 25.2028C1.86689 25.7034 1.81172 26.8019 1.96345 27.1078C2.11518 27.3998 2.37725 27.2885 2.57036 27.956C2.77726 28.6234 2.92899 28.7764 2.92899 28.7764C3.38418 28.9988 4.97043 28.6651 4.97043 28.6651C4.97043 28.6651 4.76353 28.2758 4.72215 28.0672C4.68077 27.8587 4.33593 27.2607 4.33593 27.2607C4.55663 27.1912 4.97043 27.0522 4.97043 27.0522C4.97043 27.0522 4.69456 26.6628 4.51524 26.343C4.33593 26.0232 3.94971 25.8146 3.67384 25.3836C3.39797 24.9525 3.329 24.0348 3.26003 22.8946C3.21865 22.2272 3.329 21.5597 3.42556 21.1287C3.7704 20.934 4.11524 20.7811 4.43249 20.5725C4.59801 20.4613 4.77732 20.4473 4.94284 20.35C5.09457 20.2527 5.2463 20.1832 5.41182 20.1136C5.53597 20.0719 5.60494 19.9746 5.61873 19.8633C5.77046 19.8077 5.93597 19.7799 6.0877 19.7104C6.21184 19.6548 6.28081 19.5991 6.39116 19.5157C6.39116 19.5157 6.40496 19.5018 6.40496 19.4879C6.41875 19.4879 6.43254 19.4879 6.44634 19.474C6.5291 19.4323 6.58427 19.4045 6.65324 19.3628C6.81876 19.2376 6.9291 19.0847 7.10842 18.9734C7.17738 18.9317 7.21877 18.89 7.23256 18.8344C7.27394 18.8344 7.31532 18.8205 7.3567 18.7788C7.53602 18.598 7.88085 18.445 8.10155 18.3894C8.2119 18.3616 8.30846 18.3894 8.41881 18.3338C8.55674 18.2643 8.69467 18.1809 8.8326 18.1113C8.8326 18.1113 8.83261 18.1391 8.8464 18.1391C8.88778 18.306 8.98433 18.4172 9.13606 18.5146C9.17744 18.598 9.35676 18.6675 9.35676 18.6675C9.4947 18.6814 9.56366 18.6397 9.64642 18.6397C9.78436 18.6397 9.93609 18.7231 10.0464 18.8066C10.143 18.8761 10.2258 18.9456 10.3361 18.9873C10.4464 19.0151 10.5706 18.9873 10.6809 19.0291C10.8051 19.0708 10.9292 19.0291 11.012 18.9178C11.0534 18.9317 11.1085 18.9595 11.1499 18.9873C11.3016 19.0708 11.4948 19.1959 11.6741 19.2098C11.7706 19.2237 11.8672 19.2098 11.9637 19.182C12.0327 19.2098 12.0879 19.2237 12.1706 19.2515C12.4879 19.335 12.7775 19.335 13.0948 19.3767C13.2879 19.3906 13.4534 19.4879 13.6603 19.4879C13.8396 19.4879 14.019 19.3906 14.1983 19.3489C14.419 19.3071 14.6121 19.3211 14.8328 19.2793C14.8466 19.2932 14.8604 19.3071 14.8742 19.3211C15.1086 19.4462 15.4397 19.4879 15.6466 19.2932C15.7294 19.2098 15.7707 19.1125 15.8535 19.043C15.8535 19.043 15.8811 19.0291 15.8949 19.0151C15.9914 19.0569 16.0742 19.0847 16.1845 19.0986C16.3087 19.0986 16.4328 19.0986 16.5432 19.0569C16.6673 19.1681 16.7915 19.2376 16.9984 19.182C17.1501 19.1403 17.2742 18.9873 17.3018 18.8344C17.3018 18.8344 17.3294 18.8344 17.3432 18.8205C17.4397 18.9873 17.6053 19.0986 17.826 19.0151C17.9639 18.9595 18.0742 18.8344 18.1846 18.751C18.4329 18.7231 18.6674 18.6536 18.9019 18.6119C18.9432 18.737 19.0398 18.8344 19.2191 18.8344C19.3984 18.8344 19.5226 18.751 19.7019 18.7231C19.8674 18.6953 20.0053 18.6675 20.1709 18.6119C20.3778 18.5424 20.5571 18.6119 20.7364 18.6397C20.7364 18.6397 20.6398 18.737 20.6122 18.8066C20.5433 18.8622 20.4881 18.9456 20.5295 19.0291V19.0847C20.5295 19.0847 20.5571 19.1125 20.5709 19.1264C20.5709 19.2376 20.5985 19.3489 20.626 19.4462C20.6536 19.5574 20.7226 19.6548 20.764 19.766C20.764 19.766 20.7916 19.9468 20.7778 19.9329C20.8054 20.0719 20.9019 20.1553 20.9709 20.2805C21.0398 20.4056 21.0398 20.5447 21.0812 20.6837C21.1088 20.7672 21.164 20.8228 21.233 20.8645C21.233 20.8923 21.233 20.934 21.233 20.9757C21.2467 21.1009 21.2743 21.2121 21.3157 21.3373C21.3433 21.518 21.3571 21.7127 21.4536 21.8796C21.5226 22.0186 21.6605 22.0881 21.7571 22.1994C21.8399 22.547 21.9088 22.8946 21.9916 23.2005C22.5709 25.467 22.364 27.0661 22.2951 27.7335C22.2261 28.4009 22.7089 28.1924 22.7778 28.7625C22.8468 29.3326 23.1227 29.8888 23.1227 29.8888C23.1227 29.8888 23.6468 30 24.2399 30C24.8331 30 24.8331 29.861 24.8331 29.861C25.1503 29.9305 25.5779 29.861 25.5779 29.861C25.4813 29.4438 24.7641 27.8726 24.7641 27.8726H25.9503C25.6469 27.0522 24.9296 26.0649 24.6537 25.5782C24.3779 25.0916 24.5158 24.7579 24.3089 23.8262C24.0882 22.8946 24.0468 22.2967 24.3089 21.3651C24.5434 20.5586 24.4744 20.35 24.3641 19.7243C24.4055 19.6409 24.4882 19.5574 24.5158 19.4879C24.5158 19.4601 24.5434 19.4323 24.5434 19.4045C24.6261 19.4045 24.7089 19.3628 24.7779 19.3071C24.8744 19.2098 24.9158 19.0847 24.9434 18.9456C25.0262 18.8483 25.1089 18.737 25.2055 18.6675C25.2882 18.598 25.4262 18.5424 25.5227 18.445C25.5641 18.4033 25.5779 18.3616 25.5917 18.3199C25.6882 18.3894 25.7986 18.4033 25.9089 18.3894C25.9641 18.3894 26.0193 18.3338 26.0745 18.3199C26.0745 18.3199 26.171 18.3616 26.1848 18.3616C26.3779 18.4033 26.5572 18.4033 26.7228 18.3199C26.7641 18.3338 26.8055 18.3616 26.8469 18.3755C27.0676 18.459 27.2469 18.2504 27.2607 18.0557C27.2745 18.0557 27.2883 18.0557 27.3159 18.0557C27.3297 18.0835 27.3573 18.0974 27.3711 18.1113C27.4676 18.1948 27.5504 18.1809 27.6469 18.153C27.8262 18.2643 28.0745 18.2504 28.2676 18.1669C28.4469 18.1948 28.6401 18.0835 28.7918 17.8889C28.8745 17.7776 28.9297 17.6525 29.0125 17.5412C29.0677 17.4856 29.1228 17.43 29.1642 17.3605C29.1918 17.3048 29.2194 17.2492 29.2332 17.1797V17.1519C29.3159 17.1241 29.3711 17.0546 29.3849 16.9711C29.509 16.8877 29.5918 16.7765 29.6746 16.6513C29.7435 16.6513 29.8125 16.6096 29.8953 16.554C30.1022 16.401 30.047 16.2342 30.116 16.0395C30.1711 15.8726 30.2953 15.8031 30.3229 15.6084C30.3367 15.4833 30.378 15.3164 30.4194 15.1913C30.5573 15.1357 30.6539 15.0384 30.7505 14.8993C30.8332 14.7742 30.8194 14.649 30.7505 14.5656C30.9022 14.5378 31.0401 14.4265 31.1367 14.2875C31.3022 14.2458 31.4677 14.1067 31.5643 13.926C31.5919 13.926 31.6057 13.926 31.6195 13.9121C31.6884 13.8842 31.785 13.8286 31.8401 13.773C31.9919 13.6061 31.9643 13.4393 32.0057 13.2585C32.0608 13.05 32.2539 12.9665 32.3505 12.7719C32.4471 12.5772 32.4471 12.3686 32.4195 12.16C32.4195 12.1183 32.4057 12.0766 32.3781 12.0488C32.4195 11.9376 32.4333 11.8263 32.4471 11.7012C32.5712 11.576 32.5712 11.4231 32.5712 11.2423C32.6953 11.2423 32.8195 11.1867 32.8747 11.0894C33.1229 10.6861 33.0402 10.0465 32.9022 9.60154C32.9436 9.60154 32.9988 9.60154 33.0264 9.60154C33.1367 9.64326 33.2609 9.62935 33.385 9.60154C33.5505 9.57373 33.6885 9.50421 33.785 9.40688C34.0195 9.35126 34.185 9.15659 34.2678 8.92021C34.2954 8.8924 34.3092 8.86458 34.3368 8.83678C34.4885 8.57258 34.5988 8.23887 34.6816 7.96077C34.7368 7.79391 34.7506 7.62705 34.723 7.4741L34.7506 7.50191C35.1368 7.61315 35.7023 7.27943 36.1299 7.09867C36.5575 6.93181 37.1506 7.01524 37.6058 7.09867C38.061 7.16819 38.2679 6.93181 38.5024 6.72323C38.7369 6.51466 38.6403 6.13923 38.6403 6.13923C39.0128 5.97237 38.8748 5.72208 38.9852 5.17979C39.0817 4.6375 38.6955 4.33159 38.1576 3.92835" fill="#EC661E"/>
</svg>
