<svg viewBox="0 0 33 16" fill="none" xmlns="http://www.w3.org/2000/svg">
  <path
    d="M18.1646 14.516C20.3446 13.986 22.2547 13.306 24.0747 12.406C26.4447 11.226 28.5946 9.73604 30.5146 7.91604C31.8546 6.64604 32.7346 5.13604 32.7546 3.24604C32.7646 2.21604 32.5047 1.25604 31.6047 0.626038C30.7446 0.0160384 29.7646 -0.0939611 28.7446 0.0660389C27.2646 0.296039 26.0246 1.00604 24.9446 2.01604C22.8446 3.98604 20.4246 5.40604 17.6646 6.24604C14.6546 7.16604 11.6147 7.31604 8.54465 6.68604C7.55465 6.48604 6.57463 6.16604 5.58463 5.99604C4.18463 5.76604 2.81464 5.94604 1.56464 6.68604C0.104642 7.55604 -0.375358 9.05604 0.314642 10.596C1.00464 12.116 2.18464 13.156 3.71464 13.716C4.88464 14.146 6.10465 14.446 7.32465 14.686C11.0147 15.436 14.7046 15.286 18.1646 14.506V14.516Z"
    fill="#EC661E" />
  <path
    d="M18.1647 14.516C14.7047 15.296 11.0247 15.446 7.32467 14.696C6.10467 14.446 4.88466 14.146 3.71466 13.726C2.17466 13.166 0.994662 12.126 0.314662 10.606C-0.385338 9.05604 0.104662 7.56604 1.56466 6.69604C2.81466 5.94604 4.18465 5.77604 5.58465 6.00604C6.58465 6.16604 7.55467 6.48604 8.54467 6.69604C11.6247 7.32604 14.6647 7.17604 17.6647 6.25604C20.4247 5.40604 22.8447 3.99604 24.9447 2.02604C26.0247 1.01604 27.2647 0.306041 28.7447 0.0760409C29.7647 -0.0839591 30.7447 0.0260413 31.6047 0.636041C32.5047 1.27604 32.7747 2.22604 32.7547 3.25604C32.7247 5.14604 31.8546 6.65604 30.5146 7.92604C28.5946 9.74604 26.4447 11.236 24.0747 12.416C22.2547 13.316 20.3547 13.996 18.1647 14.526V14.516Z"
    fill="#EC661E" />
</svg>