<svg viewBox="0 0 27 20" fill="none" xmlns="http://www.w3.org/2000/svg">
  <path
    d="M17.39 8.64151L14.59 4.72151L14.42 4.74151L14.22 13.3415C15.11 15.1915 16.05 17.0115 16.95 18.8515C17.01 18.9715 17.08 19.0715 17.15 19.1415L17.4 8.63151L17.39 8.64151Z"
    fill="#EC661E" />
  <path
    d="M13.47 12.6515L13.65 4.82151L0 6.31151C0 6.41151 0 6.51151 0 6.62151C0.09 7.68151 0.0200195 8.75151 0.0200195 9.81151C0.0200195 11.0915 0.0200195 12.3715 0.0200195 13.6515C0.0200195 14.5615 0.220016 14.7115 1.11002 14.5615C5.05002 13.9215 8.98999 13.3015 12.93 12.6415C13.15 12.6015 13.31 12.6115 13.47 12.6415V12.6515Z"
    fill="#EC661E" />
  <path
    d="M26.75 5.93151C26.75 5.01151 26.46 4.20151 25.79 3.52151C24.49 2.19151 22.84 1.54151 21.12 1.06151C17.36 0.0115107 13.53 -0.26849 9.64005 0.26151C7.12005 0.60151 4.68004 1.15151 2.48004 2.48151C1.23004 3.23151 0.290049 4.17151 0.0500488 5.56151L14.93 3.93151L18.14 8.41151L17.88 19.3215C20.01 18.9815 22.08 18.4515 23.98 17.4215C25.51 16.5815 26.77 15.4815 26.76 13.4915C26.74 10.9715 26.76 8.45151 26.76 5.94151L26.75 5.93151Z"
    fill="#EC661E" />
</svg>