<svg viewBox="0 0 73 45" fill="none" xmlns="http://www.w3.org/2000/svg">
  <path
    d="M71.4052 14.5512C71.4052 14.5512 68.5506 13.5893 67.9199 12.4284C67.3224 11.2675 66.393 10.1066 65.0653 9.17786C63.7376 8.24914 60.9493 6.19268 60.9493 6.19268C60.9493 6.19268 60.717 4.40157 61.3808 3.30701C62.0447 2.21244 61.5136 0.95203 61.1485 0.653512C60.7834 0.354994 60.6174 1.68174 59.8208 2.21244C59.0573 2.70997 57.4972 3.40651 57.2317 4.63375C57.2317 4.63375 40.9671 3.30701 35.8221 3.07482C30.644 2.84264 21.5491 1.5159 14.8773 3.30701C9.73235 4.70009 6.54581 6.75655 4.58742 9.41004C4.25549 9.44321 3.82398 9.41004 3.35928 9.27737C3.06054 9.17786 2.76179 8.97885 2.49625 8.7135H2.42986V8.64716C2.42986 8.64716 2.33028 8.51449 2.33028 8.48132C2.29709 8.41498 2.23071 8.34864 2.16432 8.2823C2.06474 8.11646 1.96516 7.95062 1.89877 7.78478C1.766 7.41992 1.766 6.98873 1.86558 6.5907C1.96516 6.19268 2.19752 5.79466 2.52945 5.52931C2.69541 5.39663 2.89457 5.26396 3.09373 5.19762H3.1933L3.25969 5.13128C3.29288 5.13128 3.35927 5.13128 3.39246 5.09811C3.49204 5.09811 3.59162 5.06494 3.6912 5.03178C4.12271 4.99861 4.52103 5.13128 4.81977 5.36346C5.11851 5.59564 5.28447 5.99367 5.28447 6.35852C5.28447 6.55753 5.28447 6.72338 5.1849 6.92239C5.11851 7.08823 5.05212 7.22091 4.91934 7.35358C4.72019 7.58576 4.42146 7.6521 4.1891 7.61893C3.92356 7.61893 3.75758 7.45309 3.658 7.32041C3.55842 7.18774 3.39246 7.0219 3.39246 6.92239C3.39246 6.85605 3.29289 6.82288 3.29289 6.82288V6.78972C3.29289 6.78972 3.29289 6.52437 3.16011 6.52437C3.02734 6.52437 2.92776 6.62387 2.92776 6.75655C2.92776 6.75655 2.92776 6.75655 2.92776 6.82288C2.92776 6.85605 2.92776 6.92239 2.92776 6.98873C2.92776 7.15457 2.99415 7.38675 3.16011 7.6521C3.32608 7.91745 3.62482 8.14963 4.05633 8.24914C4.45465 8.34864 5.01892 8.24914 5.38405 7.88428C5.5832 7.71844 5.71599 7.48626 5.84876 7.25408C5.94834 7.0219 6.04791 6.75655 6.04791 6.45803C6.1143 5.89416 5.88195 5.23079 5.41725 4.76643C4.95254 4.30207 4.28868 4.03672 3.62481 4.06988C3.45885 4.06988 3.29288 4.06988 3.12691 4.10305C3.06053 4.10305 2.96095 4.10305 2.86137 4.16939H2.7286L2.62902 4.23573C2.29709 4.33523 1.99835 4.50108 1.73281 4.70009C1.16852 5.09811 0.770205 5.66198 0.537853 6.29219C0.305501 6.92239 0.3055 7.61893 0.471465 8.24914C0.537852 8.54765 0.670626 8.84617 0.836592 9.14469C0.902978 9.27736 1.00256 9.41004 1.10214 9.54271C1.16853 9.60905 1.16852 9.64222 1.23491 9.70856L1.30129 9.80806L1.36768 9.8744C1.73281 10.3056 2.19751 10.6373 2.66221 10.8363C2.96095 10.969 3.25969 11.0685 3.52524 11.1348C3.39247 11.4002 3.25969 11.6987 3.12691 11.964C1.46726 15.8116 2.39667 20.1567 3.98994 22.2795C5.58321 24.4023 4.95254 26.2929 3.59163 27.9845C2.23071 29.6761 2.66221 30.5716 3.1933 32.6944C3.72439 34.8172 4.02313 35.5801 3.39246 36.9069C2.13113 39.4277 3.1933 42.3134 3.1933 42.3134L3.89037 41.6832C3.89037 41.6832 4.55423 44.801 7.74077 44.7347C7.74077 44.7347 4.85296 38.6316 12.1223 26.0275C12.1223 26.0275 13.6491 27.0226 13.3172 28.4157C12.9853 29.8419 12.6533 32.1306 13.9811 33.6895C15.5079 35.4806 16.7693 37.2385 16.9021 39.1292C17.068 41.7827 19.1592 43.5406 19.1592 43.5406L19.4911 42.3797C19.4911 42.3797 20.3873 43.8723 23.3083 43.5738C23.3083 43.5738 23.1756 42.0812 22.1798 40.4227C21.5823 39.4277 20.2878 36.94 19.9558 34.4192C19.4579 30.7375 21.2504 28.1172 21.9142 24.4023C21.9142 24.4023 29.615 24.4023 36.8843 24.2033C36.8843 24.2033 36.8179 28.5484 37.5482 31.0692C38.3116 33.5568 38.2452 37.0727 37.8801 38.499C37.4818 39.9252 37.7805 41.451 38.7763 42.8772L39.241 41.4178C39.241 41.4178 39.0419 43.1757 42.5603 44.204C42.5603 44.204 40.3696 38.7311 44.7843 29.6098C44.7843 29.6098 47.9708 36.4093 47.6057 38.897C47.2738 41.0861 48.0372 42.0148 49.3317 42.9436L49.7632 41.9153C49.7632 41.9153 50.4935 43.1426 53.5141 43.1757C53.5141 43.1757 53.3149 41.252 52.12 39.1955C50.925 37.139 51.4229 31.8984 51.4561 30.3726C51.4893 28.8469 51.4229 24.0374 51.4229 24.0374C51.4229 24.0374 53.0826 24.2033 55.8376 23.2414C58.5926 22.2795 59.7876 22.2795 61.4804 22.4453C63.1733 22.6112 68.8493 21.4834 70.4758 19.6592C70.4758 19.6592 72.401 19.4933 72.8657 17.0388C73.3304 14.6175 71.8699 13.8215 71.3388 14.717"
    fill="#FF6634" />
</svg>