<svg viewBox="0 0 26 27" fill="none" xmlns="http://www.w3.org/2000/svg">
  <path
    d="M24.38 8.96673C24 8.60673 23.53 8.34673 23.08 8.02673C22.9 7.65673 22.67 7.31673 22.4 7.01673C22.45 6.79673 22.48 6.56673 22.48 6.32673C22.52 4.69673 21.81 3.45673 20.37 2.70673C18.95 1.96673 17.55 2.12673 16.24 3.06673C15.74 3.42673 15.47 3.34673 15.29 2.78673C14.71 0.986728 13.05 -0.153272 11.25 0.0167278C9.36 0.196728 7.95998 1.57673 7.69998 3.49673C7.60998 4.18673 7.52 4.24673 6.81 4.09673C5.21 3.76673 3.62998 4.38673 2.75998 5.67673C1.98998 6.82673 1.84997 8.18673 2.37997 9.40673C1.05997 10.1067 0.129989 11.4467 0.019989 13.0167C0.019989 13.1167 0.01 13.2267 0 13.3367C0 13.3367 0 13.3467 0 13.3567C0 13.6367 0.0199768 13.9267 0.0699768 14.2267C0.409977 16.2167 2.07998 17.6667 4.13998 17.7767C4.20998 17.7767 4.28999 17.7767 4.35999 17.7767C4.38999 17.7767 4.40999 17.7767 4.42999 17.7767C4.44999 17.7767 4.45998 17.7767 4.47998 17.7767C4.47998 17.7767 4.49998 17.7767 4.50998 17.7767C5.58998 17.7567 6.56999 17.3567 7.32999 16.7067C8.76999 19.0567 9.52998 21.6367 9.81998 24.3767C9.88998 25.0067 9.92 25.6367 9.97 26.2667H16.37C16.44 22.7567 17.43 19.5667 19.2 16.5967C19.59 16.7767 20.01 16.9067 20.46 16.9667C22.49 17.2567 24.46 16.1967 25.37 14.2967C26.21 12.5467 25.81 10.3267 24.36 8.95673L24.38 8.96673ZM11.52 21.6067C11.1 21.6667 10.96 21.4067 10.86 21.0167C10.62 20.0567 10.39 19.0767 10.04 18.1567C9.64998 17.1467 9.08998 16.2467 8.38998 15.4067C8.70998 14.7867 8.89999 14.0867 8.89999 13.3467C8.89999 13.3167 8.89999 13.2867 8.89999 13.2567C9.94999 14.3367 11.33 14.9467 12.78 15.0067C12.07 16.8967 11.77 18.8567 11.96 20.8767C11.99 21.2267 11.94 21.5467 11.53 21.6067H11.52ZM14.98 21.8567C14.87 22.1767 14.78 22.4867 14.36 22.4567C13.95 22.4267 13.84 22.1067 13.81 21.7767C13.71 20.5567 13.53 19.3267 13.57 18.1067C13.61 17.0467 13.79 15.9867 13.96 14.9367C14.48 14.8467 14.99 14.6967 15.5 14.4567C15.56 14.4267 15.62 14.3967 15.67 14.3667C16.05 14.2467 16.41 14.0667 16.74 13.8467C17 14.5967 17.45 15.2667 18.03 15.7867C16.71 17.6467 15.71 19.6767 14.99 21.8467L14.98 21.8567Z"
    fill="#EC661E" />
</svg>