<svg width="25" height="25" viewBox="0 0 315 606" fill="none" xmlns="http://www.w3.org/2000/svg">
  <path fill-rule="evenodd" clip-rule="evenodd"
    d="M0 570.813C71.9576 571.582 125.032 549.474 162.34 518.463C200.601 486.665 222.491 445.451 231.236 410.081C233.913 399.311 235.324 389.273 235.654 380.389C237.432 321.702 218.164 289.372 199.85 258.673C181.425 227.754 163.77 198.245 163.935 148.826C164.045 118.016 177.501 90.5043 196.495 65.8497C204.873 55.0243 214.186 44.8767 223.774 35.2602H0V0H315L280.387 30.7543C261.284 47.7524 240.127 66.8388 224.324 87.3538C209.603 106.44 199.135 127.102 199.08 148.826C198.97 188.574 214.149 213.998 230.026 240.612C250.907 275.653 272.907 312.488 270.762 381.323C270.432 392.827 268.654 405.447 265.464 418.452C255.216 459.995 229.549 508.26 184.853 545.462C141.752 581.254 81.1975 606.769 0 605.982L0 570.813Z"
    fill="#EC651D" />
</svg>