<svg viewBox="0 0 388 380" fill="none" xmlns="http://www.w3.org/2000/svg">
  <g clip-path="url(#clip0_36_78)">
    <path
      d="M125.637 235.288C124.484 236.796 123.745 237.786 122.961 238.821C116.604 235.451 113.041 230.365 109.848 224.142C107.32 219.204 102.042 215.671 97.8132 211.679C97.5767 211.458 95.5069 212.611 94.8859 213.542C94.3389 214.355 94.6494 215.73 94.6198 216.026C92.5352 217.8 90.8646 218.968 89.5192 220.416C86.178 224.023 82.408 225.901 76.9378 224.216C77.3813 220.948 77.5291 217.667 78.3275 214.562C79.1111 211.502 78.2831 209.373 76.0951 207.304C73.9957 205.352 72.1772 203.105 70.2109 201.006C67.9932 198.67 65.7756 196.335 63.5136 194.043C57.7625 188.189 52.1001 182.261 46.1864 176.57C40.317 170.922 33.6197 166.754 25.1039 169.607C23.1819 170.257 21.4078 173.125 20.7277 175.328C19.6781 178.684 18.1405 180.014 14.6366 179.452C11.6354 178.964 8.57502 178.876 5.52945 178.654C1.16807 178.329 1.16807 178.344 0.0148926 175.298C2.80913 172.43 5.30768 169.858 7.80624 167.286C8.48631 166.576 9.01855 165.6 9.83169 165.142C12.7146 163.56 13.306 161.121 13.646 158.046C13.853 156.198 15.8046 153.138 17.1499 153.05C23.6107 152.591 26.0649 147.55 29.4653 143.529C31.0176 141.696 32.3778 139.7 33.9154 137.867C37.3305 133.802 40.8788 129.855 44.2348 125.745C45.1071 124.681 45.9646 123.217 45.9794 121.946C46.0089 116.476 49.4981 114.022 53.9481 112.647C56.698 111.805 58.1912 110.533 58.0582 107.592C58.0286 107.045 58.073 106.202 58.413 105.965C62.0204 103.497 64.0163 100.185 64.1198 95.765C64.1198 95.4989 64.7111 95.0111 65.0364 95.0111C71.2015 94.8485 73.0791 89.3492 75.8289 85.5647C77.8101 82.8594 78.224 79.1045 82.4671 78.6314C82.7184 78.6018 83.0141 77.9809 83.0881 77.5966C83.5168 75.4974 82.0236 72.0825 86.178 72.4816C88.3956 72.7034 90.5394 73.7234 92.9936 74.4773C95.7287 71.0477 95.6991 70.959 89.9184 66.2579C92.2543 63.9813 94.3685 61.3647 97.0149 59.5316C99.1882 58.0237 102.115 57.6394 104.525 56.3976C106.107 55.5845 108.014 54.3723 108.591 52.8792C109.803 49.76 112.213 48.6808 114.638 46.8329C118.186 44.1276 122.37 45.2068 125.726 42.4571C125.49 41.9841 125.031 41.0379 124.484 39.944C124.839 39.8849 125.164 39.7666 125.504 39.7666C130.472 39.7222 131.832 38.4657 132.689 33.8533C132.926 32.5672 134.242 31.5028 134.878 30.261C135.513 29.0193 135.912 27.6592 136.415 26.3287C140.215 28.5019 144.68 26.8461 147.459 22.1747C150.238 23.1651 153.476 25.3087 154.556 20.105C154.629 19.7355 155.93 19.2476 156.522 19.3955C162.45 20.9625 163.973 20.1937 166.265 14.3101C166.679 13.2457 167.107 12.1961 167.654 10.8065C170.789 13.9701 172.755 12.0778 175.061 9.75686C177.176 7.62809 179.763 5.88369 182.38 4.39059C183.119 3.97666 184.671 5.23323 185.898 5.38106C188.072 5.63237 190.319 5.44019 192.463 5.82455C193.069 5.92804 193.438 7.34721 193.69 7.76114C196.173 7.37678 198.495 7.02199 201.289 6.57849C201.407 6.00195 201.658 4.8193 201.732 4.46451C204.098 3.53317 205.961 2.8088 208.297 1.89224C208.74 2.12877 209.864 2.7201 211.106 3.37056C210.854 4.55321 210.588 5.75064 210.026 8.33768C214.802 4.36102 222.061 8.45595 224.057 0.0295715C224.825 3.20794 225.372 5.48454 225.905 7.67244C228.108 7.1846 230.473 6.66719 233.179 6.07587C236.801 9.4612 240.955 12.1369 246.869 10.2891C251.556 8.82553 255.858 11.4569 260.234 12.7726C260.515 11.7969 260.737 11.0282 261.18 9.49077C261.964 11.3978 262.481 12.6691 263.191 14.384C264.492 13.3787 265.423 12.6544 266.059 12.1665C268.764 13.2309 271.736 13.6892 273.688 15.3449C276.127 17.4145 277.886 20.3711 279.675 23.1208C281.479 25.8852 283.667 25.5452 286.328 24.8061C288.221 24.2739 290.586 23.6826 292.227 24.3626C295.598 25.7374 298.718 27.8366 301.793 29.8471C306.612 32.9664 311.343 36.2334 316.074 39.4857C317.804 40.6831 319.593 41.8806 321.086 43.3293C323.333 45.5024 325.344 47.9121 327.458 50.2183C327.65 50.4252 327.976 50.6174 328.005 50.8687C328.892 56.368 333.816 59.162 336.61 63.39C339.271 67.411 342.524 71.5799 346.515 74.0339C349.768 76.0444 354.528 75.6009 358.609 76.2809C360.413 76.5913 362.201 77.0792 364.005 77.3601C366.74 77.7888 369.682 78.8679 372.21 78.2766C375.936 77.3896 378.923 77.9218 382.604 78.8384C386.64 79.8288 387.882 81.3071 388.044 83.6724C385.856 85.5647 384.127 86.8952 382.604 88.4178C380.519 90.4875 378.257 92.498 376.705 94.9372C375.744 96.4598 375.345 98.8991 375.788 100.643C377.163 105.995 374.354 109.942 371.989 114.096C371.708 114.599 370.939 114.791 370.481 115.22C368.869 116.683 366.652 117.895 365.838 119.728C364.434 122.892 366.134 125.036 369.49 125.908C370.229 126.1 370.835 126.839 371.516 127.312C371.885 127.135 372.255 126.957 372.624 126.795C371.959 125.124 371.279 123.454 370.584 121.724C377.208 117.94 382.16 118.738 386.596 125.021C387.216 125.908 386.758 128.288 385.945 129.337C377.695 140.04 370.599 151.63 367.006 164.536C361.403 184.685 352.355 202.898 340.276 219.766C327.044 238.23 312.068 255.142 292.582 267.16C284.628 272.068 277.369 277.154 272.254 285.196C273.096 281.899 274.249 278.632 274.604 275.276C274.752 273.961 272.993 272.497 272.298 271.004C271.884 270.117 271.869 269.038 271.677 268.047C272.741 267.988 273.88 267.663 274.826 267.959C275.861 268.284 276.674 269.26 277.65 269.851C281.08 271.95 283.8 270.723 284.82 266.48C291.429 267.619 294.282 262.726 297.579 258.394C298.703 256.916 300.255 255.777 301.6 254.491C301.852 254.757 302.088 255.038 302.34 255.304C302.428 253.575 302.502 251.845 302.606 249.672C307.869 252.599 310.944 249.406 313.206 246.346C316.488 241.94 318.233 236.796 316.828 231.001C316.385 229.168 316.754 227.128 316.754 225.309C319.327 225.088 321.352 224.91 323.614 224.718C323.866 225.812 324.132 226.995 324.575 228.917C325.876 227.497 326.749 226.551 327.606 225.62C325.093 222.501 326.142 216.233 329.232 214.473C331.805 213.01 334.762 211.857 336.728 209.787C338.561 207.865 340.247 204.938 340.335 202.41C340.513 197.222 339.567 191.988 339.094 186.77C339.02 185.986 338.99 185.203 338.946 184.419C339.36 184.301 339.774 184.183 340.188 184.065C340.631 185.395 340.897 186.814 341.563 188.026C342.213 189.18 343.277 190.111 344.165 191.131C344.859 190.052 345.673 189.046 346.19 187.893C346.693 186.755 346.737 185.425 347.225 184.286C348.999 180.103 346.826 177.161 344.031 174.618C343.691 174.308 341.533 175.623 340.587 176.555C340.217 176.924 340.853 178.314 341.089 179.467C337.305 180.103 333.564 180.206 330.312 181.507C328.7 182.143 327.961 184.981 326.837 186.799C325.3 185.706 321.471 184.981 323.925 180.487C324.191 180.014 322.225 177.486 320.968 177.161C315.039 175.623 313.546 173.997 312.881 167.626C312.748 166.399 312.053 165.231 311.609 164.033C311.181 164.063 310.752 164.093 310.338 164.122C309.761 167.936 308.372 171.913 309.037 175.505C309.288 176.895 309.48 181.271 313.842 181.655C314.965 181.758 316.488 185.203 319.785 184.73C319.016 185.232 318.041 186.312 317.508 186.119C314.123 184.966 312.822 187.332 312.171 189.593C310.959 193.777 310.308 198.138 309.584 201.671C309.214 201.376 308.106 200.459 306.982 199.542C306.391 200.858 305.297 202.189 305.311 203.49C305.37 206.712 305.947 209.935 306.317 213.143C299.959 214.133 298.599 218.273 302.325 226.049C297.062 226.98 290.645 226.847 292.198 234.933C287.807 236.205 283.638 237.106 279.72 238.644C276.423 239.945 275.196 243.108 274.989 246.479C274.796 249.628 274.944 252.791 274.944 256.251C273.362 254.905 272.091 253.826 270.79 252.732C269.637 254.427 270.371 256.236 272.993 258.158C267.493 260.523 262.363 263.154 263.501 270.487C264.566 271.181 266.266 272.29 267.168 272.896C265.586 275.01 263.989 276.843 262.821 278.913C262.511 279.445 263.28 280.997 263.974 281.604C265.615 283.038 267.508 284.191 269.829 285.832C269.829 285.846 269.785 287.295 269.105 287.739C260.663 293.327 258.149 302.463 255.074 311.17C252.132 319.493 249.885 328.067 246.869 336.36C243.675 345.156 237.614 352.045 230.887 358.372C224.219 364.64 217.611 370.968 210.943 377.221C209.627 378.463 208.104 379.468 207.38 380.044C204.763 378.803 202.871 377.93 201.008 376.999C199.234 376.112 199.766 368.765 201.954 368.395C205.162 367.863 204.571 365.66 204.719 364.019C204.911 361.802 204.674 359.451 204.127 357.278C202.812 352.104 202.826 347.507 207.809 344.077C208.637 343.515 208.888 342.126 209.923 342.022C211.623 341.387 214.151 341.224 214.861 339.997C216.605 337.011 217.581 333.551 218.72 330.24C219.222 328.777 219.37 327.195 219.547 326.293C222.002 325.273 223.983 324.46 225.032 324.016C227.161 326.47 229.069 329.412 231.7 331.437C234.08 333.271 238.264 330.447 239.935 326.589C241.443 323.085 243.04 319.611 244.814 316.226C247.608 310.874 247.135 305.109 242.951 300.91C240.157 298.102 240.172 295.189 241.65 291.922C242.153 290.799 242.774 289.734 243.868 287.576C237.732 289.232 236.387 293.814 233.785 297.643C235.263 298.382 236.461 299.003 237.658 299.609C237.643 303.616 235.352 305.464 231.981 305.197C228.285 304.902 226.792 306.764 225.757 309.692C224.175 314.2 219.267 315.841 214.802 314.097C209.465 312.012 204.408 309.736 200.387 305.508C197.327 302.3 194.932 299.048 193.749 294.435C192.492 289.483 191.975 283.703 185.913 280.953C182.542 279.416 179.896 276.311 176.895 273.946C176.348 273.517 175.431 272.793 175.106 272.97C170.937 275.188 169.488 271.196 167.211 269.467C164.269 267.22 161.445 264.736 158.917 262.031C156.744 259.695 154.733 257.078 153.254 254.27C150.815 249.642 147.784 246.05 142.166 246.021C134.611 245.976 130.028 241.32 125.667 235.303L125.637 235.288Z"
      fill="#FF6634" />
  </g>
  <defs>
    <clipPath id="clip0_36_78">
      <rect width="388" height="380" fill="white" />
    </clipPath>
  </defs>
</svg>