<svg width="56" height="43" viewBox="0 0 56 43" fill="none" xmlns="http://www.w3.org/2000/svg">
<path d="M54.398 5.47364C53.6346 4.90977 51.4439 3.2845 50.6804 2.88648C49.9502 2.48846 49.2199 1.19488 48.1246 1.12854C47.0292 1.0622 45.6019 1.95776 44.938 2.02409C44.2741 2.09043 42.0502 1.12854 40.6561 0.39883C39.262 -0.297712 38.8637 -0.131869 39.3947 1.29438C39.9258 2.72064 41.0876 3.21817 41.0876 3.21817H41.154C40.8884 3.2845 40.6893 3.48352 40.5897 3.7157C40.125 3.88154 39.8594 4.27956 39.4943 4.71076C39.3615 4.74393 39.2288 4.84343 39.1624 4.94294C38.8968 4.97611 38.6645 5.17512 38.5981 5.44047C38.7309 5.47364 38.7641 5.50681 38.6313 5.50681C38.5317 5.50681 38.4653 5.50681 38.3658 5.50681C38.233 5.50681 38.1002 5.57314 37.9674 5.63948C37.6687 5.83849 37.6355 6.13701 37.4032 6.36919C36.9385 6.23652 36.8057 6.4687 36.3742 6.53503C36.2082 6.5682 36.0754 6.53503 35.9427 6.5682C35.3784 6.20335 34.8473 6.20335 34.1171 6.10384C33.254 5.97117 32.5902 6.13701 31.7603 6.36919C31.4616 6.4687 31.196 6.60137 30.8641 6.66771C30.665 6.66771 30.4658 6.66771 30.2666 6.70088C30.1671 6.70088 30.1671 6.76721 30.1671 6.76721C29.9347 6.66771 29.8351 6.5682 29.5032 6.60137C29.1049 6.63454 28.8393 6.89989 28.5738 7.13207C28.5738 7.13207 28.5406 7.16524 28.5074 7.19841C28.3746 7.06573 28.2087 7.13207 27.9431 7.0989C27.7108 7.0989 27.5116 6.96623 27.2461 6.93306C27.2129 6.93306 27.0801 6.93306 27.0137 6.93306C26.9141 6.86672 26.7814 6.76721 26.7482 6.73405C26.4494 6.60137 26.1507 6.70088 25.8851 6.63454C25.52 6.5682 25.1881 6.40236 24.7898 6.40236C24.0927 6.43553 23.4952 6.53503 22.8978 6.76721C22.7318 6.70088 22.5327 6.66771 22.3667 6.60137C22.0348 6.50186 21.8024 6.60137 21.6696 6.83355C21.6032 6.66771 21.4373 6.5682 21.2713 6.63454C21.0058 6.73405 20.6406 6.4687 20.3087 6.53503C19.9436 6.60137 19.6116 6.66771 19.2133 6.70088C19.1137 6.70088 19.0474 6.70088 18.9478 6.70088C18.8482 6.70088 18.7154 6.66771 18.649 6.63454C18.5495 6.63454 18.4831 6.50186 18.3503 6.50186C18.1844 6.50186 18.0516 6.50186 17.8856 6.50186C17.5205 6.36919 17.255 6.30285 16.8234 6.43553C16.6907 6.4687 16.5911 6.5682 16.5247 6.70088H16.4915C16.4251 6.70088 16.3587 6.63454 16.2923 6.63454C16.1596 6.60137 15.9936 6.66771 15.9604 6.83355C15.9604 6.80038 15.9604 6.76721 15.894 6.73405C15.4957 6.5682 14.9646 6.36919 14.7323 6.73405C14.6327 6.73405 14.5331 6.73405 14.4335 6.73405C14.2012 6.73405 14.002 6.76721 13.7697 6.80038C13.4709 6.70088 13.2054 6.60137 12.9067 6.53503C12.5747 6.4687 12.276 6.53503 11.944 6.5682C11.7781 6.5682 11.6785 6.73404 11.6453 6.86672C11.5125 6.86672 11.2802 6.63454 11.1474 6.5682C11.0478 6.53503 10.9482 6.50186 10.8155 6.53503C10.8155 6.53503 10.6827 6.53503 10.6163 6.60137C10.4835 6.53503 10.3508 6.53503 10.1848 6.53503C10.0189 6.53503 9.91927 6.60137 9.81969 6.70088C9.81969 6.70088 9.78648 6.70088 9.75329 6.70088C9.75329 6.70088 9.7533 6.66771 9.68691 6.63454C9.58734 6.53503 9.48776 6.4687 9.35499 6.43553C9.18902 6.40236 8.98986 6.43553 8.85709 6.5682C8.85709 6.5682 8.85709 6.5682 8.75751 6.5682C8.65793 6.5682 8.55834 6.5682 8.45876 6.5682C8.2596 6.5682 8.06044 6.60137 7.86128 6.66771C7.66212 6.70088 7.56256 6.86672 7.56256 7.03256C7.49617 7.03256 7.39659 6.96623 7.33021 6.96623C7.06466 6.89989 6.76592 7.03256 6.50038 7.0989C6.26803 7.16524 6.03568 7.23158 5.80333 7.33108C5.73694 7.33108 5.43819 7.46376 5.405 7.49692C5.23903 7.33108 4.90711 7.39742 4.84072 7.6296C4.84072 7.69594 4.80752 7.76227 4.77432 7.82861C4.64155 7.89495 4.50879 7.99445 4.34282 8.09396C4.07728 8.06079 3.81173 8.2598 3.64577 8.52515C3.513 8.75733 3.34703 8.95635 3.28064 9.18853C3.0151 9.35437 2.84912 9.52021 2.74954 9.78556C2.64996 9.78556 2.5504 9.88507 2.48401 10.0177C2.48401 10.0509 2.45081 10.0841 2.41761 10.1504C2.38442 10.1504 2.31803 10.1836 2.28484 10.2168C2.08568 10.3163 1.95292 10.4821 1.88654 10.6479C1.88654 10.6479 1.85333 10.6479 1.82014 10.6811C1.68736 10.6811 1.5546 10.7806 1.48821 10.8801C1.48821 10.8801 1.48821 10.9133 1.48821 10.9465C1.48821 10.9465 1.48821 10.9465 1.48821 11.0128C1.48821 11.0128 1.45501 11.0791 1.45501 11.1123C1.42182 11.1455 1.38863 11.2118 1.35544 11.245C1.28905 11.3445 1.18947 11.444 1.12308 11.5435C0.923926 11.8752 0.890745 12.2732 0.824358 12.6712C0.791165 12.7044 0.724776 12.7707 0.691583 12.8039C0.55881 13.0029 0.492414 13.2351 0.525607 13.5005C0.525607 13.6331 0.591996 13.7326 0.658383 13.799C0.459224 13.9316 0.293253 14.0643 0.160481 14.3297C0.127288 14.396 0.0940874 14.4955 0.127281 14.595C-0.138264 15.2252 0.0941056 15.8886 0.0941056 16.5851C0.0941056 17.149 0.0608983 17.6797 0.0277052 18.2436C0.0277052 18.7079 0.260074 19.1723 0.226881 19.6035C0.226881 19.7693 0.226877 19.8688 0.326456 19.9352C0.160491 20.2669 0.19367 20.6649 0.260056 21.0629C0.293249 21.3946 0.359631 21.6599 0.359631 21.9585C0.359631 22.3897 0.558803 22.5223 0.658383 22.8872C0.591996 22.7213 0.558814 23.3184 0.592007 23.4511C0.691587 23.8822 1.08989 24.1476 1.25586 24.5456C1.42183 24.9436 1.5546 25.3748 1.72056 25.7397C1.75375 25.8392 1.78695 25.9055 1.85334 25.9387C1.78695 26.005 1.75375 26.0714 1.68736 26.1377C1.58778 26.3367 1.45501 26.4694 1.32223 26.6684C1.18946 26.8674 1.15627 27.0664 1.08988 27.2986C1.08988 27.365 1.0235 27.4313 0.990309 27.4976C0.890729 27.4976 0.791162 27.4976 0.691583 27.4976C0.226879 27.763 0.326441 28.2605 0.492407 28.6917C0.890724 29.6868 1.1231 30.516 1.05671 31.6105C1.05671 31.8096 1.15629 31.9422 1.28906 32.0086C1.28906 32.1744 1.28906 32.3403 1.28906 32.5061C1.28906 32.8046 1.28906 33.1031 1.28906 33.4017C1.28906 33.667 1.35544 33.866 1.48821 34.1314C1.5546 34.2309 1.5878 34.3304 1.65419 34.4299C1.68738 34.4962 1.82015 34.5626 1.88654 34.6289C2.01931 34.9606 2.15208 35.2591 2.25166 35.5244C2.58359 36.221 2.48401 37.7799 2.71637 38.2111C2.94872 38.6423 3.31382 38.4765 3.57937 39.4052C3.87811 40.3339 4.11047 40.5661 4.11047 40.5661C4.74114 40.8978 7.03145 40.4002 7.03145 40.4002C7.03145 40.4002 6.73271 39.8364 6.66633 39.571C6.59994 39.2725 6.10205 38.4433 6.10205 38.4433C6.43398 38.3438 6.99825 38.1448 6.99825 38.1448C6.99825 38.1448 6.59995 37.5809 6.3676 37.1497C6.10206 36.6854 5.57097 36.42 5.17265 35.7898C4.77433 35.1928 4.67475 33.8992 4.57517 32.2739C4.50879 31.312 4.67475 30.3833 4.80752 29.7863C5.30542 29.5209 5.77012 29.2887 6.23483 28.9902C6.46718 28.8244 6.73273 28.8244 6.96508 28.6917C7.19743 28.559 7.39658 28.4595 7.62893 28.36C7.7949 28.2937 7.89449 28.161 7.92768 27.9952C8.16004 27.8957 8.35918 27.8625 8.59154 27.763C8.7575 27.6966 8.85707 27.5971 9.02304 27.4976C9.02304 27.4976 9.05624 27.4976 9.08944 27.4976C9.18902 27.4313 9.28858 27.3981 9.38816 27.3318C9.62052 27.1659 9.7865 26.9338 10.052 26.8011C10.1516 26.7348 10.218 26.6684 10.2512 26.6021C10.3176 26.6021 10.384 26.6021 10.4172 26.5357C10.6827 26.2704 11.1474 26.0714 11.4793 26.005C11.6453 25.9719 11.7781 26.005 11.944 25.9387C12.1432 25.8392 12.3424 25.7065 12.5415 25.607C12.5415 25.607 12.5415 25.607 12.5415 25.6402C12.6079 25.8724 12.7407 26.0382 12.9398 26.1709C13.0062 26.3036 13.2718 26.3699 13.2718 26.4031C13.4709 26.4031 13.5705 26.3699 13.7033 26.3699C13.9024 26.3699 14.1348 26.5026 14.2676 26.6021C14.4003 26.7016 14.5331 26.8011 14.6991 26.8674C14.865 26.9006 15.031 26.8674 15.197 26.9338C15.3629 27.0001 15.5621 26.9338 15.6617 26.8011C15.728 26.8011 15.7945 26.8674 15.8608 26.9006C16.06 27.0333 16.3587 27.1991 16.5911 27.2323C16.7239 27.2323 16.8566 27.2323 16.9894 27.1991C17.089 27.2323 17.1886 27.2655 17.2881 27.2986C17.7528 27.3981 18.1511 27.4313 18.6158 27.4645C18.8814 27.4645 19.1138 27.6303 19.4125 27.6303C19.678 27.6303 19.9104 27.4976 20.1759 27.4313C20.5079 27.365 20.7734 27.4313 21.0722 27.3318C21.0722 27.3318 21.1053 27.365 21.1385 27.3981C21.4705 27.5971 21.9352 27.6303 22.2339 27.365C22.3667 27.2655 22.3999 27.0996 22.5326 27.0001C22.5326 27.0001 22.5658 27.0001 22.599 26.9669C22.7318 27.0333 22.8646 27.0664 22.9974 27.0664C23.1633 27.0664 23.3293 27.0664 23.4952 27.0001C23.6612 27.1659 23.8604 27.2654 24.1591 27.1659C24.3583 27.0996 24.5574 26.9006 24.5906 26.6684C24.5906 26.6684 24.6238 26.6684 24.657 26.6684C24.7898 26.9006 25.0221 27.0664 25.3541 26.9338C25.5532 26.8674 25.7192 26.6684 25.8851 26.5689C26.2171 26.5357 26.5822 26.4362 26.9141 26.3699C26.9805 26.5357 27.1133 26.6684 27.3457 26.7016C27.6112 26.7016 27.7772 26.5689 28.0095 26.5357C28.2419 26.5026 28.441 26.4694 28.6734 26.3699C28.9721 26.2704 29.2045 26.3699 29.47 26.3699C29.47 26.3699 29.3372 26.5026 29.304 26.6021C29.2045 26.6684 29.1381 26.8011 29.1713 26.9338V27.0001C29.1713 27.0001 29.2045 27.0333 29.2377 27.0664C29.2377 27.2323 29.2708 27.3981 29.304 27.5308C29.3372 27.6966 29.4368 27.8293 29.5032 27.962C29.5032 27.962 29.5032 28.2273 29.5032 28.1942C29.5364 28.3932 29.7023 28.5259 29.7687 28.6917C29.8683 28.8575 29.8683 29.0566 29.9347 29.2556C29.9679 29.3551 30.0343 29.4546 30.1339 29.5209C30.1339 29.5541 30.1339 29.6204 30.1339 29.6536C30.1339 29.8194 30.2002 29.9853 30.2334 30.1511C30.2334 30.4165 30.2998 30.6818 30.4326 30.914C30.5322 31.113 30.7313 31.2125 30.8641 31.3452C30.9637 31.8427 31.0965 32.3403 31.196 32.7714C32.0259 35.9556 31.7271 38.2443 31.6276 39.173C31.528 40.1017 32.225 39.8032 32.2914 40.6324C32.3578 41.4616 32.7893 42.2245 32.7893 42.2245C32.7893 42.2245 33.5196 42.3904 34.3826 42.3904C35.2456 42.3904 35.2124 42.1914 35.2124 42.1914C35.6771 42.2909 36.2746 42.1914 36.2746 42.1914C36.1418 41.5943 35.1128 39.372 35.1128 39.372H36.8057C36.3742 38.2111 35.3452 36.818 34.9469 36.1215C34.5486 35.4581 34.7477 34.9606 34.449 33.667C34.1502 32.3734 34.0839 31.511 34.449 30.1843C34.7809 29.0566 34.6813 28.758 34.5154 27.8625C34.5817 27.7298 34.6813 27.6303 34.7477 27.5308C34.7477 27.4976 34.7477 27.4645 34.7809 27.4313C34.9137 27.4313 35.0133 27.365 35.1128 27.2986C35.2456 27.1659 35.312 26.9669 35.3452 26.7679C35.478 26.6352 35.5775 26.4694 35.7103 26.3699C35.8431 26.2704 36.0091 26.2041 36.1418 26.0382C36.2082 25.9719 36.2082 25.9055 36.2414 25.8724C36.3742 25.9719 36.5401 26.005 36.7061 25.9719C36.7725 25.9719 36.8721 25.9055 36.9385 25.8724C36.9385 25.8724 37.0712 25.9387 37.1044 25.9387C37.37 26.005 37.6355 26.005 37.8679 25.8724C37.9343 25.8724 37.9675 25.9055 38.0338 25.9387C38.3326 26.0382 38.5981 25.7729 38.6313 25.4743C38.6313 25.4743 38.6645 25.4743 38.6977 25.4743C38.6977 25.4743 38.7309 25.5407 38.7973 25.5738C38.93 25.6734 39.0628 25.6734 39.1956 25.6402C39.4611 25.806 39.7931 25.7729 40.0918 25.6402C40.3573 25.6734 40.6229 25.5075 40.8221 25.2422C40.9216 25.0763 41.0212 24.9105 41.1208 24.7446C41.1872 24.6451 41.2868 24.5788 41.3532 24.4793C41.3863 24.4129 41.4195 24.3134 41.4527 24.2471C41.4527 24.2471 41.4527 24.2471 41.4527 24.2139C41.5523 24.1808 41.6519 24.0813 41.6851 23.9486C41.851 23.8491 41.9838 23.6832 42.0834 23.4842C42.183 23.4842 42.2826 23.4179 42.3821 23.3515C42.6809 23.1194 42.6145 22.9204 42.7141 22.6218C42.8136 22.3897 42.9464 22.2901 43.0128 22.0248C43.0128 21.859 43.0792 21.6268 43.1456 21.4278C43.3447 21.3283 43.4775 21.1956 43.6103 21.0297C43.7431 20.8639 43.7099 20.6981 43.6103 20.5654C43.8094 20.5322 44.0418 20.3664 44.1746 20.1674C44.4069 20.101 44.6393 19.902 44.772 19.6367C44.8052 19.6367 44.8384 19.6367 44.8384 19.6367C44.938 19.6035 45.0708 19.5372 45.1703 19.4376C45.4027 19.2055 45.3363 18.9733 45.4027 18.7079C45.5023 18.4094 45.7678 18.2767 45.9006 18.0114C46.0334 17.746 46.0334 17.4475 46.0002 17.149C46.0002 17.0827 46.0002 17.0495 45.9338 16.9832C46.0002 16.8173 46.0334 16.6515 46.0334 16.4856C46.1993 16.3198 46.1993 16.0876 46.1993 15.8223C46.3653 15.8223 46.5313 15.7228 46.6308 15.5901C46.9628 15.0262 46.8632 14.1307 46.664 13.5005C46.7304 13.5005 46.7968 13.5005 46.8632 13.5005C47.0292 13.5668 47.1951 13.5336 47.3943 13.5005C47.6267 13.4673 47.8258 13.3678 47.9586 13.2351C48.2905 13.1688 48.5229 12.8702 48.6556 12.5386C48.6888 12.5386 48.722 12.4722 48.7552 12.4391C48.9544 12.0742 49.1203 11.6098 49.2531 11.1786C49.3195 10.9465 49.3527 10.7143 49.3195 10.4821H49.3527C49.917 10.6811 50.7136 10.1836 51.3111 9.95141C51.9418 9.71923 52.7716 9.8519 53.4022 9.95141C54.0329 10.0509 54.3316 9.71923 54.6636 9.42071C54.9955 9.12219 54.8628 8.59149 54.8628 8.59149C55.3938 8.35931 55.1947 7.99445 55.3607 7.23158C55.4934 6.4687 54.9623 6.0375 54.1657 5.47364" fill="#FF6634"/>
</svg>
