<svg viewBox="0 0 40 46" fill="none" xmlns="http://www.w3.org/2000/svg">
  <path
    d="M38.9119 6.29215C38.9119 6.29215 39.5758 5.52927 37.8166 4.60054C37.8166 4.36836 37.8166 4.16935 37.5842 4.16935C37.5842 3.87083 37.6506 3.60548 37.6506 3.30697C37.6506 3.14112 37.6506 2.7431 37.551 2.61042C37.4846 2.51092 37.385 2.54409 37.2855 2.47775C37.1195 2.34508 37.2191 2.14606 37.1527 1.94705C37.1527 1.88071 37.0863 1.84755 37.0199 1.84755C37.0199 1.84755 36.7212 1.91388 36.7544 1.91388C36.6548 1.88071 36.7544 1.91388 36.688 1.81438C36.5884 1.61536 36.7876 1.31685 36.6548 1.11783C36.3892 0.752979 36.1901 1.11783 36.0242 1.41635C35.9578 1.18417 35.9578 0.885654 35.9578 0.587136C35.9246 0.388124 35.6258 0.388124 35.5926 0.587136C35.5926 0.686642 35.5926 0.786148 35.5595 0.885654C35.5595 0.752979 35.5262 0.620305 35.4931 0.48763C35.4267 0.288618 35.1279 0.288618 35.0615 0.48763C35.0615 0.587136 35.0283 0.686642 34.9951 0.752979C34.9619 0.752979 34.9287 0.752979 34.8956 0.752979C34.8956 0.620305 34.8292 0.454461 34.7296 0.321787C34.6632 0.255449 34.5305 0.255449 34.4641 0.321787C34.3977 0.388124 34.3645 0.454461 34.3313 0.520799C34.3313 0.520799 34.3313 0.48763 34.3313 0.454461C34.3313 0.421293 34.2649 0.388124 34.2317 0.388124C34.1653 0.388124 34.1321 0.454461 34.1321 0.520799C34.1321 0.520799 34.0657 0.48763 34.0325 0.454461C33.8666 0.388124 33.601 0.454461 33.5014 0.620305C33.5014 0.686642 33.4683 0.719811 33.4351 0.786148C33.3687 0.719811 33.2691 0.752979 33.2359 0.786148C33.2359 0.819317 33.2027 0.885654 33.1695 0.918823C33.0368 0.885654 32.904 0.885654 32.7712 0.918823C32.4393 1.01833 32.2733 1.31685 32.1406 1.61536C31.5431 1.88071 30.9124 2.34508 30.3813 3.04162C28.8876 5.03174 28.3233 7.7184 27.7922 9.27733C27.2279 10.8363 26.9956 12.8264 25.9666 13.7551C24.8049 14.8165 18.4982 15.3472 16.1415 15.2809C13.7847 15.2145 10.3327 16.6076 10.3327 16.6076C10.3327 16.6076 8.20832 15.2809 7.54445 13.7219C7.24572 13.0586 6.88058 12.8927 6.54865 12.8927C6.48226 12.5279 6.18354 12.2625 5.78522 12.2625C5.55287 12.2625 5.35369 12.362 5.18772 12.5279C4.88898 12.3288 4.4907 12.1962 3.92642 12.3952C3.4949 12.5279 3.22935 12.7932 3.03019 13.0917C2.86422 12.7932 2.43271 12.8264 2.29993 13.1581C2.23355 13.1581 2.16717 13.1581 2.10078 13.1581C1.76885 13.1581 1.4037 13.2907 1.13816 13.5561C0.905803 13.7883 0.739854 14.1531 0.739854 14.518C0.739854 14.7833 0.839407 15.0818 0.972179 15.2809C0.673441 15.513 0.407943 15.8447 0.241977 16.2096C-0.0235676 16.7734 0.109201 17.3373 0.341553 17.7685C0.175587 17.868 0.0759692 18.067 0.0427761 18.266C0.00958298 18.5646 0.142357 18.8299 0.407902 18.9957C0.109164 19.2943 -0.156368 19.7255 0.109177 20.3557C0.640266 21.5166 1.66926 21.0854 1.66926 21.0854C1.66926 21.0854 1.60288 21.9809 2.20036 22.2463C2.56548 22.4121 2.99698 22.379 3.32891 22.3458C3.32891 22.4785 3.39528 22.578 3.46166 22.6775C3.56124 22.8101 3.69403 22.9096 3.89319 22.976C4.09235 23.0092 4.32471 23.0092 4.52387 22.9096C4.52387 22.9096 4.59025 22.8765 4.62344 22.8433C4.65664 22.8433 4.72305 22.777 4.75624 22.7438L7.6108 23.971C7.6108 23.971 7.47804 25.1983 8.70618 25.5631C8.70618 25.5631 9.1377 27.1552 9.80156 27.1552H10.9633C10.9633 27.1552 11.9259 27.9845 11.9923 28.7473C12.0587 29.477 13.0213 29.3444 13.0213 29.3444C13.0213 29.3444 13.1541 31.5998 15.6104 32.6281C18.0335 33.6563 17.602 34.983 17.602 34.983L16.8717 40.5885C16.8717 40.5885 14.2826 41.5173 14.1167 42.4128L14.6146 42.1475C14.6146 42.1475 14.9465 42.7445 16.0419 41.6168C16.0419 41.6168 15.7763 42.7777 16.9713 42.7113C16.9713 42.7113 17.5688 42.844 17.8011 43.6732C17.8011 43.6732 19.1952 44.2703 19.9586 44.5025C20.7221 44.7346 21.0208 44.3698 21.22 44.5025C21.4524 44.602 21.7843 45.0663 21.7843 45.0663C21.7843 45.0663 21.9503 44.0713 20.7553 43.9054C19.5272 43.7396 18.9961 43.5737 18.7305 43.0762C18.7305 43.0762 19.7263 42.5123 20.3238 42.5123C20.9212 42.5123 21.4192 42.0811 21.4192 42.0811C21.4192 42.0811 21.6515 41.7163 22.0167 42.0811C22.0167 42.0811 22.1162 41.2851 20.9545 41.6831C19.7927 42.0811 18.6973 42.5787 18.1331 42.0811C18.1331 42.0811 18.133 39.5935 18.3986 37.8687C18.6641 36.1439 21.7511 34.8835 21.7511 34.8835C21.7511 34.8835 23.6431 35.0494 24.1742 34.3197C24.1742 34.3197 24.9376 36.9732 25.4023 38.0677C25.8338 39.1623 26.0662 40.489 25.004 41.7494C25.004 41.7494 24.2738 42.0811 24.3402 42.7445C24.3402 42.7445 24.9044 42.4128 25.2696 42.4128C25.6347 42.4128 25.9334 41.4841 25.9334 41.4841C25.9334 41.4841 27.1284 42.4128 27.7591 42.7445C28.3565 43.0762 29.3523 43.3415 29.3523 43.3415C29.3523 43.3415 29.8502 43.1094 29.9498 43.6732C29.9498 43.6732 30.2817 43.0099 29.4519 42.7445L28.3565 42.048C28.3565 42.048 29.6843 41.9816 30.6137 42.4792C31.5431 42.9767 32.3729 43.0762 32.5389 42.8772C32.5389 42.8772 33.3023 42.8108 33.4683 43.3084C33.4683 43.3084 33.5678 42.5787 32.4725 42.3133C32.4725 42.3133 31.0784 41.8158 30.149 41.5836C29.2196 41.3514 28.2238 41.1524 28.2238 41.1524C28.2238 41.1524 28.954 40.7544 29.12 39.9915L27.6263 40.6549C27.6263 40.6549 26.2322 37.8355 25.9666 35.3479C25.9666 35.3479 26.6969 35.5801 26.7965 34.4523C26.8961 33.3578 27.6263 31.5998 28.2238 31.2018C28.8212 30.8038 30.7464 30.2068 31.875 29.2117C32.9704 28.2166 36.7876 26.2929 37.2855 24.3027C37.7834 22.3126 38.1817 16.873 37.883 14.319C37.6174 11.7981 37.2855 11.2343 36.4556 10.2392C36.1237 9.80803 35.7586 9.34366 35.4599 8.84613C35.4599 8.84613 35.5263 8.84613 35.5595 8.84613C35.991 8.84613 36.4556 8.61395 36.7212 8.3486C37.2855 7.75157 37.4182 6.78968 37.2523 5.99363C37.6838 5.99363 38.3809 5.99363 38.9119 6.29215Z"
    fill="#FF6634" />
</svg>