<svg viewBox="0 0 61 23" fill="none" xmlns="http://www.w3.org/2000/svg">
  <path
    d="M60.0132 14.0988C59.4821 14.0324 58.9842 13.9329 58.4199 13.8666C58.8846 13.5017 59.3161 13.1369 59.7808 12.7389C59.0838 12.2413 58.4863 11.7106 57.7892 11.3126C56.4283 10.4834 55.0674 9.68735 53.6733 8.95763C50.2544 7.16653 46.6364 6.00562 42.8192 5.34225C42.0557 5.20958 41.2591 5.11007 40.4624 5.01056C40.2301 5.01056 40.0973 4.91106 39.9645 4.74521C38.9687 3.55114 37.9729 2.35707 36.9771 1.163C36.6452 0.764974 36.3465 0.731804 35.9814 1.06349C34.0562 2.62242 31.9982 3.94917 29.8075 5.0769C29.21 5.37542 28.5461 5.44176 27.9154 5.54126C25.6251 5.93929 23.368 6.53632 21.1772 7.23286C20.9449 7.2992 20.8121 7.2992 20.6129 7.13336C19.0861 5.83978 17.36 5.04373 15.4016 4.64571C15.3352 4.64571 15.2688 4.64571 15.1029 4.61254C15.2357 4.74521 15.3352 4.81155 15.4016 4.87789C15.9991 5.44176 16.5966 6.00562 17.1609 6.56949C17.5592 6.96752 17.8247 7.46504 17.9575 7.99574C18.0239 8.19476 17.9575 8.29426 17.7583 8.3606C16.1319 8.92447 14.5054 9.5215 12.8458 10.019C11.8832 10.3176 10.8542 10.4502 9.82519 10.5497C9.32729 10.6161 8.8294 10.5497 8.33151 10.4502C7.4021 10.2844 6.83779 9.62101 6.43947 8.85813C5.77561 7.59772 4.91259 6.46998 3.94999 5.44176C3.38571 4.84472 2.75503 4.24768 2.12436 3.68382C1.9252 3.51797 1.62651 3.41847 1.39416 3.28579C1.39416 3.28579 1.36095 3.35213 1.32776 3.3853C1.42733 3.58431 1.56008 3.78332 1.65966 3.98233C2.58906 5.64077 3.38573 7.36554 3.71766 9.28932C3.95002 10.6824 3.81724 12.0755 3.35254 13.4022C2.65548 15.4919 1.52693 17.3161 0.099626 19.0077C0.099626 19.0409 0.0331931 19.0741 0 19.0741V19.1404C0 19.1404 0.232372 19.2399 0.331951 19.2731C0.464724 19.2731 0.630673 19.2731 0.730253 19.2068C3.15335 16.9845 5.70925 14.928 7.96638 12.5067C8.23192 12.2413 8.49748 12.1418 8.86261 12.2082C9.22773 12.2745 9.59284 12.374 9.99116 12.4403C13.0117 13.1037 15.8 14.3641 18.6546 15.4255C19.0197 15.5582 19.1525 15.8235 19.0197 16.1884C18.8537 16.6196 18.7209 17.0508 18.4222 17.3825C17.8911 18.0458 17.2604 18.6097 16.663 19.2399C16.3642 19.5384 16.0323 19.8038 15.7336 20.0691C15.7336 20.0691 15.7336 20.1355 15.7336 20.1686C15.9659 20.1686 16.2315 20.2682 16.4638 20.235C18.7873 19.7706 20.7789 18.6761 22.505 17.084C22.6709 16.9513 22.7705 16.9181 23.0029 16.9845C23.6335 17.2166 24.2974 17.4156 24.9612 17.6478C28.9444 18.9746 33.0272 19.8038 37.2095 20.036C37.7406 20.036 38.2385 20.1023 38.8028 20.1355C38.504 20.9647 37.973 21.5949 37.4751 22.2583C37.6078 22.3246 37.7406 22.3909 37.8402 22.4241H38.1389C38.1389 22.4241 38.2053 22.3578 38.2385 22.3246C39.2343 21.8934 40.0641 21.2632 40.7612 20.434C40.9604 20.2018 41.1927 20.1355 41.4914 20.1355C42.3544 20.1023 43.2175 20.0691 44.0805 20.0028C46.1053 19.837 48.1301 19.6048 50.0885 18.9746C53.6069 17.8468 56.8266 16.0889 59.98 14.2315V14.1651L60.0132 14.0988Z"
    fill="#FF6634" />
</svg>