<svg width="58" height="36" viewBox="0 0 58 36" fill="none" xmlns="http://www.w3.org/2000/svg">
<path d="M19.2309 34C21.9499 34 24.154 31.7959 24.154 29.0769C24.154 26.3579 21.9499 24.1538 19.2309 24.1538C16.512 24.1538 14.3079 26.3579 14.3079 29.0769C14.3079 31.7959 16.512 34 19.2309 34Z" stroke="#EC651D" stroke-width="3.5" stroke-miterlimit="1.5" stroke-linecap="round" stroke-linejoin="round"/>
<path d="M43.8462 34C46.5652 34 48.7692 31.7959 48.7692 29.0769C48.7692 26.3579 46.5652 24.1538 43.8462 24.1538C41.1272 24.1538 38.9231 26.3579 38.9231 29.0769C38.9231 31.7959 41.1272 34 43.8462 34Z" stroke="#EC651D" stroke-width="3.5" stroke-miterlimit="1.5" stroke-linecap="round" stroke-linejoin="round"/>
<path d="M24.2769 29.0769H36.4615V3.47692C36.4615 2.66124 35.8004 2 34.9846 2H2" stroke="#EC651D" stroke-width="3.5" stroke-linecap="round"/>
<path d="M13.4462 29.0769H8.40002C7.58434 29.0769 6.9231 28.4157 6.9231 27.6V15.5385" stroke="#EC651D" stroke-width="3.5" stroke-linecap="round"/>
<path d="M4.46167 9.38461H14.3078" stroke="#EC651D" stroke-width="3.5" stroke-linecap="round" stroke-linejoin="round"/>
<path d="M36.4617 9.38461H50.2711C50.8548 9.38461 51.3838 9.72834 51.6208 10.2617L56.0267 20.175C56.1107 20.3641 56.154 20.5684 56.154 20.7749V27.6C56.154 28.4157 55.4928 29.0769 54.6771 29.0769H50.0001" stroke="#EC651D" stroke-width="3.5" stroke-linecap="round"/>
<path d="M36.4617 29.0769H38.9232" stroke="#EC651D" stroke-width="3.5" stroke-linecap="round"/>
</svg>
