<svg viewBox="0 0 68 44" fill="none" xmlns="http://www.w3.org/2000/svg">
  <path
    d="M36.8556 25.729L37.1543 26.5251C37.1543 26.5251 37.0879 30.837 36.8556 31.3014C36.6232 31.7989 37.0215 32.1637 36.9883 32.9266C36.9883 33.7227 36.3577 37.7029 36.1585 38.3663C35.9925 39.0297 35.9262 40.5554 35.9262 40.5554H36.8888C36.8888 40.5554 36.9219 40.8208 36.7892 41.252C36.6564 41.65 36.8887 42.6119 37.4198 42.8441C37.4198 42.8441 40.3408 43.0099 40.6396 42.7445C40.6396 42.7445 40.9383 43.5738 41.3698 43.7728C41.3698 43.7728 45.0874 43.9386 45.1538 43.4411C45.187 42.9436 43.8925 41.9817 43.8925 41.9817C43.8925 41.9817 42.9299 41.4841 42.6312 40.1574C42.2992 38.8306 41.9009 37.6034 41.7681 36.8737C41.6354 36.144 41.7349 34.8504 41.8677 33.8885C42.0005 32.9266 42.1001 32.9598 41.8345 30.7375C41.569 28.5152 41.5026 27.1884 41.5026 27.1884C41.5026 27.1884 43.8261 27.7855 44.6891 26.6909C45.5522 25.5963 46.2492 23.7389 46.8135 22.8433C47.411 21.9478 48.5395 21.2181 49.0706 19.5265C49.6017 17.8349 52.8546 14.12 55.3441 12.9591C55.3441 12.9591 58.8958 13.6556 60.4227 13.6556C61.9496 13.6556 62.879 13.523 63.6092 13.6888C63.6092 13.6888 63.7752 14.0537 64.5718 14.0537C65.3684 14.0537 66.1651 13.7883 66.2647 13.4234C66.2647 13.4234 67.1609 12.8264 67.2936 12.0967C67.4264 11.367 66.7626 11.0021 66.1983 10.4051C65.6672 9.80806 63.8748 7.22091 63.2441 6.35852C62.6134 5.49614 62.2483 5.33029 62.2483 5.33029C62.2483 5.33029 62.3811 4.33523 61.518 3.47285C60.655 2.61046 59.3937 2.44462 58.929 1.35005C58.4643 0.255488 58.1987 0.0233076 57.2029 0.487669C56.2071 0.95203 56.6718 1.44956 56.3067 1.68174C55.9416 1.91392 54.7467 2.54413 53.6845 2.94215C53.6845 2.94215 53.2198 2.57729 52.0912 2.54413C50.9626 2.51096 49.9668 2.70997 50.3652 3.7382C50.3652 3.7382 46.5811 4.56741 45.187 4.13622C43.7929 3.7382 41.5026 3.04166 40.4736 2.94215C39.4446 2.84264 34.0673 3.53919 32.5736 3.57235C31.08 3.60552 26.9972 3.8377 24.7733 4.16939C22.5493 4.50108 16.6409 5.06494 15.1141 5.19762C13.554 5.33029 12.525 4.70009 9.76997 5.46297C7.01494 6.22585 4.85739 6.92239 3.72882 7.95062C2.60026 8.97885 2.36791 11.2343 2.60026 12.9259C2.83261 14.6507 2.83261 17.8349 2.76622 19.8582C2.73303 21.9146 2.60026 26.4256 2.30152 27.2216C2.03598 27.9845 1.47169 28.482 1.67085 29.3112C1.83682 30.1405 2.13555 33.0261 1.63766 35.2484C1.13976 37.4707 0.509092 39.6599 0.509092 39.6599C0.509092 39.6599 -0.088384 40.3896 0.0111953 40.6881C0.110775 41.0198 0.741444 40.5554 0.741444 40.5554C0.741444 40.5554 1.00699 41.1856 0.874216 41.8822C0.741444 42.5787 1.00699 43.2421 1.33892 43.6401C1.33892 43.6401 4.29311 43.9055 4.62504 43.4743C4.95697 43.0099 3.66244 41.8822 3.66244 41.8822C3.66244 41.8822 3.52967 41.3515 3.26412 40.8539C2.99858 40.3564 2.93219 37.9019 3.09816 36.94C3.23093 35.9781 4.85739 31.2682 5.22252 30.3726C5.58764 29.4771 7.2141 27.7523 7.54603 26.1934C7.54603 26.1934 8.57502 27.686 10.1683 27.9182C10.1683 27.9182 9.30527 29.1122 9.83636 29.9746C10.3674 30.837 10.6662 32.1637 11.1973 33.9217C11.7284 35.6796 12.691 39.1955 12.691 39.1955C12.691 39.1955 12.1599 40.0579 12.4254 40.2901C12.691 40.5222 13.4544 39.8257 13.4544 39.8257C13.4544 39.8257 13.8195 40.4227 13.9191 40.8208C14.0187 41.2188 13.8195 41.8158 14.3838 42.2138C14.3838 42.2138 17.3712 42.3134 17.6035 41.9817C17.8359 41.65 17.0061 40.6549 16.4086 40.4891C16.4086 40.4891 16.4086 39.9584 15.7779 39.6267C15.7779 39.6267 15.0477 38.3995 14.4502 36.9069C13.8527 35.4143 13.3216 33.1256 13.4876 31.8321C13.6536 30.5053 14.3174 27.5533 14.3174 27.5533L14.9481 27.686C14.9481 27.686 14.9149 28.5484 15.2136 28.5815C15.5456 28.6147 15.5788 27.6196 15.5788 27.6196C15.5788 27.6196 16.3422 27.6528 16.9397 27.487C16.9397 27.487 16.9729 28.3162 17.3048 28.2498C17.6367 28.2167 17.5704 27.2216 17.5704 27.2216C17.5704 27.2216 18.533 27.0889 18.8317 26.8236C18.8317 26.8236 20.7237 27.7191 23.6779 27.5201C26.6321 27.2879 33.8018 24.9661 34.532 24.9661C35.2623 24.9661 36.9219 25.7622 36.9219 25.7622"
    fill="#FF6634" />
</svg>