<svg width="104" height="11" viewBox="0 0 104 11" fill="none" xmlns="http://www.w3.org/2000/svg">
<mask id="mask0_51_118" style="mask-type:luminance" maskUnits="userSpaceOnUse" x="0" y="0" width="104" height="11">
<path d="M104 0H0V11H104V0Z" fill="white"/>
</mask>
<g mask="url(#mask0_51_118)">
<mask id="mask1_51_118" style="mask-type:luminance" maskUnits="userSpaceOnUse" x="0" y="0" width="104" height="11">
<path d="M104 0H0V11H104V0Z" fill="white"/>
</mask>
<g mask="url(#mask1_51_118)">
<path d="M13.9478 4.77362L9.94492 0.622681C9.17418 0.622681 8.72666 0.622681 7.95592 0.622681L12.0085 4.85145V5.059H4.97241V6.53778H12.0085V6.77127L7.95592 11H9.94492L13.9229 6.8491C13.9229 6.04485 13.9229 5.57787 13.9229 4.77362" fill="black"/>
<path d="M1.41716 6.2524V5.37032L5.96701 0.622681C5.19627 0.622681 4.74874 0.622681 3.97801 0.622681L0 4.77362C0 4.77362 0 6.74532 0 6.8491L3.97801 11C4.74874 11 5.19627 11 5.96701 11L1.41716 6.2524Z" fill="black"/>
<path d="M45.4238 1.84204H43.037L40.5259 9.75478H41.7939L42.5397 7.29015H45.921L46.6669 9.75478H47.9598L45.4487 1.84204H45.4238ZM44.0564 2.28308H44.4044L45.5978 6.22648H42.863L44.0564 2.28308Z" fill="black"/>
<path d="M39.7302 2.51651C39.2081 2.04953 38.4623 1.81604 37.5175 1.81604H34.708V9.75472H35.8517V7.2901H37.5175C38.4623 7.2901 39.1335 6.95283 39.6557 6.48585C40.1778 6.01887 40.501 5.34434 40.501 4.51415C40.501 3.68396 40.2275 2.95755 39.7054 2.49057M38.8352 5.78538C38.4871 6.0967 38.0147 6.25236 37.3932 6.25236H35.8765V2.93161H37.3932C38.0147 2.93161 38.6114 3.00944 38.9595 3.32076C39.3076 3.63208 39.3822 3.99529 39.3822 4.5401C39.3822 5.08491 39.1833 5.5 38.8352 5.81132" fill="black"/>
<path d="M55.0208 4.51421V1.84204H49.1035V3.08732H54.623V3.26893L49.1035 7.10855V9.78072H55.0208V8.53544H49.5013V8.37978L55.0208 4.51421Z" fill="black"/>
<path d="M24.6387 7.83493C24.1414 8.37974 23.4204 8.717 22.6497 8.717C21.1082 8.717 19.9894 7.41984 19.9894 5.7854C19.9894 4.15097 21.1082 2.8538 22.6497 2.8538C23.4204 2.8538 24.1414 3.19106 24.6387 3.73587L25.4591 2.87974C24.7381 2.12738 23.7436 1.6604 22.6497 1.6604C20.4618 1.6604 18.6965 3.50238 18.6965 5.7854C18.6965 8.06842 20.4618 9.9104 22.6497 9.9104C23.7436 9.9104 24.7381 9.44342 25.4591 8.69106L24.6387 7.83493Z" fill="black"/>
<path d="M31.0532 1.84204H28.6664L26.1553 9.75478H27.4233L28.1691 7.29015H31.5504L32.2963 9.75478H33.5892L31.0781 1.84204H31.0532ZM29.6858 2.28308H30.0338L31.2272 6.22648H28.4924L29.6858 2.28308Z" fill="black"/>
<path d="M64.5928 6.14864H60.8634V8.79486H64.9409L64.8166 9.78071H59.7446V1.89392H64.7669V2.87977H60.8634V5.16279H64.5928V6.14864Z" fill="black"/>
<path d="M67.1537 7.57542C67.3526 8.48344 67.9493 8.97636 69.0184 8.97636C70.1372 8.97636 70.5847 8.43155 70.5847 7.73108C70.5847 6.97872 70.2118 6.56362 68.7449 6.20042C66.9051 5.73344 66.3084 5.08485 66.3084 3.96928C66.3084 2.74994 67.1537 1.79004 68.8692 1.79004C70.709 1.79004 71.4549 2.87966 71.5544 3.94334H70.4107C70.2864 3.29476 69.8886 2.724 68.8195 2.724C67.9493 2.724 67.452 3.11315 67.452 3.83957C67.452 4.56598 67.8747 4.82542 69.1676 5.16268C71.3306 5.70749 71.7284 6.58957 71.7284 7.60136C71.7284 8.89853 70.8085 9.91032 68.9189 9.91032C67.0294 9.91032 66.1592 8.84664 66.01 7.60136H67.1288L67.1537 7.57542Z" fill="black"/>
<path d="M74.9109 2.87977H72.4993V1.89392H78.4663V2.87977H76.0297V9.78071H74.9109V2.87977Z" fill="black"/>
<path d="M80.7784 1.89387V6.64151C80.7784 8.4316 81.7232 8.92453 82.6431 8.92453C83.7371 8.92453 84.5078 8.37972 84.5078 6.64151V1.89387H85.6266V6.56368C85.6266 9.15802 84.2343 9.88443 82.6183 9.88443C81.0022 9.88443 79.6348 9.10613 79.6348 6.64151V1.89387H80.7536H80.7784ZM84.5824 0L83.0409 1.1934H81.9719L83.1901 0H84.5824Z" fill="black"/>
<path d="M87.0686 1.89392H89.8283C91.9665 1.89392 93.4085 3.42458 93.4085 5.75949C93.4085 8.09439 92.0162 9.78071 89.7786 9.78071H87.0686V1.89392ZM88.1874 8.79486H89.704C91.4196 8.79486 92.2151 7.49769 92.2151 5.75949C92.2151 4.25477 91.4693 2.85383 89.704 2.85383H88.1874V8.76892V8.79486Z" fill="black"/>
<path d="M95.7209 1.89392H94.6021V9.78071H95.7209V1.89392Z" fill="black"/>
<path d="M104 5.78539C104 7.96463 102.807 9.88444 100.42 9.88444C98.1572 9.88444 96.939 8.09435 96.939 5.83727C96.939 3.5802 98.2318 1.76416 100.519 1.76416C102.657 1.76416 104 3.42454 104 5.78539ZM98.1075 5.81133C98.1075 7.47171 98.9031 8.89859 100.469 8.89859C102.16 8.89859 102.831 7.44576 102.831 5.81133C102.831 4.1769 102.086 2.75001 100.469 2.75001C98.8534 2.75001 98.1075 4.12501 98.1075 5.78539" fill="black"/>
</g>
</g>
</svg>
