<svg width="583" height="203" viewBox="0 0 583 203" fill="none" xmlns="http://www.w3.org/2000/svg">
  <g filter="url(#filter0_i_17_80)">
    <path
      d="M158.365 148.963C156.757 148.963 155.209 148.759 153.721 148.351C152.257 147.919 151.093 147.403 150.229 146.803L151.957 143.383C152.821 143.935 153.853 144.391 155.053 144.751C156.253 145.111 157.453 145.291 158.653 145.291C160.069 145.291 161.089 145.099 161.713 144.715C162.361 144.331 162.685 143.815 162.685 143.167C162.685 142.639 162.469 142.243 162.037 141.979C161.605 141.691 161.041 141.475 160.345 141.331C159.649 141.187 158.869 141.055 158.005 140.935C157.165 140.815 156.313 140.659 155.449 140.467C154.609 140.251 153.841 139.951 153.145 139.567C152.449 139.159 151.885 138.619 151.453 137.947C151.021 137.275 150.805 136.387 150.805 135.283C150.805 134.059 151.153 133.003 151.849 132.115C152.545 131.203 153.517 130.507 154.765 130.027C156.037 129.523 157.537 129.271 159.265 129.271C160.561 129.271 161.869 129.415 163.189 129.703C164.509 129.991 165.601 130.399 166.465 130.927L164.737 134.347C163.825 133.795 162.901 133.423 161.965 133.231C161.053 133.015 160.141 132.907 159.229 132.907C157.861 132.907 156.841 133.111 156.169 133.519C155.521 133.927 155.197 134.443 155.197 135.067C155.197 135.643 155.413 136.075 155.845 136.363C156.277 136.651 156.841 136.879 157.537 137.047C158.233 137.215 159.001 137.359 159.841 137.479C160.705 137.575 161.557 137.731 162.397 137.947C163.237 138.163 164.005 138.463 164.701 138.847C165.421 139.207 165.997 139.723 166.429 140.395C166.861 141.067 167.077 141.943 167.077 143.023C167.077 144.223 166.717 145.267 165.997 146.155C165.301 147.043 164.305 147.739 163.009 148.243C161.713 148.723 160.165 148.963 158.365 148.963ZM182.796 148.711V144.823L182.544 143.995V137.191C182.544 135.871 182.148 134.851 181.356 134.131C180.564 133.387 179.364 133.015 177.756 133.015C176.676 133.015 175.608 133.183 174.552 133.519C173.52 133.855 172.644 134.323 171.924 134.923L170.16 131.647C171.192 130.855 172.416 130.267 173.832 129.883C175.272 129.475 176.76 129.271 178.296 129.271C181.08 129.271 183.228 129.943 184.74 131.287C186.276 132.607 187.044 134.659 187.044 137.443V148.711H182.796ZM176.748 148.963C175.308 148.963 174.048 148.723 172.968 148.243C171.888 147.739 171.048 147.055 170.448 146.191C169.872 145.303 169.584 144.307 169.584 143.203C169.584 142.123 169.836 141.151 170.34 140.287C170.868 139.423 171.72 138.739 172.896 138.235C174.072 137.731 175.632 137.479 177.576 137.479H183.156V140.467H177.9C176.364 140.467 175.332 140.719 174.804 141.223C174.276 141.703 174.012 142.303 174.012 143.023C174.012 143.839 174.336 144.487 174.984 144.967C175.632 145.447 176.532 145.687 177.684 145.687C178.788 145.687 179.772 145.435 180.636 144.931C181.524 144.427 182.16 143.683 182.544 142.699L183.3 145.399C182.868 146.527 182.088 147.403 180.96 148.027C179.856 148.651 178.452 148.963 176.748 148.963ZM181.284 126.859C180.708 126.859 180.18 126.751 179.7 126.535C179.244 126.295 178.824 126.019 178.44 125.707C178.08 125.371 177.732 125.083 177.396 124.843C177.06 124.603 176.724 124.483 176.388 124.483C175.884 124.483 175.476 124.675 175.164 125.059C174.852 125.443 174.672 125.971 174.624 126.643H172.212C172.26 125.155 172.62 123.979 173.292 123.115C173.988 122.251 174.924 121.819 176.1 121.819C176.676 121.819 177.204 121.939 177.684 122.179C178.164 122.419 178.584 122.695 178.944 123.007C179.328 123.319 179.688 123.595 180.024 123.835C180.36 124.075 180.684 124.195 180.996 124.195C181.5 124.195 181.908 124.015 182.22 123.655C182.556 123.295 182.736 122.791 182.76 122.143H185.172C185.148 123.535 184.788 124.675 184.092 125.563C183.396 126.427 182.46 126.859 181.284 126.859ZM201.494 148.963C199.526 148.963 197.774 148.543 196.238 147.703C194.702 146.839 193.49 145.663 192.602 144.175C191.714 142.687 191.27 140.995 191.27 139.099C191.27 137.179 191.714 135.487 192.602 134.023C193.49 132.535 194.702 131.371 196.238 130.531C197.774 129.691 199.526 129.271 201.494 129.271C203.486 129.271 205.25 129.691 206.786 130.531C208.346 131.371 209.558 132.523 210.422 133.987C211.31 135.451 211.754 137.155 211.754 139.099C211.754 140.995 211.31 142.687 210.422 144.175C209.558 145.663 208.346 146.839 206.786 147.703C205.25 148.543 203.486 148.963 201.494 148.963ZM201.494 145.111C202.598 145.111 203.582 144.871 204.446 144.391C205.31 143.911 205.982 143.215 206.462 142.303C206.966 141.391 207.218 140.323 207.218 139.099C207.218 137.851 206.966 136.783 206.462 135.895C205.982 134.983 205.31 134.287 204.446 133.807C203.582 133.327 202.61 133.087 201.53 133.087C200.426 133.087 199.442 133.327 198.578 133.807C197.738 134.287 197.066 134.983 196.562 135.895C196.058 136.783 195.806 137.851 195.806 139.099C195.806 140.323 196.058 141.391 196.562 142.303C197.066 143.215 197.738 143.911 198.578 144.391C199.442 144.871 200.414 145.111 201.494 145.111ZM236.915 129.271C238.451 129.271 239.819 129.571 241.019 130.171C242.243 130.771 243.203 131.695 243.899 132.943C244.595 134.167 244.943 135.751 244.943 137.695V148.711H240.443V138.271C240.443 136.567 240.035 135.295 239.219 134.455C238.427 133.615 237.311 133.195 235.871 133.195C234.815 133.195 233.879 133.411 233.063 133.843C232.247 134.275 231.611 134.923 231.155 135.787C230.723 136.627 230.507 137.695 230.507 138.991V148.711H226.007V129.487H230.291V134.671L229.535 133.087C230.207 131.863 231.179 130.927 232.451 130.279C233.747 129.607 235.235 129.271 236.915 129.271ZM259.326 148.963C257.358 148.963 255.606 148.543 254.07 147.703C252.534 146.839 251.322 145.663 250.434 144.175C249.546 142.687 249.102 140.995 249.102 139.099C249.102 137.179 249.546 135.487 250.434 134.023C251.322 132.535 252.534 131.371 254.07 130.531C255.606 129.691 257.358 129.271 259.326 129.271C261.318 129.271 263.082 129.691 264.618 130.531C266.178 131.371 267.39 132.523 268.254 133.987C269.142 135.451 269.586 137.155 269.586 139.099C269.586 140.995 269.142 142.687 268.254 144.175C267.39 145.663 266.178 146.839 264.618 147.703C263.082 148.543 261.318 148.963 259.326 148.963ZM259.326 145.111C260.43 145.111 261.414 144.871 262.278 144.391C263.142 143.911 263.814 143.215 264.294 142.303C264.798 141.391 265.05 140.323 265.05 139.099C265.05 137.851 264.798 136.783 264.294 135.895C263.814 134.983 263.142 134.287 262.278 133.807C261.414 133.327 260.442 133.087 259.362 133.087C258.258 133.087 257.274 133.327 256.41 133.807C255.57 134.287 254.898 134.983 254.394 135.895C253.89 136.783 253.638 137.851 253.638 139.099C253.638 140.323 253.89 141.391 254.394 142.303C254.898 143.215 255.57 143.911 256.41 144.391C257.274 144.871 258.246 145.111 259.326 145.111ZM279.829 148.963C278.221 148.963 276.673 148.759 275.185 148.351C273.721 147.919 272.557 147.403 271.693 146.803L273.421 143.383C274.285 143.935 275.317 144.391 276.517 144.751C277.717 145.111 278.917 145.291 280.117 145.291C281.533 145.291 282.553 145.099 283.177 144.715C283.825 144.331 284.149 143.815 284.149 143.167C284.149 142.639 283.933 142.243 283.501 141.979C283.069 141.691 282.505 141.475 281.809 141.331C281.113 141.187 280.333 141.055 279.469 140.935C278.629 140.815 277.777 140.659 276.913 140.467C276.073 140.251 275.305 139.951 274.609 139.567C273.913 139.159 273.349 138.619 272.917 137.947C272.485 137.275 272.269 136.387 272.269 135.283C272.269 134.059 272.617 133.003 273.313 132.115C274.009 131.203 274.981 130.507 276.229 130.027C277.501 129.523 279.001 129.271 280.729 129.271C282.025 129.271 283.333 129.415 284.653 129.703C285.973 129.991 287.065 130.399 287.929 130.927L286.201 134.347C285.289 133.795 284.365 133.423 283.429 133.231C282.517 133.015 281.605 132.907 280.693 132.907C279.325 132.907 278.305 133.111 277.633 133.519C276.985 133.927 276.661 134.443 276.661 135.067C276.661 135.643 276.877 136.075 277.309 136.363C277.741 136.651 278.305 136.879 279.001 137.047C279.697 137.215 280.465 137.359 281.305 137.479C282.169 137.575 283.021 137.731 283.861 137.947C284.701 138.163 285.469 138.463 286.165 138.847C286.885 139.207 287.461 139.723 287.893 140.395C288.325 141.067 288.541 141.943 288.541 143.023C288.541 144.223 288.181 145.267 287.461 146.155C286.765 147.043 285.769 147.739 284.473 148.243C283.177 148.723 281.629 148.963 279.829 148.963ZM298.357 148.963C296.749 148.963 295.201 148.759 293.713 148.351C292.249 147.919 291.085 147.403 290.221 146.803L291.949 143.383C292.813 143.935 293.845 144.391 295.045 144.751C296.245 145.111 297.445 145.291 298.645 145.291C300.061 145.291 301.081 145.099 301.705 144.715C302.353 144.331 302.677 143.815 302.677 143.167C302.677 142.639 302.461 142.243 302.029 141.979C301.597 141.691 301.033 141.475 300.337 141.331C299.641 141.187 298.861 141.055 297.997 140.935C297.157 140.815 296.305 140.659 295.441 140.467C294.601 140.251 293.833 139.951 293.137 139.567C292.441 139.159 291.877 138.619 291.445 137.947C291.013 137.275 290.797 136.387 290.797 135.283C290.797 134.059 291.145 133.003 291.841 132.115C292.537 131.203 293.509 130.507 294.757 130.027C296.029 129.523 297.529 129.271 299.257 129.271C300.553 129.271 301.861 129.415 303.181 129.703C304.501 129.991 305.593 130.399 306.457 130.927L304.729 134.347C303.817 133.795 302.893 133.423 301.957 133.231C301.045 133.015 300.133 132.907 299.221 132.907C297.853 132.907 296.833 133.111 296.161 133.519C295.513 133.927 295.189 134.443 295.189 135.067C295.189 135.643 295.405 136.075 295.837 136.363C296.269 136.651 296.833 136.879 297.529 137.047C298.225 137.215 298.993 137.359 299.833 137.479C300.697 137.575 301.549 137.731 302.389 137.947C303.229 138.163 303.997 138.463 304.693 138.847C305.413 139.207 305.989 139.723 306.421 140.395C306.853 141.067 307.069 141.943 307.069 143.023C307.069 144.223 306.709 145.267 305.989 146.155C305.293 147.043 304.297 147.739 303.001 148.243C301.705 148.723 300.157 148.963 298.357 148.963ZM322.788 148.711V144.823L322.536 143.995V137.191C322.536 135.871 322.14 134.851 321.348 134.131C320.556 133.387 319.356 133.015 317.748 133.015C316.668 133.015 315.6 133.183 314.544 133.519C313.512 133.855 312.636 134.323 311.916 134.923L310.152 131.647C311.184 130.855 312.408 130.267 313.824 129.883C315.264 129.475 316.752 129.271 318.288 129.271C321.072 129.271 323.22 129.943 324.732 131.287C326.268 132.607 327.036 134.659 327.036 137.443V148.711H322.788ZM316.74 148.963C315.3 148.963 314.04 148.723 312.96 148.243C311.88 147.739 311.04 147.055 310.44 146.191C309.864 145.303 309.576 144.307 309.576 143.203C309.576 142.123 309.828 141.151 310.332 140.287C310.86 139.423 311.712 138.739 312.888 138.235C314.064 137.731 315.624 137.479 317.568 137.479H323.148V140.467H317.892C316.356 140.467 315.324 140.719 314.796 141.223C314.268 141.703 314.004 142.303 314.004 143.023C314.004 143.839 314.328 144.487 314.976 144.967C315.624 145.447 316.524 145.687 317.676 145.687C318.78 145.687 319.764 145.435 320.628 144.931C321.516 144.427 322.152 143.683 322.536 142.699L323.292 145.399C322.86 146.527 322.08 147.403 320.952 148.027C319.848 148.651 318.444 148.963 316.74 148.963ZM367.025 129.271C368.561 129.271 369.917 129.571 371.093 130.171C372.293 130.771 373.229 131.695 373.901 132.943C374.573 134.167 374.909 135.751 374.909 137.695V148.711H370.409V138.271C370.409 136.567 370.037 135.295 369.293 134.455C368.549 133.615 367.481 133.195 366.089 133.195C365.105 133.195 364.229 133.411 363.461 133.843C362.717 134.275 362.129 134.911 361.697 135.751C361.289 136.591 361.085 137.659 361.085 138.955V148.711H356.585V138.271C356.585 136.567 356.213 135.295 355.469 134.455C354.725 133.615 353.657 133.195 352.265 133.195C351.281 133.195 350.405 133.411 349.637 133.843C348.893 134.275 348.305 134.911 347.873 135.751C347.465 136.591 347.261 137.659 347.261 138.955V148.711H342.761V129.487H347.045V134.599L346.289 133.087C346.937 131.839 347.873 130.891 349.097 130.243C350.345 129.595 351.761 129.271 353.345 129.271C355.145 129.271 356.705 129.715 358.025 130.603C359.369 131.491 360.257 132.835 360.689 134.635L358.925 134.023C359.549 132.583 360.581 131.431 362.021 130.567C363.461 129.703 365.129 129.271 367.025 129.271ZM392.503 148.711V144.823L392.251 143.995V137.191C392.251 135.871 391.855 134.851 391.063 134.131C390.271 133.387 389.071 133.015 387.463 133.015C386.383 133.015 385.315 133.183 384.259 133.519C383.227 133.855 382.351 134.323 381.631 134.923L379.867 131.647C380.899 130.855 382.123 130.267 383.539 129.883C384.979 129.475 386.467 129.271 388.003 129.271C390.787 129.271 392.935 129.943 394.447 131.287C395.983 132.607 396.751 134.659 396.751 137.443V148.711H392.503ZM386.455 148.963C385.015 148.963 383.755 148.723 382.675 148.243C381.595 147.739 380.755 147.055 380.155 146.191C379.579 145.303 379.291 144.307 379.291 143.203C379.291 142.123 379.543 141.151 380.047 140.287C380.575 139.423 381.427 138.739 382.603 138.235C383.779 137.731 385.339 137.479 387.283 137.479H392.863V140.467H387.607C386.071 140.467 385.039 140.719 384.511 141.223C383.983 141.703 383.719 142.303 383.719 143.023C383.719 143.839 384.043 144.487 384.691 144.967C385.339 145.447 386.239 145.687 387.391 145.687C388.495 145.687 389.479 145.435 390.343 144.931C391.231 144.427 391.867 143.683 392.251 142.699L393.007 145.399C392.575 146.527 391.795 147.403 390.667 148.027C389.563 148.651 388.159 148.963 386.455 148.963ZM402.526 148.711V129.487H406.81V134.779L406.306 133.231C406.882 131.935 407.782 130.951 409.006 130.279C410.254 129.607 411.802 129.271 413.65 129.271V133.555C413.458 133.507 413.278 133.483 413.11 133.483C412.942 133.459 412.774 133.447 412.606 133.447C410.902 133.447 409.546 133.951 408.538 134.959C407.53 135.943 407.026 137.419 407.026 139.387V148.711H402.526ZM426.112 148.963C424.096 148.963 422.296 148.543 420.712 147.703C419.152 146.839 417.928 145.663 417.04 144.175C416.152 142.687 415.708 140.995 415.708 139.099C415.708 137.179 416.152 135.487 417.04 134.023C417.928 132.535 419.152 131.371 420.712 130.531C422.296 129.691 424.096 129.271 426.112 129.271C427.984 129.271 429.628 129.655 431.044 130.423C432.484 131.167 433.576 132.271 434.32 133.735L430.864 135.751C430.288 134.839 429.58 134.167 428.74 133.735C427.924 133.303 427.036 133.087 426.076 133.087C424.972 133.087 423.976 133.327 423.088 133.807C422.2 134.287 421.504 134.983 421 135.895C420.496 136.783 420.244 137.851 420.244 139.099C420.244 140.347 420.496 141.427 421 142.339C421.504 143.227 422.2 143.911 423.088 144.391C423.976 144.871 424.972 145.111 426.076 145.111C427.036 145.111 427.924 144.895 428.74 144.463C429.58 144.031 430.288 143.359 430.864 142.447L434.32 144.463C433.576 145.903 432.484 147.019 431.044 147.811C429.628 148.579 427.984 148.963 426.112 148.963ZM450.054 148.711V144.823L449.802 143.995V137.191C449.802 135.871 449.406 134.851 448.614 134.131C447.822 133.387 446.622 133.015 445.014 133.015C443.934 133.015 442.866 133.183 441.81 133.519C440.778 133.855 439.902 134.323 439.182 134.923L437.418 131.647C438.45 130.855 439.674 130.267 441.09 129.883C442.53 129.475 444.018 129.271 445.554 129.271C448.338 129.271 450.486 129.943 451.998 131.287C453.534 132.607 454.302 134.659 454.302 137.443V148.711H450.054ZM444.006 148.963C442.566 148.963 441.306 148.723 440.226 148.243C439.146 147.739 438.306 147.055 437.706 146.191C437.13 145.303 436.842 144.307 436.842 143.203C436.842 142.123 437.094 141.151 437.598 140.287C438.126 139.423 438.978 138.739 440.154 138.235C441.33 137.731 442.89 137.479 444.834 137.479H450.414V140.467H445.158C443.622 140.467 442.59 140.719 442.062 141.223C441.534 141.703 441.27 142.303 441.27 143.023C441.27 143.839 441.594 144.487 442.242 144.967C442.89 145.447 443.79 145.687 444.942 145.687C446.046 145.687 447.03 145.435 447.894 144.931C448.782 144.427 449.418 143.683 449.802 142.699L450.558 145.399C450.126 146.527 449.346 147.403 448.218 148.027C447.114 148.651 445.71 148.963 444.006 148.963ZM461.517 148.963C460.701 148.963 460.005 148.687 459.429 148.135C458.853 147.559 458.565 146.839 458.565 145.975C458.565 145.063 458.853 144.343 459.429 143.815C460.005 143.263 460.701 142.987 461.517 142.987C462.333 142.987 463.029 143.263 463.605 143.815C464.181 144.343 464.469 145.063 464.469 145.975C464.469 146.839 464.181 147.559 463.605 148.135C463.029 148.687 462.333 148.963 461.517 148.963Z"
      fill="white" />
  </g>
  <g filter="url(#filter1_i_17_80)">
    <path
      d="M163.884 113.635C160.684 113.635 157.884 113.043 155.484 111.859C153.116 110.675 151.276 109.059 149.964 107.011C148.652 104.931 147.996 102.595 147.996 100.003C147.996 97.3465 148.636 94.9945 149.916 92.9465C151.228 90.8985 153.004 89.2985 155.244 88.1465C157.516 86.9945 160.06 86.4185 162.876 86.4185C165.468 86.4185 167.852 86.9305 170.028 87.9545C172.236 88.9785 173.996 90.4985 175.308 92.5145C176.652 94.5305 177.324 97.0265 177.324 100.003C177.324 100.387 177.308 100.819 177.276 101.299C177.244 101.747 177.212 102.163 177.18 102.547H156.972V97.3145H171.42L167.34 98.7065C167.34 97.6825 167.148 96.8185 166.764 96.1145C166.412 95.3785 165.916 94.8185 165.276 94.4345C164.636 94.0185 163.868 93.8105 162.972 93.8105C162.076 93.8105 161.292 94.0185 160.62 94.4345C159.98 94.8185 159.484 95.3785 159.132 96.1145C158.78 96.8185 158.604 97.6825 158.604 98.7065V100.339C158.604 101.459 158.828 102.419 159.276 103.219C159.724 104.019 160.364 104.627 161.196 105.043C162.028 105.427 163.036 105.619 164.22 105.619C165.436 105.619 166.428 105.459 167.196 105.139C167.996 104.819 168.828 104.339 169.692 103.699L175.356 109.411C174.076 110.787 172.492 111.843 170.604 112.579C168.748 113.283 166.508 113.635 163.884 113.635ZM177.212 113.155L189.596 96.9305L189.308 103.171L177.5 86.8985H189.74L195.548 95.5865L191.036 95.9225L197.42 86.8985H208.796L196.94 102.643V96.6425L209.036 113.155H196.604L190.604 103.891L195.164 104.515L188.972 113.155H177.212ZM224.391 113.635C221.383 113.635 218.711 113.059 216.375 111.907C214.039 110.755 212.199 109.155 210.855 107.107C209.543 105.027 208.887 102.659 208.887 100.003C208.887 97.3465 209.543 94.9945 210.855 92.9465C212.199 90.8985 214.039 89.2985 216.375 88.1465C218.711 86.9945 221.383 86.4185 224.391 86.4185C227.591 86.4185 230.327 87.1065 232.599 88.4825C234.871 89.8585 236.439 91.7625 237.303 94.1945L228.903 98.3225C228.359 97.1065 227.687 96.2265 226.887 95.6825C226.119 95.1385 225.271 94.8665 224.343 94.8665C223.543 94.8665 222.791 95.0585 222.087 95.4425C221.415 95.8265 220.871 96.4025 220.455 97.1705C220.071 97.9065 219.879 98.8505 219.879 100.003C219.879 101.155 220.071 102.115 220.455 102.883C220.871 103.651 221.415 104.227 222.087 104.611C222.791 104.995 223.543 105.187 224.343 105.187C225.271 105.187 226.119 104.915 226.887 104.371C227.687 103.827 228.359 102.947 228.903 101.731L237.303 105.859C236.439 108.291 234.871 110.195 232.599 111.571C230.327 112.947 227.591 113.635 224.391 113.635ZM254.072 113.635C250.872 113.635 248.072 113.043 245.672 111.859C243.304 110.675 241.464 109.059 240.152 107.011C238.84 104.931 238.184 102.595 238.184 100.003C238.184 97.3465 238.824 94.9945 240.104 92.9465C241.416 90.8985 243.192 89.2985 245.432 88.1465C247.704 86.9945 250.248 86.4185 253.064 86.4185C255.656 86.4185 258.04 86.9305 260.216 87.9545C262.424 88.9785 264.184 90.4985 265.496 92.5145C266.84 94.5305 267.512 97.0265 267.512 100.003C267.512 100.387 267.496 100.819 267.464 101.299C267.432 101.747 267.4 102.163 267.368 102.547H247.16V97.3145H261.608L257.528 98.7065C257.528 97.6825 257.336 96.8185 256.952 96.1145C256.6 95.3785 256.104 94.8185 255.464 94.4345C254.824 94.0185 254.056 93.8105 253.16 93.8105C252.264 93.8105 251.48 94.0185 250.808 94.4345C250.168 94.8185 249.672 95.3785 249.32 96.1145C248.968 96.8185 248.792 97.6825 248.792 98.7065V100.339C248.792 101.459 249.016 102.419 249.464 103.219C249.912 104.019 250.552 104.627 251.384 105.043C252.216 105.427 253.224 105.619 254.408 105.619C255.624 105.619 256.616 105.459 257.384 105.139C258.184 104.819 259.016 104.339 259.88 103.699L265.544 109.411C264.264 110.787 262.68 111.843 260.792 112.579C258.936 113.283 256.696 113.635 254.072 113.635ZM270.935 113.155V77.5385H281.783V113.155H270.935ZM301.087 113.635C297.887 113.635 295.087 113.043 292.687 111.859C290.319 110.675 288.479 109.059 287.167 107.011C285.855 104.931 285.199 102.595 285.199 100.003C285.199 97.3465 285.839 94.9945 287.119 92.9465C288.431 90.8985 290.207 89.2985 292.447 88.1465C294.719 86.9945 297.263 86.4185 300.079 86.4185C302.671 86.4185 305.055 86.9305 307.231 87.9545C309.439 88.9785 311.199 90.4985 312.511 92.5145C313.855 94.5305 314.527 97.0265 314.527 100.003C314.527 100.387 314.511 100.819 314.479 101.299C314.447 101.747 314.415 102.163 314.383 102.547H294.175V97.3145H308.623L304.543 98.7065C304.543 97.6825 304.351 96.8185 303.967 96.1145C303.615 95.3785 303.119 94.8185 302.479 94.4345C301.839 94.0185 301.071 93.8105 300.175 93.8105C299.279 93.8105 298.495 94.0185 297.823 94.4345C297.183 94.8185 296.687 95.3785 296.335 96.1145C295.983 96.8185 295.807 97.6825 295.807 98.7065V100.339C295.807 101.459 296.031 102.419 296.479 103.219C296.927 104.019 297.567 104.627 298.399 105.043C299.231 105.427 300.239 105.619 301.423 105.619C302.639 105.619 303.631 105.459 304.399 105.139C305.199 104.819 306.031 104.339 306.895 103.699L312.559 109.411C311.279 110.787 309.695 111.843 307.807 112.579C305.951 113.283 303.711 113.635 301.087 113.635ZM289.135 84.0185L295.279 76.3385H304.495L310.639 84.0185H303.919L297.103 77.7785H302.671L295.855 84.0185H289.135ZM336.191 86.4185C338.207 86.4185 340.031 86.8345 341.663 87.6665C343.295 88.4665 344.575 89.7305 345.503 91.4585C346.463 93.1865 346.943 95.4265 346.943 98.1785V113.155H336.095V100.051C336.095 98.4185 335.807 97.2665 335.231 96.5945C334.655 95.8905 333.871 95.5385 332.879 95.5385C332.143 95.5385 331.455 95.7145 330.815 96.0665C330.207 96.3865 329.711 96.9305 329.327 97.6985C328.975 98.4665 328.799 99.5065 328.799 100.819V113.155H317.951V86.8985H328.271V94.5785L326.207 92.3705C327.231 90.3865 328.607 88.8985 330.335 87.9065C332.095 86.9145 334.047 86.4185 336.191 86.4185ZM366.234 113.635C363.226 113.635 360.554 113.059 358.218 111.907C355.882 110.755 354.042 109.155 352.698 107.107C351.386 105.027 350.73 102.659 350.73 100.003C350.73 97.3465 351.386 94.9945 352.698 92.9465C354.042 90.8985 355.882 89.2985 358.218 88.1465C360.554 86.9945 363.226 86.4185 366.234 86.4185C369.434 86.4185 372.17 87.1065 374.442 88.4825C376.714 89.8585 378.282 91.7625 379.146 94.1945L370.746 98.3225C370.202 97.1065 369.53 96.2265 368.73 95.6825C367.962 95.1385 367.114 94.8665 366.186 94.8665C365.386 94.8665 364.634 95.0585 363.93 95.4425C363.258 95.8265 362.714 96.4025 362.298 97.1705C361.914 97.9065 361.722 98.8505 361.722 100.003C361.722 101.155 361.914 102.115 362.298 102.883C362.714 103.651 363.258 104.227 363.93 104.611C364.634 104.995 365.386 105.187 366.186 105.187C367.114 105.187 367.962 104.915 368.73 104.371C369.53 103.827 370.202 102.947 370.746 101.731L379.146 105.859C378.282 108.291 376.714 110.195 374.442 111.571C372.17 112.947 369.434 113.635 366.234 113.635ZM381.654 113.155V86.8985H392.502V113.155H381.654ZM387.078 84.7865C385.094 84.7865 383.51 84.2585 382.326 83.2025C381.142 82.1465 380.55 80.8345 380.55 79.2665C380.55 77.6985 381.142 76.3865 382.326 75.3305C383.51 74.2745 385.094 73.7465 387.078 73.7465C389.062 73.7465 390.646 74.2425 391.83 75.2345C393.014 76.2265 393.606 77.5065 393.606 79.0745C393.606 80.7385 393.014 82.1145 391.83 83.2025C390.646 84.2585 389.062 84.7865 387.078 84.7865ZM413.198 113.155V108.499L412.43 107.251V98.4185C412.43 97.1385 412.03 96.1625 411.23 95.4905C410.462 94.8185 409.198 94.4825 407.438 94.4825C406.254 94.4825 405.054 94.6745 403.838 95.0585C402.622 95.4105 401.582 95.9065 400.718 96.5465L397.262 89.3945C398.798 88.4345 400.638 87.6985 402.782 87.1865C404.926 86.6745 407.022 86.4185 409.07 86.4185C413.582 86.4185 417.07 87.4265 419.534 89.4425C422.03 91.4585 423.278 94.6585 423.278 99.0425V113.155H413.198ZM405.758 113.635C403.614 113.635 401.822 113.267 400.382 112.531C398.942 111.795 397.854 110.819 397.118 109.603C396.382 108.355 396.014 106.979 396.014 105.475C396.014 103.779 396.446 102.339 397.31 101.155C398.174 99.9705 399.486 99.0745 401.246 98.4665C403.038 97.8585 405.294 97.5545 408.014 97.5545H413.486V102.787H409.742C408.59 102.787 407.742 102.979 407.198 103.363C406.686 103.715 406.43 104.259 406.43 104.995C406.43 105.603 406.654 106.115 407.102 106.531C407.582 106.915 408.222 107.107 409.022 107.107C409.758 107.107 410.43 106.915 411.038 106.531C411.678 106.115 412.142 105.475 412.43 104.611L413.822 107.827C413.406 109.779 412.526 111.235 411.182 112.195C409.838 113.155 408.03 113.635 405.758 113.635Z"
      fill="white" />
  </g>
  <g filter="url(#filter2_i_17_80)">
    <path
      d="M164.025 68.3074C161.305 68.3074 158.777 67.8754 156.441 67.0114C154.137 66.1474 152.137 64.9314 150.441 63.3634C148.745 61.7634 147.417 59.8914 146.457 57.7474C145.529 55.6034 145.065 53.2674 145.065 50.7394C145.065 48.1794 145.529 45.8434 146.457 43.7314C147.417 41.5874 148.745 39.7314 150.441 38.1634C152.137 36.5634 154.137 35.3314 156.441 34.4674C158.777 33.6034 161.305 33.1714 164.025 33.1714C166.777 33.1714 169.305 33.6034 171.609 34.4674C173.913 35.3314 175.913 36.5634 177.609 38.1634C179.305 39.7314 180.617 41.5874 181.545 43.7314C182.505 45.8434 182.985 48.1794 182.985 50.7394C182.985 53.2674 182.505 55.6034 181.545 57.7474C180.617 59.8914 179.305 61.7634 177.609 63.3634C175.913 64.9314 173.913 66.1474 171.609 67.0114C169.305 67.8754 166.777 68.3074 164.025 68.3074ZM175.017 76.0354C173.449 76.0354 171.993 75.8754 170.649 75.5554C169.305 75.2674 167.993 74.7714 166.713 74.0674C165.465 73.3634 164.153 72.3874 162.777 71.1394C161.401 69.9234 159.865 68.4034 158.169 66.5794L169.881 63.6994C170.649 64.8834 171.305 65.7954 171.849 66.4354C172.393 67.0754 172.921 67.5234 173.433 67.7794C173.977 68.0354 174.585 68.1634 175.257 68.1634C176.921 68.1634 178.473 67.4434 179.913 66.0034L184.809 71.7634C182.409 74.6114 179.145 76.0354 175.017 76.0354ZM164.025 59.1394C165.081 59.1394 166.057 58.9474 166.953 58.5634C167.881 58.1794 168.681 57.6354 169.353 56.9314C170.057 56.1954 170.601 55.3154 170.985 54.2914C171.369 53.2354 171.561 52.0514 171.561 50.7394C171.561 49.4274 171.369 48.2594 170.985 47.2354C170.601 46.1794 170.057 45.2994 169.353 44.5954C168.681 43.8594 167.881 43.2994 166.953 42.9154C166.057 42.5314 165.081 42.3394 164.025 42.3394C162.969 42.3394 161.977 42.5314 161.049 42.9154C160.153 43.2994 159.353 43.8594 158.649 44.5954C157.977 45.2994 157.449 46.1794 157.065 47.2354C156.681 48.2594 156.489 49.4274 156.489 50.7394C156.489 52.0514 156.681 53.2354 157.065 54.2914C157.449 55.3154 157.977 56.1954 158.649 56.9314C159.353 57.6354 160.153 58.1794 161.049 58.5634C161.977 58.9474 162.969 59.1394 164.025 59.1394ZM197.704 68.0194C195.624 68.0194 193.736 67.6034 192.04 66.7714C190.376 65.9074 189.064 64.5794 188.104 62.7874C187.144 60.9634 186.664 58.6274 186.664 55.7794V41.2834H197.512V53.9074C197.512 55.7634 197.816 57.0594 198.424 57.7954C199.032 58.5314 199.864 58.8994 200.92 58.8994C201.56 58.8994 202.152 58.7394 202.696 58.4194C203.272 58.0674 203.736 57.5074 204.088 56.7394C204.44 55.9394 204.616 54.8994 204.616 53.6194V41.2834H215.464V67.5394H205.144V59.9554L207.208 62.0194C206.28 64.0674 204.952 65.5874 203.224 66.5794C201.528 67.5394 199.688 68.0194 197.704 68.0194ZM236.164 67.5394V62.8834L235.396 61.6354V52.8034C235.396 51.5234 234.996 50.5474 234.196 49.8754C233.428 49.2034 232.164 48.8674 230.404 48.8674C229.22 48.8674 228.02 49.0594 226.804 49.4434C225.588 49.7954 224.548 50.2914 223.684 50.9314L220.228 43.7794C221.764 42.8194 223.604 42.0834 225.748 41.5714C227.892 41.0594 229.988 40.8034 232.036 40.8034C236.548 40.8034 240.036 41.8114 242.5 43.8274C244.996 45.8434 246.244 49.0434 246.244 53.4274V67.5394H236.164ZM228.724 68.0194C226.58 68.0194 224.788 67.6514 223.348 66.9154C221.908 66.1794 220.82 65.2034 220.084 63.9874C219.348 62.7394 218.98 61.3634 218.98 59.8594C218.98 58.1634 219.412 56.7234 220.276 55.5394C221.14 54.3554 222.452 53.4594 224.212 52.8514C226.004 52.2434 228.26 51.9394 230.98 51.9394H236.452V57.1714H232.708C231.556 57.1714 230.708 57.3634 230.164 57.7474C229.652 58.0994 229.396 58.6434 229.396 59.3794C229.396 59.9874 229.62 60.4994 230.068 60.9154C230.548 61.2994 231.188 61.4914 231.988 61.4914C232.724 61.4914 233.396 61.2994 234.004 60.9154C234.644 60.4994 235.108 59.8594 235.396 58.9954L236.788 62.2114C236.372 64.1634 235.492 65.6194 234.148 66.5794C232.804 67.5394 230.996 68.0194 228.724 68.0194ZM250.932 67.5394V31.9234H261.78V67.5394H250.932ZM266.588 67.5394V41.2834H277.436V67.5394H266.588ZM272.012 39.1714C270.028 39.1714 268.444 38.6434 267.26 37.5874C266.076 36.5314 265.484 35.2194 265.484 33.6514C265.484 32.0834 266.076 30.7714 267.26 29.7154C268.444 28.6594 270.028 28.1314 272.012 28.1314C273.996 28.1314 275.58 28.6274 276.764 29.6194C277.948 30.6114 278.54 31.8914 278.54 33.4594C278.54 35.1234 277.948 36.4994 276.764 37.5874C275.58 38.6434 273.996 39.1714 272.012 39.1714ZM293.765 68.0194C291.493 68.0194 289.381 67.4754 287.429 66.3874C285.509 65.2674 283.973 63.6994 282.821 61.6834C281.669 59.6354 281.093 57.2034 281.093 54.3874C281.093 51.5714 281.669 49.1554 282.821 47.1394C283.973 45.0914 285.509 43.5234 287.429 42.4354C289.381 41.3474 291.493 40.8034 293.765 40.8034C296.069 40.8034 297.957 41.2994 299.429 42.2914C300.901 43.2514 301.989 44.7394 302.693 46.7554C303.397 48.7394 303.749 51.2834 303.749 54.3874C303.749 57.5234 303.413 60.0994 302.741 62.1154C302.101 64.1314 301.045 65.6194 299.573 66.5794C298.133 67.5394 296.197 68.0194 293.765 68.0194ZM296.357 59.5714C297.157 59.5714 297.877 59.3794 298.517 58.9954C299.157 58.6114 299.669 58.0354 300.053 57.2674C300.437 56.4674 300.629 55.5074 300.629 54.3874C300.629 53.2354 300.437 52.2914 300.053 51.5554C299.669 50.7874 299.157 50.2114 298.517 49.8274C297.877 49.4434 297.157 49.2514 296.357 49.2514C295.557 49.2514 294.837 49.4434 294.197 49.8274C293.557 50.2114 293.045 50.7874 292.661 51.5554C292.277 52.2914 292.085 53.2354 292.085 54.3874C292.085 55.5074 292.277 56.4674 292.661 57.2674C293.045 58.0354 293.557 58.6114 294.197 58.9954C294.837 59.3794 295.557 59.5714 296.357 59.5714ZM300.965 67.5394V63.9874L300.917 54.3874L300.437 44.7874V31.9234H311.285V67.5394H300.965ZM331.976 67.5394V62.8834L331.208 61.6354V52.8034C331.208 51.5234 330.808 50.5474 330.008 49.8754C329.24 49.2034 327.976 48.8674 326.216 48.8674C325.032 48.8674 323.832 49.0594 322.616 49.4434C321.4 49.7954 320.36 50.2914 319.496 50.9314L316.04 43.7794C317.576 42.8194 319.416 42.0834 321.56 41.5714C323.704 41.0594 325.8 40.8034 327.848 40.8034C332.36 40.8034 335.848 41.8114 338.312 43.8274C340.808 45.8434 342.056 49.0434 342.056 53.4274V67.5394H331.976ZM324.536 68.0194C322.392 68.0194 320.6 67.6514 319.16 66.9154C317.72 66.1794 316.632 65.2034 315.896 63.9874C315.16 62.7394 314.792 61.3634 314.792 59.8594C314.792 58.1634 315.224 56.7234 316.088 55.5394C316.952 54.3554 318.264 53.4594 320.024 52.8514C321.816 52.2434 324.072 51.9394 326.792 51.9394H332.264V57.1714H328.52C327.368 57.1714 326.52 57.3634 325.976 57.7474C325.464 58.0994 325.208 58.6434 325.208 59.3794C325.208 59.9874 325.432 60.4994 325.88 60.9154C326.36 61.2994 327 61.4914 327.8 61.4914C328.536 61.4914 329.208 61.2994 329.816 60.9154C330.456 60.4994 330.92 59.8594 331.208 58.9954L332.6 62.2114C332.184 64.1634 331.304 65.6194 329.96 66.5794C328.616 67.5394 326.808 68.0194 324.536 68.0194ZM358.733 68.0194C356.461 68.0194 354.349 67.4754 352.397 66.3874C350.477 65.2674 348.941 63.6994 347.789 61.6834C346.637 59.6354 346.061 57.2034 346.061 54.3874C346.061 51.5714 346.637 49.1554 347.789 47.1394C348.941 45.0914 350.477 43.5234 352.397 42.4354C354.349 41.3474 356.461 40.8034 358.733 40.8034C361.037 40.8034 362.925 41.2994 364.397 42.2914C365.869 43.2514 366.957 44.7394 367.661 46.7554C368.365 48.7394 368.717 51.2834 368.717 54.3874C368.717 57.5234 368.381 60.0994 367.709 62.1154C367.069 64.1314 366.013 65.6194 364.541 66.5794C363.101 67.5394 361.165 68.0194 358.733 68.0194ZM361.325 59.5714C362.125 59.5714 362.845 59.3794 363.485 58.9954C364.125 58.6114 364.637 58.0354 365.021 57.2674C365.405 56.4674 365.597 55.5074 365.597 54.3874C365.597 53.2354 365.405 52.2914 365.021 51.5554C364.637 50.7874 364.125 50.2114 363.485 49.8274C362.845 49.4434 362.125 49.2514 361.325 49.2514C360.525 49.2514 359.805 49.4434 359.165 49.8274C358.525 50.2114 358.013 50.7874 357.629 51.5554C357.245 52.2914 357.053 53.2354 357.053 54.3874C357.053 55.5074 357.245 56.4674 357.629 57.2674C358.013 58.0354 358.525 58.6114 359.165 58.9954C359.805 59.3794 360.525 59.5714 361.325 59.5714ZM365.933 67.5394V63.9874L365.885 54.3874L365.405 44.7874V31.9234H376.253V67.5394H365.933ZM395.553 68.0194C392.353 68.0194 389.553 67.4274 387.153 66.2434C384.785 65.0594 382.945 63.4434 381.633 61.3954C380.321 59.3154 379.665 56.9794 379.665 54.3874C379.665 51.7314 380.305 49.3794 381.585 47.3314C382.897 45.2834 384.673 43.6834 386.913 42.5314C389.185 41.3794 391.729 40.8034 394.545 40.8034C397.137 40.8034 399.521 41.3154 401.697 42.3394C403.905 43.3634 405.665 44.8834 406.977 46.8994C408.321 48.9154 408.993 51.4114 408.993 54.3874C408.993 54.7714 408.977 55.2034 408.945 55.6834C408.913 56.1314 408.881 56.5474 408.849 56.9314H388.641V51.6994H403.089L399.009 53.0914C399.009 52.0674 398.817 51.2034 398.433 50.4994C398.081 49.7634 397.585 49.2034 396.945 48.8194C396.305 48.4034 395.537 48.1954 394.641 48.1954C393.745 48.1954 392.961 48.4034 392.289 48.8194C391.649 49.2034 391.153 49.7634 390.801 50.4994C390.449 51.2034 390.273 52.0674 390.273 53.0914V54.7234C390.273 55.8434 390.497 56.8034 390.945 57.6034C391.393 58.4034 392.033 59.0114 392.865 59.4274C393.697 59.8114 394.705 60.0034 395.889 60.0034C397.105 60.0034 398.097 59.8434 398.865 59.5234C399.665 59.2034 400.497 58.7234 401.361 58.0834L407.025 63.7954C405.745 65.1714 404.161 66.2274 402.273 66.9634C400.417 67.6674 398.177 68.0194 395.553 68.0194ZM441.303 68.0194C438.103 68.0194 435.303 67.4274 432.903 66.2434C430.535 65.0594 428.695 63.4434 427.383 61.3954C426.071 59.3154 425.415 56.9794 425.415 54.3874C425.415 51.7314 426.055 49.3794 427.335 47.3314C428.647 45.2834 430.423 43.6834 432.663 42.5314C434.935 41.3794 437.479 40.8034 440.295 40.8034C442.887 40.8034 445.271 41.3154 447.447 42.3394C449.655 43.3634 451.415 44.8834 452.727 46.8994C454.071 48.9154 454.743 51.4114 454.743 54.3874C454.743 54.7714 454.727 55.2034 454.695 55.6834C454.663 56.1314 454.631 56.5474 454.599 56.9314H434.391V51.6994H448.839L444.759 53.0914C444.759 52.0674 444.567 51.2034 444.183 50.4994C443.831 49.7634 443.335 49.2034 442.695 48.8194C442.055 48.4034 441.287 48.1954 440.391 48.1954C439.495 48.1954 438.711 48.4034 438.039 48.8194C437.399 49.2034 436.903 49.7634 436.551 50.4994C436.199 51.2034 436.023 52.0674 436.023 53.0914V54.7234C436.023 55.8434 436.247 56.8034 436.695 57.6034C437.143 58.4034 437.783 59.0114 438.615 59.4274C439.447 59.8114 440.455 60.0034 441.639 60.0034C442.855 60.0034 443.847 59.8434 444.615 59.5234C445.415 59.2034 446.247 58.7234 447.111 58.0834L452.775 63.7954C451.495 65.1714 449.911 66.2274 448.023 66.9634C446.167 67.6674 443.927 68.0194 441.303 68.0194Z"
      fill="white" />
  </g>
  <g filter="url(#filter3_i_17_80)">
    <path fill-rule="evenodd" clip-rule="evenodd"
      d="M187.618 191.216C163.614 191.474 145.913 184.066 133.469 173.681C120.706 163.028 113.407 149.221 110.492 137.374C109.598 133.767 109.128 130.403 109.021 127.424C108.431 107.763 114.855 96.9353 120.966 86.6493C127.113 76.2916 133 66.4095 132.946 49.8534C132.911 39.5315 128.422 30.3142 122.083 22.0601C119.289 18.4358 116.182 15.0354 112.986 11.8109H187.618V0H82.552L94.0942 10.3035C100.464 15.9998 107.523 22.3925 112.794 29.2639C117.702 35.6607 121.194 42.5771 121.211 49.8534C121.247 63.1666 116.182 71.6855 110.889 80.6022C103.924 92.3415 96.5881 104.677 97.3036 127.737C97.4106 131.591 98.0058 135.816 99.0698 140.176C102.489 154.091 111.05 170.261 125.959 182.722C140.332 194.713 160.531 203.26 187.618 202.994V191.215V191.216Z"
      fill="#EC651D" />
  </g>
  <defs>
    <filter id="filter0_i_17_80" x="150.229" y="121.819" width="314.24" height="31.144" filterUnits="userSpaceOnUse"
      color-interpolation-filters="sRGB">
      <feFlood flood-opacity="0" result="BackgroundImageFix" />
      <feBlend mode="normal" in="SourceGraphic" in2="BackgroundImageFix" result="shape" />
      <feColorMatrix in="SourceAlpha" type="matrix" values="0 0 0 0 0 0 0 0 0 0 0 0 0 0 0 0 0 0 127 0"
        result="hardAlpha" />
      <feOffset dy="4" />
      <feGaussianBlur stdDeviation="2" />
      <feComposite in2="hardAlpha" operator="arithmetic" k2="-1" k3="1" />
      <feColorMatrix type="matrix" values="0 0 0 0 0 0 0 0 0 0 0 0 0 0 0 0 0 0 0.25 0" />
      <feBlend mode="normal" in2="shape" result="effect1_innerShadow_17_80" />
    </filter>
    <filter id="filter1_i_17_80" x="147.996" y="73.7465" width="275.282" height="43.888" filterUnits="userSpaceOnUse"
      color-interpolation-filters="sRGB">
      <feFlood flood-opacity="0" result="BackgroundImageFix" />
      <feBlend mode="normal" in="SourceGraphic" in2="BackgroundImageFix" result="shape" />
      <feColorMatrix in="SourceAlpha" type="matrix" values="0 0 0 0 0 0 0 0 0 0 0 0 0 0 0 0 0 0 127 0"
        result="hardAlpha" />
      <feOffset dy="4" />
      <feGaussianBlur stdDeviation="2" />
      <feComposite in2="hardAlpha" operator="arithmetic" k2="-1" k3="1" />
      <feColorMatrix type="matrix" values="0 0 0 0 0 0 0 0 0 0 0 0 0 0 0 0 0 0 0.25 0" />
      <feBlend mode="normal" in2="shape" result="effect1_innerShadow_17_80" />
    </filter>
    <filter id="filter2_i_17_80" x="145.065" y="28.1313" width="309.678" height="51.904" filterUnits="userSpaceOnUse"
      color-interpolation-filters="sRGB">
      <feFlood flood-opacity="0" result="BackgroundImageFix" />
      <feBlend mode="normal" in="SourceGraphic" in2="BackgroundImageFix" result="shape" />
      <feColorMatrix in="SourceAlpha" type="matrix" values="0 0 0 0 0 0 0 0 0 0 0 0 0 0 0 0 0 0 127 0"
        result="hardAlpha" />
      <feOffset dy="4" />
      <feGaussianBlur stdDeviation="2" />
      <feComposite in2="hardAlpha" operator="arithmetic" k2="-1" k3="1" />
      <feColorMatrix type="matrix" values="0 0 0 0 0 0 0 0 0 0 0 0 0 0 0 0 0 0 0.25 0" />
      <feBlend mode="normal" in2="shape" result="effect1_innerShadow_17_80" />
    </filter>
    <filter id="filter3_i_17_80" x="82.552" y="0" width="105.066" height="207" filterUnits="userSpaceOnUse"
      color-interpolation-filters="sRGB">
      <feFlood flood-opacity="0" result="BackgroundImageFix" />
      <feBlend mode="normal" in="SourceGraphic" in2="BackgroundImageFix" result="shape" />
      <feColorMatrix in="SourceAlpha" type="matrix" values="0 0 0 0 0 0 0 0 0 0 0 0 0 0 0 0 0 0 127 0"
        result="hardAlpha" />
      <feOffset dy="4" />
      <feGaussianBlur stdDeviation="2" />
      <feComposite in2="hardAlpha" operator="arithmetic" k2="-1" k3="1" />
      <feColorMatrix type="matrix" values="0 0 0 0 0 0 0 0 0 0 0 0 0 0 0 0 0 0 0.25 0" />
      <feBlend mode="normal" in2="shape" result="effect1_innerShadow_17_80" />
    </filter>
  </defs>
</svg>