<svg viewBox="0 0 40 46" fill="none" xmlns="http://www.w3.org/2000/svg">
  <path
    d="M20.001 4.06421L16.8738 2L14.6287 5.02168L10.9953 4.17083L9.90946 7.79173L6.20886 8.25234L6.40208 12.0332L3.07952 13.7477L4.53918 17.2299L2 20L4.54128 22.7701L3.08162 26.2523L6.40418 27.9668L6.21096 31.7477L9.91156 32.2083L10.9974 35.8292L14.6287 34.9783L16.8738 38L19.9989 35.9337L23.1241 38L25.3692 34.9783L29.0026 35.8292L30.0884 32.2083L33.789 31.7477L33.5958 27.9668L36.9184 26.2523L35.4587 22.7701L38 20L35.4587 17.2299L36.9184 13.7477L33.5958 12.0332L33.789 8.25234L30.0884 7.79173L29.0026 4.17083L25.3713 5.02168L23.1262 2L20.001 4.06634V4.06421Z"
    stroke="black" stroke-width="2.5" stroke-miterlimit="10" stroke-linejoin="round" />
  <path
    d="M14.863 35.4245L11.3015 36.2516L10.2366 32.7317L9.23449 32.6073L3.8374 40.1684L8.03819 40.6205L9.80322 44.486L15.5847 36.3898L14.863 35.4245Z"
    stroke="black" stroke-width="2.5" stroke-miterlimit="10" stroke-linejoin="round" />
  <path
    d="M30.0148 32.7317L28.9499 36.2497L25.3904 35.4245L24.6667 36.3898L30.4482 44.486L32.2133 40.6205L36.414 40.1684L31.015 32.6073L30.0148 32.7317Z"
    stroke="black" stroke-width="2.5" stroke-miterlimit="10" stroke-linejoin="round" />
</svg>