<svg width="44" height="44" viewBox="0 0 44 44" fill="none" xmlns="http://www.w3.org/2000/svg">
<path d="M0 20.1052C0 19.4086 0.132756 18.7453 0.398301 18.0819C1.46048 15.5279 2.9542 13.2393 4.77982 11.1828C8.43106 7.03671 12.9453 4.05153 17.5923 1.16586C18.057 0.867339 18.4554 0.933676 18.8869 1.26536C21.2436 3.12281 23.6335 4.91392 26.0234 6.73819C26.8532 7.3684 27.6831 7.96543 28.5129 8.56247C29.0772 8.13128 29.2431 8.09811 29.8406 8.5293C29.9734 8.62881 30.0729 8.69514 30.2057 8.79465C33.0935 10.8843 35.9813 12.9739 38.8691 15.0635C40.23 16.0254 41.591 16.9873 42.9519 17.916C43.4166 18.2477 43.7153 18.6126 43.7153 19.2428C43.7153 22.0289 43.7153 24.7819 43.7153 27.5681C43.7153 28.7622 43.6157 28.8949 42.4539 29.1934C41.7569 29.3592 41.1926 29.7241 40.7279 30.2548C39.1015 32.2117 40.0308 35.3628 42.4539 36.1588C42.6863 36.2251 42.9518 36.3246 43.1842 36.4241C43.4829 36.5568 43.6489 36.789 43.6489 37.1207C43.6489 38.945 43.6489 40.8024 43.6489 42.6267C43.6489 43.3232 43.151 43.7544 42.4539 43.7544C36.7447 43.7544 31.0355 43.7544 25.3263 43.7544C24.4301 43.7544 24.2309 43.6217 24.1977 42.7262C24.1977 42.2618 23.9986 41.8638 23.6335 41.5653C23.0692 41.0678 22.4054 40.9019 21.6751 41.2004C20.9449 41.499 20.5797 42.096 20.4801 42.8257C20.3805 43.6217 20.2809 43.7544 19.4511 43.7544C13.5096 43.7544 7.568 43.7544 1.62643 43.7544C1.46046 43.7544 1.26129 43.7544 1.09533 43.7544C0.298694 43.6881 0.0663498 43.4559 0.0663498 42.6267C0.0663498 35.0974 0.0663498 27.6013 0.0663498 20.072L0 20.1052ZM16.9284 22.5596C18.8536 22.5596 20.447 21.0671 20.6461 19.1764H13.244C13.41 21.0671 15.0032 22.5596 16.9616 22.5596H16.9284Z" fill="#FF6634"/>
</svg>
