<svg width="45" height="42" viewBox="0 0 45 42" fill="none" xmlns="http://www.w3.org/2000/svg">
<path d="M43.3579 8.96894C40.5696 0.975295 30.6117 -2.40791 23.5416 2.26887C23.2097 2.50105 22.9442 2.50105 22.579 2.33521C21.5168 1.93719 20.4547 1.47282 19.3593 1.24064C10.895 -0.616801 2.66315 4.45801 0.472401 12.8828C-1.05448 18.82 1.20262 25.3543 6.04882 29.0692C6.38075 29.3345 6.77909 29.7325 6.84547 30.0974C7.24379 32.0875 7.97401 33.945 9.20216 35.5702C12.3223 39.65 16.4715 41.5074 21.55 40.9104C26.4626 40.3465 29.9811 37.6598 32.1054 33.1821C33.1012 31.0593 33.4332 28.8038 33.2672 26.4157C33.5328 26.3493 33.7651 26.283 33.9642 26.2167C41.7646 24.326 46.0133 16.5314 43.3579 8.93578V8.96894ZM13.9488 22.7671C15.1769 21.2745 16.7038 20.3458 18.5958 19.9146C18.9609 19.8483 19.1933 19.9146 19.4256 20.2131C20.3882 21.5067 21.4172 22.7671 22.4794 24.0607C19.9235 26.482 15.7412 27.2117 12.4219 25.7523C12.6874 24.6246 13.2185 23.6295 13.9488 22.7671ZM23.1433 14.873C23.1433 14.873 22.8114 14.5744 22.7782 14.4086C22.6122 13.0155 22.8446 11.6556 23.5084 10.3289C24.8694 11.921 25.5996 13.6789 25.8651 15.7354C24.8693 15.4368 24.0063 15.2047 23.1433 14.9061V14.873ZM17.4673 14.873C13.1522 15.9012 9.9656 18.3888 8.0072 22.4023C5.84965 19.8151 5.18579 14.8066 7.90763 10.9922C10.7954 6.94565 15.6748 6.11644 18.9609 7.31051C17.7328 9.63232 17.2017 12.12 17.4673 14.873ZM24.0395 35.0395C20.0895 37.096 15.5089 35.5039 13.6501 32.4192C19.4589 32.9831 24.2719 31.1256 28.1223 26.8469C28.8857 29.5004 27.226 33.3811 24.0063 35.0727L24.0395 35.0395ZM32.7029 21.2745C31.8067 21.5067 31.176 20.8765 31.342 19.9478C31.6739 18.3225 31.7735 16.6972 31.5743 15.0388C31.2092 11.7883 30.0474 8.86944 27.9231 6.38179C27.8235 6.28228 27.7571 6.18278 27.6243 6.01693C30.5121 4.72335 34.0306 5.35356 36.2546 7.54269C38.6777 9.8645 39.4743 13.3472 38.2793 16.3324C37.2503 18.9527 35.3252 20.578 32.6365 21.3077L32.7029 21.2745Z" fill="#FF6634"/>
</svg>
