<svg width="569" height="210" viewBox="0 0 569 210" fill="none" xmlns="http://www.w3.org/2000/svg">
  <g filter="url(#filter0_i_15_137)">
    <path
      d="M150.976 153.252C149.368 153.252 147.82 153.048 146.332 152.64C144.868 152.208 143.704 151.692 142.84 151.092L144.568 147.672C145.432 148.224 146.464 148.68 147.664 149.04C148.864 149.4 150.064 149.58 151.264 149.58C152.68 149.58 153.7 149.388 154.324 149.004C154.972 148.62 155.296 148.104 155.296 147.456C155.296 146.928 155.08 146.532 154.648 146.268C154.216 145.98 153.652 145.764 152.956 145.62C152.26 145.476 151.48 145.344 150.616 145.224C149.776 145.104 148.924 144.948 148.06 144.756C147.22 144.54 146.452 144.24 145.756 143.856C145.06 143.448 144.496 142.908 144.064 142.236C143.632 141.564 143.416 140.676 143.416 139.572C143.416 138.348 143.764 137.292 144.46 136.404C145.156 135.492 146.128 134.796 147.376 134.316C148.648 133.812 150.148 133.56 151.876 133.56C153.172 133.56 154.48 133.704 155.8 133.992C157.12 134.28 158.212 134.688 159.076 135.216L157.348 138.636C156.436 138.084 155.512 137.712 154.576 137.52C153.664 137.304 152.752 137.196 151.84 137.196C150.472 137.196 149.452 137.4 148.78 137.808C148.132 138.216 147.808 138.732 147.808 139.356C147.808 139.932 148.024 140.364 148.456 140.652C148.888 140.94 149.452 141.168 150.148 141.336C150.844 141.504 151.612 141.648 152.452 141.768C153.316 141.864 154.168 142.02 155.008 142.236C155.848 142.452 156.616 142.752 157.312 143.136C158.032 143.496 158.608 144.012 159.04 144.684C159.472 145.356 159.688 146.232 159.688 147.312C159.688 148.512 159.328 149.556 158.608 150.444C157.912 151.332 156.916 152.028 155.62 152.532C154.324 153.012 152.776 153.252 150.976 153.252ZM175.407 153V149.112L175.155 148.284V141.48C175.155 140.16 174.759 139.14 173.967 138.42C173.175 137.676 171.975 137.304 170.367 137.304C169.287 137.304 168.219 137.472 167.163 137.808C166.131 138.144 165.255 138.612 164.535 139.212L162.771 135.936C163.803 135.144 165.027 134.556 166.443 134.172C167.883 133.764 169.371 133.56 170.907 133.56C173.691 133.56 175.839 134.232 177.351 135.576C178.887 136.896 179.655 138.948 179.655 141.732V153H175.407ZM169.359 153.252C167.919 153.252 166.659 153.012 165.579 152.532C164.499 152.028 163.659 151.344 163.059 150.48C162.483 149.592 162.195 148.596 162.195 147.492C162.195 146.412 162.447 145.44 162.951 144.576C163.479 143.712 164.331 143.028 165.507 142.524C166.683 142.02 168.243 141.768 170.187 141.768H175.767V144.756H170.511C168.975 144.756 167.943 145.008 167.415 145.512C166.887 145.992 166.623 146.592 166.623 147.312C166.623 148.128 166.947 148.776 167.595 149.256C168.243 149.736 169.143 149.976 170.295 149.976C171.399 149.976 172.383 149.724 173.247 149.22C174.135 148.716 174.771 147.972 175.155 146.988L175.911 149.688C175.479 150.816 174.699 151.692 173.571 152.316C172.467 152.94 171.063 153.252 169.359 153.252ZM173.895 131.148C173.319 131.148 172.791 131.04 172.311 130.824C171.855 130.584 171.435 130.308 171.051 129.996C170.691 129.66 170.343 129.372 170.007 129.132C169.671 128.892 169.335 128.772 168.999 128.772C168.495 128.772 168.087 128.964 167.775 129.348C167.463 129.732 167.283 130.26 167.235 130.932H164.823C164.871 129.444 165.231 128.268 165.903 127.404C166.599 126.54 167.535 126.108 168.711 126.108C169.287 126.108 169.815 126.228 170.295 126.468C170.775 126.708 171.195 126.984 171.555 127.296C171.939 127.608 172.299 127.884 172.635 128.124C172.971 128.364 173.295 128.484 173.607 128.484C174.111 128.484 174.519 128.304 174.831 127.944C175.167 127.584 175.347 127.08 175.371 126.432H177.783C177.759 127.824 177.399 128.964 176.703 129.852C176.007 130.716 175.071 131.148 173.895 131.148ZM194.106 153.252C192.138 153.252 190.386 152.832 188.85 151.992C187.314 151.128 186.102 149.952 185.214 148.464C184.326 146.976 183.882 145.284 183.882 143.388C183.882 141.468 184.326 139.776 185.214 138.312C186.102 136.824 187.314 135.66 188.85 134.82C190.386 133.98 192.138 133.56 194.106 133.56C196.098 133.56 197.862 133.98 199.398 134.82C200.958 135.66 202.17 136.812 203.034 138.276C203.922 139.74 204.366 141.444 204.366 143.388C204.366 145.284 203.922 146.976 203.034 148.464C202.17 149.952 200.958 151.128 199.398 151.992C197.862 152.832 196.098 153.252 194.106 153.252ZM194.106 149.4C195.21 149.4 196.194 149.16 197.058 148.68C197.922 148.2 198.594 147.504 199.074 146.592C199.578 145.68 199.83 144.612 199.83 143.388C199.83 142.14 199.578 141.072 199.074 140.184C198.594 139.272 197.922 138.576 197.058 138.096C196.194 137.616 195.222 137.376 194.142 137.376C193.038 137.376 192.054 137.616 191.19 138.096C190.35 138.576 189.678 139.272 189.174 140.184C188.67 141.072 188.418 142.14 188.418 143.388C188.418 144.612 188.67 145.68 189.174 146.592C189.678 147.504 190.35 148.2 191.19 148.68C192.054 149.16 193.026 149.4 194.106 149.4ZM229.526 133.56C231.062 133.56 232.43 133.86 233.63 134.46C234.854 135.06 235.814 135.984 236.51 137.232C237.206 138.456 237.554 140.04 237.554 141.984V153H233.054V142.56C233.054 140.856 232.646 139.584 231.83 138.744C231.038 137.904 229.922 137.484 228.482 137.484C227.426 137.484 226.49 137.7 225.674 138.132C224.858 138.564 224.222 139.212 223.766 140.076C223.334 140.916 223.118 141.984 223.118 143.28V153H218.618V133.776H222.902V138.96L222.146 137.376C222.818 136.152 223.79 135.216 225.062 134.568C226.358 133.896 227.846 133.56 229.526 133.56ZM251.938 153.252C249.97 153.252 248.218 152.832 246.682 151.992C245.146 151.128 243.934 149.952 243.046 148.464C242.158 146.976 241.714 145.284 241.714 143.388C241.714 141.468 242.158 139.776 243.046 138.312C243.934 136.824 245.146 135.66 246.682 134.82C248.218 133.98 249.97 133.56 251.938 133.56C253.93 133.56 255.694 133.98 257.23 134.82C258.79 135.66 260.002 136.812 260.866 138.276C261.754 139.74 262.198 141.444 262.198 143.388C262.198 145.284 261.754 146.976 260.866 148.464C260.002 149.952 258.79 151.128 257.23 151.992C255.694 152.832 253.93 153.252 251.938 153.252ZM251.938 149.4C253.042 149.4 254.026 149.16 254.89 148.68C255.754 148.2 256.426 147.504 256.906 146.592C257.41 145.68 257.662 144.612 257.662 143.388C257.662 142.14 257.41 141.072 256.906 140.184C256.426 139.272 255.754 138.576 254.89 138.096C254.026 137.616 253.054 137.376 251.974 137.376C250.87 137.376 249.886 137.616 249.022 138.096C248.182 138.576 247.51 139.272 247.006 140.184C246.502 141.072 246.25 142.14 246.25 143.388C246.25 144.612 246.502 145.68 247.006 146.592C247.51 147.504 248.182 148.2 249.022 148.68C249.886 149.16 250.858 149.4 251.938 149.4ZM272.441 153.252C270.833 153.252 269.285 153.048 267.797 152.64C266.333 152.208 265.169 151.692 264.305 151.092L266.033 147.672C266.897 148.224 267.929 148.68 269.129 149.04C270.329 149.4 271.529 149.58 272.729 149.58C274.145 149.58 275.165 149.388 275.789 149.004C276.437 148.62 276.761 148.104 276.761 147.456C276.761 146.928 276.545 146.532 276.113 146.268C275.681 145.98 275.117 145.764 274.421 145.62C273.725 145.476 272.945 145.344 272.081 145.224C271.241 145.104 270.389 144.948 269.525 144.756C268.685 144.54 267.917 144.24 267.221 143.856C266.525 143.448 265.961 142.908 265.529 142.236C265.097 141.564 264.881 140.676 264.881 139.572C264.881 138.348 265.229 137.292 265.925 136.404C266.621 135.492 267.593 134.796 268.841 134.316C270.113 133.812 271.613 133.56 273.341 133.56C274.637 133.56 275.945 133.704 277.265 133.992C278.585 134.28 279.677 134.688 280.541 135.216L278.813 138.636C277.901 138.084 276.977 137.712 276.041 137.52C275.129 137.304 274.217 137.196 273.305 137.196C271.937 137.196 270.917 137.4 270.245 137.808C269.597 138.216 269.273 138.732 269.273 139.356C269.273 139.932 269.489 140.364 269.921 140.652C270.353 140.94 270.917 141.168 271.613 141.336C272.309 141.504 273.077 141.648 273.917 141.768C274.781 141.864 275.633 142.02 276.473 142.236C277.313 142.452 278.081 142.752 278.777 143.136C279.497 143.496 280.073 144.012 280.505 144.684C280.937 145.356 281.153 146.232 281.153 147.312C281.153 148.512 280.793 149.556 280.073 150.444C279.377 151.332 278.381 152.028 277.085 152.532C275.789 153.012 274.241 153.252 272.441 153.252ZM290.968 153.252C289.36 153.252 287.812 153.048 286.324 152.64C284.86 152.208 283.696 151.692 282.832 151.092L284.56 147.672C285.424 148.224 286.456 148.68 287.656 149.04C288.856 149.4 290.056 149.58 291.256 149.58C292.672 149.58 293.692 149.388 294.316 149.004C294.964 148.62 295.288 148.104 295.288 147.456C295.288 146.928 295.072 146.532 294.64 146.268C294.208 145.98 293.644 145.764 292.948 145.62C292.252 145.476 291.472 145.344 290.608 145.224C289.768 145.104 288.916 144.948 288.052 144.756C287.212 144.54 286.444 144.24 285.748 143.856C285.052 143.448 284.488 142.908 284.056 142.236C283.624 141.564 283.408 140.676 283.408 139.572C283.408 138.348 283.756 137.292 284.452 136.404C285.148 135.492 286.12 134.796 287.368 134.316C288.64 133.812 290.14 133.56 291.868 133.56C293.164 133.56 294.472 133.704 295.792 133.992C297.112 134.28 298.204 134.688 299.068 135.216L297.34 138.636C296.428 138.084 295.504 137.712 294.568 137.52C293.656 137.304 292.744 137.196 291.832 137.196C290.464 137.196 289.444 137.4 288.772 137.808C288.124 138.216 287.8 138.732 287.8 139.356C287.8 139.932 288.016 140.364 288.448 140.652C288.88 140.94 289.444 141.168 290.14 141.336C290.836 141.504 291.604 141.648 292.444 141.768C293.308 141.864 294.16 142.02 295 142.236C295.84 142.452 296.608 142.752 297.304 143.136C298.024 143.496 298.6 144.012 299.032 144.684C299.464 145.356 299.68 146.232 299.68 147.312C299.68 148.512 299.32 149.556 298.6 150.444C297.904 151.332 296.908 152.028 295.612 152.532C294.316 153.012 292.768 153.252 290.968 153.252ZM315.399 153V149.112L315.147 148.284V141.48C315.147 140.16 314.751 139.14 313.959 138.42C313.167 137.676 311.967 137.304 310.359 137.304C309.279 137.304 308.211 137.472 307.155 137.808C306.123 138.144 305.247 138.612 304.527 139.212L302.763 135.936C303.795 135.144 305.019 134.556 306.435 134.172C307.875 133.764 309.363 133.56 310.899 133.56C313.683 133.56 315.831 134.232 317.343 135.576C318.879 136.896 319.647 138.948 319.647 141.732V153H315.399ZM309.351 153.252C307.911 153.252 306.651 153.012 305.571 152.532C304.491 152.028 303.651 151.344 303.051 150.48C302.475 149.592 302.187 148.596 302.187 147.492C302.187 146.412 302.439 145.44 302.943 144.576C303.471 143.712 304.323 143.028 305.499 142.524C306.675 142.02 308.235 141.768 310.179 141.768H315.759V144.756H310.503C308.967 144.756 307.935 145.008 307.407 145.512C306.879 145.992 306.615 146.592 306.615 147.312C306.615 148.128 306.939 148.776 307.587 149.256C308.235 149.736 309.135 149.976 310.287 149.976C311.391 149.976 312.375 149.724 313.239 149.22C314.127 148.716 314.763 147.972 315.147 146.988L315.903 149.688C315.471 150.816 314.691 151.692 313.563 152.316C312.459 152.94 311.055 153.252 309.351 153.252ZM359.636 133.56C361.172 133.56 362.528 133.86 363.704 134.46C364.904 135.06 365.84 135.984 366.512 137.232C367.184 138.456 367.52 140.04 367.52 141.984V153H363.02V142.56C363.02 140.856 362.648 139.584 361.904 138.744C361.16 137.904 360.092 137.484 358.7 137.484C357.716 137.484 356.84 137.7 356.072 138.132C355.328 138.564 354.74 139.2 354.308 140.04C353.9 140.88 353.696 141.948 353.696 143.244V153H349.196V142.56C349.196 140.856 348.824 139.584 348.08 138.744C347.336 137.904 346.268 137.484 344.876 137.484C343.892 137.484 343.016 137.7 342.248 138.132C341.504 138.564 340.916 139.2 340.484 140.04C340.076 140.88 339.872 141.948 339.872 143.244V153H335.372V133.776H339.656V138.888L338.9 137.376C339.548 136.128 340.484 135.18 341.708 134.532C342.956 133.884 344.372 133.56 345.956 133.56C347.756 133.56 349.316 134.004 350.636 134.892C351.98 135.78 352.868 137.124 353.3 138.924L351.536 138.312C352.16 136.872 353.192 135.72 354.632 134.856C356.072 133.992 357.74 133.56 359.636 133.56ZM385.114 153V149.112L384.862 148.284V141.48C384.862 140.16 384.466 139.14 383.674 138.42C382.882 137.676 381.682 137.304 380.074 137.304C378.994 137.304 377.926 137.472 376.87 137.808C375.838 138.144 374.962 138.612 374.242 139.212L372.478 135.936C373.51 135.144 374.734 134.556 376.15 134.172C377.59 133.764 379.078 133.56 380.614 133.56C383.398 133.56 385.546 134.232 387.058 135.576C388.594 136.896 389.362 138.948 389.362 141.732V153H385.114ZM379.066 153.252C377.626 153.252 376.366 153.012 375.286 152.532C374.206 152.028 373.366 151.344 372.766 150.48C372.19 149.592 371.902 148.596 371.902 147.492C371.902 146.412 372.154 145.44 372.658 144.576C373.186 143.712 374.038 143.028 375.214 142.524C376.39 142.02 377.95 141.768 379.894 141.768H385.474V144.756H380.218C378.682 144.756 377.65 145.008 377.122 145.512C376.594 145.992 376.33 146.592 376.33 147.312C376.33 148.128 376.654 148.776 377.302 149.256C377.95 149.736 378.85 149.976 380.002 149.976C381.106 149.976 382.09 149.724 382.954 149.22C383.842 148.716 384.478 147.972 384.862 146.988L385.618 149.688C385.186 150.816 384.406 151.692 383.278 152.316C382.174 152.94 380.77 153.252 379.066 153.252ZM395.137 153V133.776H399.421V139.068L398.917 137.52C399.493 136.224 400.393 135.24 401.617 134.568C402.865 133.896 404.413 133.56 406.261 133.56V137.844C406.069 137.796 405.889 137.772 405.721 137.772C405.553 137.748 405.385 137.736 405.217 137.736C403.513 137.736 402.157 138.24 401.149 139.248C400.141 140.232 399.637 141.708 399.637 143.676V153H395.137ZM418.723 153.252C416.707 153.252 414.907 152.832 413.323 151.992C411.763 151.128 410.539 149.952 409.651 148.464C408.763 146.976 408.319 145.284 408.319 143.388C408.319 141.468 408.763 139.776 409.651 138.312C410.539 136.824 411.763 135.66 413.323 134.82C414.907 133.98 416.707 133.56 418.723 133.56C420.595 133.56 422.239 133.944 423.655 134.712C425.095 135.456 426.187 136.56 426.931 138.024L423.475 140.04C422.899 139.128 422.191 138.456 421.351 138.024C420.535 137.592 419.647 137.376 418.687 137.376C417.583 137.376 416.587 137.616 415.699 138.096C414.811 138.576 414.115 139.272 413.611 140.184C413.107 141.072 412.855 142.14 412.855 143.388C412.855 144.636 413.107 145.716 413.611 146.628C414.115 147.516 414.811 148.2 415.699 148.68C416.587 149.16 417.583 149.4 418.687 149.4C419.647 149.4 420.535 149.184 421.351 148.752C422.191 148.32 422.899 147.648 423.475 146.736L426.931 148.752C426.187 150.192 425.095 151.308 423.655 152.1C422.239 152.868 420.595 153.252 418.723 153.252ZM442.665 153V149.112L442.413 148.284V141.48C442.413 140.16 442.017 139.14 441.225 138.42C440.433 137.676 439.233 137.304 437.625 137.304C436.545 137.304 435.477 137.472 434.421 137.808C433.389 138.144 432.513 138.612 431.793 139.212L430.029 135.936C431.061 135.144 432.285 134.556 433.701 134.172C435.141 133.764 436.629 133.56 438.165 133.56C440.949 133.56 443.097 134.232 444.609 135.576C446.145 136.896 446.913 138.948 446.913 141.732V153H442.665ZM436.617 153.252C435.177 153.252 433.917 153.012 432.837 152.532C431.757 152.028 430.917 151.344 430.317 150.48C429.741 149.592 429.453 148.596 429.453 147.492C429.453 146.412 429.705 145.44 430.209 144.576C430.737 143.712 431.589 143.028 432.765 142.524C433.941 142.02 435.501 141.768 437.445 141.768H443.025V144.756H437.769C436.233 144.756 435.201 145.008 434.673 145.512C434.145 145.992 433.881 146.592 433.881 147.312C433.881 148.128 434.205 148.776 434.853 149.256C435.501 149.736 436.401 149.976 437.553 149.976C438.657 149.976 439.641 149.724 440.505 149.22C441.393 148.716 442.029 147.972 442.413 146.988L443.169 149.688C442.737 150.816 441.957 151.692 440.829 152.316C439.725 152.94 438.321 153.252 436.617 153.252ZM454.128 153.252C453.312 153.252 452.616 152.976 452.04 152.424C451.464 151.848 451.176 151.128 451.176 150.264C451.176 149.352 451.464 148.632 452.04 148.104C452.616 147.552 453.312 147.276 454.128 147.276C454.944 147.276 455.64 147.552 456.216 148.104C456.792 148.632 457.08 149.352 457.08 150.264C457.08 151.128 456.792 151.848 456.216 152.424C455.64 152.976 454.944 153.252 454.128 153.252Z"
      fill="#0E3D59" />
  </g>
  <g filter="url(#filter1_i_15_137)">
    <path
      d="M157.182 116.48C153.982 116.48 151.182 115.888 148.782 114.704C146.414 113.52 144.574 111.904 143.262 109.856C141.95 107.776 141.294 105.44 141.294 102.848C141.294 100.192 141.934 97.84 143.214 95.792C144.526 93.744 146.302 92.144 148.542 90.992C150.814 89.84 153.358 89.264 156.174 89.264C158.766 89.264 161.15 89.776 163.326 90.8C165.534 91.824 167.294 93.344 168.606 95.36C169.95 97.376 170.622 99.872 170.622 102.848C170.622 103.232 170.606 103.664 170.574 104.144C170.542 104.592 170.51 105.008 170.478 105.392H150.27V100.16H164.718L160.638 101.552C160.638 100.528 160.446 99.664 160.062 98.96C159.71 98.224 159.214 97.664 158.574 97.28C157.934 96.864 157.166 96.656 156.27 96.656C155.374 96.656 154.59 96.864 153.918 97.28C153.278 97.664 152.782 98.224 152.43 98.96C152.078 99.664 151.902 100.528 151.902 101.552V103.184C151.902 104.304 152.126 105.264 152.574 106.064C153.022 106.864 153.662 107.472 154.494 107.888C155.326 108.272 156.334 108.464 157.518 108.464C158.734 108.464 159.726 108.304 160.494 107.984C161.294 107.664 162.126 107.184 162.99 106.544L168.654 112.256C167.374 113.632 165.79 114.688 163.902 115.424C162.046 116.128 159.806 116.48 157.182 116.48ZM170.51 116L182.894 99.776L182.606 106.016L170.798 89.744H183.038L188.846 98.432L184.334 98.768L190.718 89.744H202.094L190.238 105.488V99.488L202.334 116H189.902L183.902 106.736L188.462 107.36L182.27 116H170.51ZM217.689 116.48C214.681 116.48 212.009 115.904 209.673 114.752C207.337 113.6 205.497 112 204.153 109.952C202.841 107.872 202.185 105.504 202.185 102.848C202.185 100.192 202.841 97.84 204.153 95.792C205.497 93.744 207.337 92.144 209.673 90.992C212.009 89.84 214.681 89.264 217.689 89.264C220.889 89.264 223.625 89.952 225.897 91.328C228.169 92.704 229.737 94.608 230.601 97.04L222.201 101.168C221.657 99.952 220.985 99.072 220.185 98.528C219.417 97.984 218.569 97.712 217.641 97.712C216.841 97.712 216.089 97.904 215.385 98.288C214.713 98.672 214.169 99.248 213.753 100.016C213.369 100.752 213.177 101.696 213.177 102.848C213.177 104 213.369 104.96 213.753 105.728C214.169 106.496 214.713 107.072 215.385 107.456C216.089 107.84 216.841 108.032 217.641 108.032C218.569 108.032 219.417 107.76 220.185 107.216C220.985 106.672 221.657 105.792 222.201 104.576L230.601 108.704C229.737 111.136 228.169 113.04 225.897 114.416C223.625 115.792 220.889 116.48 217.689 116.48ZM247.37 116.48C244.17 116.48 241.37 115.888 238.97 114.704C236.602 113.52 234.762 111.904 233.45 109.856C232.138 107.776 231.482 105.44 231.482 102.848C231.482 100.192 232.122 97.84 233.402 95.792C234.714 93.744 236.49 92.144 238.73 90.992C241.002 89.84 243.546 89.264 246.362 89.264C248.954 89.264 251.338 89.776 253.514 90.8C255.722 91.824 257.482 93.344 258.794 95.36C260.138 97.376 260.81 99.872 260.81 102.848C260.81 103.232 260.794 103.664 260.762 104.144C260.73 104.592 260.698 105.008 260.666 105.392H240.458V100.16H254.906L250.826 101.552C250.826 100.528 250.634 99.664 250.25 98.96C249.898 98.224 249.402 97.664 248.762 97.28C248.122 96.864 247.354 96.656 246.458 96.656C245.562 96.656 244.778 96.864 244.106 97.28C243.466 97.664 242.97 98.224 242.618 98.96C242.266 99.664 242.09 100.528 242.09 101.552V103.184C242.09 104.304 242.314 105.264 242.762 106.064C243.21 106.864 243.85 107.472 244.682 107.888C245.514 108.272 246.522 108.464 247.706 108.464C248.922 108.464 249.914 108.304 250.682 107.984C251.482 107.664 252.314 107.184 253.178 106.544L258.842 112.256C257.562 113.632 255.978 114.688 254.09 115.424C252.234 116.128 249.994 116.48 247.37 116.48ZM264.233 116V80.384H275.081V116H264.233ZM294.385 116.48C291.185 116.48 288.385 115.888 285.985 114.704C283.617 113.52 281.777 111.904 280.465 109.856C279.153 107.776 278.497 105.44 278.497 102.848C278.497 100.192 279.137 97.84 280.417 95.792C281.729 93.744 283.505 92.144 285.745 90.992C288.017 89.84 290.561 89.264 293.377 89.264C295.969 89.264 298.353 89.776 300.529 90.8C302.737 91.824 304.497 93.344 305.809 95.36C307.153 97.376 307.825 99.872 307.825 102.848C307.825 103.232 307.809 103.664 307.777 104.144C307.745 104.592 307.713 105.008 307.681 105.392H287.473V100.16H301.921L297.841 101.552C297.841 100.528 297.649 99.664 297.265 98.96C296.913 98.224 296.417 97.664 295.777 97.28C295.137 96.864 294.369 96.656 293.473 96.656C292.577 96.656 291.793 96.864 291.121 97.28C290.481 97.664 289.985 98.224 289.633 98.96C289.281 99.664 289.105 100.528 289.105 101.552V103.184C289.105 104.304 289.329 105.264 289.777 106.064C290.225 106.864 290.865 107.472 291.697 107.888C292.529 108.272 293.537 108.464 294.721 108.464C295.937 108.464 296.929 108.304 297.697 107.984C298.497 107.664 299.329 107.184 300.193 106.544L305.857 112.256C304.577 113.632 302.993 114.688 301.105 115.424C299.249 116.128 297.009 116.48 294.385 116.48ZM282.433 86.864L288.577 79.184H297.793L303.937 86.864H297.217L290.401 80.624H295.969L289.153 86.864H282.433ZM329.489 89.264C331.505 89.264 333.329 89.68 334.961 90.512C336.593 91.312 337.873 92.576 338.801 94.304C339.761 96.032 340.241 98.272 340.241 101.024V116H329.393V102.896C329.393 101.264 329.105 100.112 328.529 99.44C327.953 98.736 327.169 98.384 326.177 98.384C325.441 98.384 324.753 98.56 324.113 98.912C323.505 99.232 323.009 99.776 322.625 100.544C322.273 101.312 322.097 102.352 322.097 103.664V116H311.249V89.744H321.569V97.424L319.505 95.216C320.529 93.232 321.905 91.744 323.633 90.752C325.393 89.76 327.345 89.264 329.489 89.264ZM359.533 116.48C356.525 116.48 353.853 115.904 351.517 114.752C349.181 113.6 347.341 112 345.997 109.952C344.685 107.872 344.029 105.504 344.029 102.848C344.029 100.192 344.685 97.84 345.997 95.792C347.341 93.744 349.181 92.144 351.517 90.992C353.853 89.84 356.525 89.264 359.533 89.264C362.733 89.264 365.469 89.952 367.741 91.328C370.013 92.704 371.581 94.608 372.445 97.04L364.045 101.168C363.501 99.952 362.829 99.072 362.029 98.528C361.261 97.984 360.413 97.712 359.485 97.712C358.685 97.712 357.933 97.904 357.229 98.288C356.557 98.672 356.013 99.248 355.597 100.016C355.213 100.752 355.021 101.696 355.021 102.848C355.021 104 355.213 104.96 355.597 105.728C356.013 106.496 356.557 107.072 357.229 107.456C357.933 107.84 358.685 108.032 359.485 108.032C360.413 108.032 361.261 107.76 362.029 107.216C362.829 106.672 363.501 105.792 364.045 104.576L372.445 108.704C371.581 111.136 370.013 113.04 367.741 114.416C365.469 115.792 362.733 116.48 359.533 116.48ZM374.952 116V89.744H385.8V116H374.952ZM380.376 87.632C378.392 87.632 376.808 87.104 375.624 86.048C374.44 84.992 373.848 83.68 373.848 82.112C373.848 80.544 374.44 79.232 375.624 78.176C376.808 77.12 378.392 76.592 380.376 76.592C382.36 76.592 383.944 77.088 385.128 78.08C386.312 79.072 386.904 80.352 386.904 81.92C386.904 83.584 386.312 84.96 385.128 86.048C383.944 87.104 382.36 87.632 380.376 87.632ZM406.496 116V111.344L405.728 110.096V101.264C405.728 99.984 405.328 99.008 404.528 98.336C403.76 97.664 402.496 97.328 400.736 97.328C399.552 97.328 398.352 97.52 397.136 97.904C395.92 98.256 394.88 98.752 394.016 99.392L390.56 92.24C392.096 91.28 393.936 90.544 396.08 90.032C398.224 89.52 400.32 89.264 402.368 89.264C406.88 89.264 410.368 90.272 412.832 92.288C415.328 94.304 416.576 97.504 416.576 101.888V116H406.496ZM399.056 116.48C396.912 116.48 395.12 116.112 393.68 115.376C392.24 114.64 391.152 113.664 390.416 112.448C389.68 111.2 389.312 109.824 389.312 108.32C389.312 106.624 389.744 105.184 390.608 104C391.472 102.816 392.784 101.92 394.544 101.312C396.336 100.704 398.592 100.4 401.312 100.4H406.784V105.632H403.04C401.888 105.632 401.04 105.824 400.496 106.208C399.984 106.56 399.728 107.104 399.728 107.84C399.728 108.448 399.952 108.96 400.4 109.376C400.88 109.76 401.52 109.952 402.32 109.952C403.056 109.952 403.728 109.76 404.336 109.376C404.976 108.96 405.44 108.32 405.728 107.456L407.12 110.672C406.704 112.624 405.824 114.08 404.48 115.04C403.136 116 401.328 116.48 399.056 116.48Z"
      fill="#0E3D59" />
  </g>
  <g filter="url(#filter2_i_15_137)">
    <path
      d="M156.827 69.768C154.107 69.768 151.579 69.336 149.243 68.472C146.939 67.608 144.939 66.392 143.243 64.824C141.547 63.224 140.219 61.352 139.259 59.208C138.331 57.064 137.867 54.728 137.867 52.2C137.867 49.64 138.331 47.304 139.259 45.192C140.219 43.048 141.547 41.192 143.243 39.624C144.939 38.024 146.939 36.792 149.243 35.928C151.579 35.064 154.107 34.632 156.827 34.632C159.579 34.632 162.107 35.064 164.411 35.928C166.715 36.792 168.715 38.024 170.411 39.624C172.107 41.192 173.419 43.048 174.347 45.192C175.307 47.304 175.787 49.64 175.787 52.2C175.787 54.728 175.307 57.064 174.347 59.208C173.419 61.352 172.107 63.224 170.411 64.824C168.715 66.392 166.715 67.608 164.411 68.472C162.107 69.336 159.579 69.768 156.827 69.768ZM167.819 77.496C166.251 77.496 164.795 77.336 163.451 77.016C162.107 76.728 160.795 76.232 159.515 75.528C158.267 74.824 156.955 73.848 155.579 72.6C154.203 71.384 152.667 69.864 150.971 68.04L162.683 65.16C163.451 66.344 164.107 67.256 164.651 67.896C165.195 68.536 165.723 68.984 166.235 69.24C166.779 69.496 167.387 69.624 168.059 69.624C169.723 69.624 171.275 68.904 172.715 67.464L177.611 73.224C175.211 76.072 171.947 77.496 167.819 77.496ZM156.827 60.6C157.883 60.6 158.859 60.408 159.755 60.024C160.683 59.64 161.483 59.096 162.155 58.392C162.859 57.656 163.403 56.776 163.787 55.752C164.171 54.696 164.363 53.512 164.363 52.2C164.363 50.888 164.171 49.72 163.787 48.696C163.403 47.64 162.859 46.76 162.155 46.056C161.483 45.32 160.683 44.76 159.755 44.376C158.859 43.992 157.883 43.8 156.827 43.8C155.771 43.8 154.779 43.992 153.851 44.376C152.955 44.76 152.155 45.32 151.451 46.056C150.779 46.76 150.251 47.64 149.867 48.696C149.483 49.72 149.291 50.888 149.291 52.2C149.291 53.512 149.483 54.696 149.867 55.752C150.251 56.776 150.779 57.656 151.451 58.392C152.155 59.096 152.955 59.64 153.851 60.024C154.779 60.408 155.771 60.6 156.827 60.6ZM190.507 69.48C188.427 69.48 186.539 69.064 184.843 68.232C183.179 67.368 181.867 66.04 180.907 64.248C179.947 62.424 179.467 60.088 179.467 57.24V42.744H190.315V55.368C190.315 57.224 190.619 58.52 191.227 59.256C191.835 59.992 192.667 60.36 193.723 60.36C194.363 60.36 194.955 60.2 195.499 59.88C196.075 59.528 196.539 58.968 196.891 58.2C197.243 57.4 197.419 56.36 197.419 55.08V42.744H208.267V69H197.947V61.416L200.011 63.48C199.083 65.528 197.755 67.048 196.027 68.04C194.331 69 192.491 69.48 190.507 69.48ZM228.967 69V64.344L228.199 63.096V54.264C228.199 52.984 227.799 52.008 226.999 51.336C226.231 50.664 224.967 50.328 223.207 50.328C222.023 50.328 220.823 50.52 219.607 50.904C218.391 51.256 217.351 51.752 216.487 52.392L213.031 45.24C214.567 44.28 216.407 43.544 218.551 43.032C220.695 42.52 222.791 42.264 224.839 42.264C229.351 42.264 232.839 43.272 235.303 45.288C237.799 47.304 239.047 50.504 239.047 54.888V69H228.967ZM221.527 69.48C219.383 69.48 217.591 69.112 216.151 68.376C214.711 67.64 213.623 66.664 212.887 65.448C212.151 64.2 211.783 62.824 211.783 61.32C211.783 59.624 212.215 58.184 213.079 57C213.943 55.816 215.255 54.92 217.015 54.312C218.807 53.704 221.063 53.4 223.783 53.4H229.255V58.632H225.511C224.359 58.632 223.511 58.824 222.967 59.208C222.455 59.56 222.199 60.104 222.199 60.84C222.199 61.448 222.423 61.96 222.871 62.376C223.351 62.76 223.991 62.952 224.791 62.952C225.527 62.952 226.199 62.76 226.807 62.376C227.447 61.96 227.911 61.32 228.199 60.456L229.591 63.672C229.175 65.624 228.295 67.08 226.951 68.04C225.607 69 223.799 69.48 221.527 69.48ZM243.735 69V33.384H254.583V69H243.735ZM259.391 69V42.744H270.239V69H259.391ZM264.815 40.632C262.831 40.632 261.247 40.104 260.063 39.048C258.879 37.992 258.287 36.68 258.287 35.112C258.287 33.544 258.879 32.232 260.063 31.176C261.247 30.12 262.831 29.592 264.815 29.592C266.799 29.592 268.383 30.088 269.567 31.08C270.751 32.072 271.343 33.352 271.343 34.92C271.343 36.584 270.751 37.96 269.567 39.048C268.383 40.104 266.799 40.632 264.815 40.632ZM286.567 69.48C284.295 69.48 282.183 68.936 280.231 67.848C278.311 66.728 276.775 65.16 275.623 63.144C274.471 61.096 273.895 58.664 273.895 55.848C273.895 53.032 274.471 50.616 275.623 48.6C276.775 46.552 278.311 44.984 280.231 43.896C282.183 42.808 284.295 42.264 286.567 42.264C288.871 42.264 290.759 42.76 292.231 43.752C293.703 44.712 294.791 46.2 295.495 48.216C296.199 50.2 296.551 52.744 296.551 55.848C296.551 58.984 296.215 61.56 295.543 63.576C294.903 65.592 293.847 67.08 292.375 68.04C290.935 69 288.999 69.48 286.567 69.48ZM289.159 61.032C289.959 61.032 290.679 60.84 291.319 60.456C291.959 60.072 292.471 59.496 292.855 58.728C293.239 57.928 293.431 56.968 293.431 55.848C293.431 54.696 293.239 53.752 292.855 53.016C292.471 52.248 291.959 51.672 291.319 51.288C290.679 50.904 289.959 50.712 289.159 50.712C288.359 50.712 287.639 50.904 286.999 51.288C286.359 51.672 285.847 52.248 285.463 53.016C285.079 53.752 284.887 54.696 284.887 55.848C284.887 56.968 285.079 57.928 285.463 58.728C285.847 59.496 286.359 60.072 286.999 60.456C287.639 60.84 288.359 61.032 289.159 61.032ZM293.767 69V65.448L293.719 55.848L293.239 46.248V33.384H304.087V69H293.767ZM324.779 69V64.344L324.011 63.096V54.264C324.011 52.984 323.611 52.008 322.811 51.336C322.043 50.664 320.779 50.328 319.019 50.328C317.835 50.328 316.635 50.52 315.419 50.904C314.203 51.256 313.163 51.752 312.299 52.392L308.843 45.24C310.379 44.28 312.219 43.544 314.363 43.032C316.507 42.52 318.603 42.264 320.651 42.264C325.163 42.264 328.651 43.272 331.115 45.288C333.611 47.304 334.859 50.504 334.859 54.888V69H324.779ZM317.339 69.48C315.195 69.48 313.403 69.112 311.963 68.376C310.523 67.64 309.435 66.664 308.699 65.448C307.963 64.2 307.595 62.824 307.595 61.32C307.595 59.624 308.027 58.184 308.891 57C309.755 55.816 311.067 54.92 312.827 54.312C314.619 53.704 316.875 53.4 319.595 53.4H325.067V58.632H321.323C320.171 58.632 319.323 58.824 318.779 59.208C318.267 59.56 318.011 60.104 318.011 60.84C318.011 61.448 318.235 61.96 318.683 62.376C319.163 62.76 319.803 62.952 320.603 62.952C321.339 62.952 322.011 62.76 322.619 62.376C323.259 61.96 323.723 61.32 324.011 60.456L325.403 63.672C324.987 65.624 324.107 67.08 322.763 68.04C321.419 69 319.611 69.48 317.339 69.48ZM351.536 69.48C349.264 69.48 347.152 68.936 345.2 67.848C343.28 66.728 341.744 65.16 340.592 63.144C339.44 61.096 338.864 58.664 338.864 55.848C338.864 53.032 339.44 50.616 340.592 48.6C341.744 46.552 343.28 44.984 345.2 43.896C347.152 42.808 349.264 42.264 351.536 42.264C353.84 42.264 355.728 42.76 357.2 43.752C358.672 44.712 359.76 46.2 360.464 48.216C361.168 50.2 361.52 52.744 361.52 55.848C361.52 58.984 361.184 61.56 360.512 63.576C359.872 65.592 358.816 67.08 357.344 68.04C355.904 69 353.968 69.48 351.536 69.48ZM354.128 61.032C354.928 61.032 355.648 60.84 356.288 60.456C356.928 60.072 357.44 59.496 357.824 58.728C358.208 57.928 358.4 56.968 358.4 55.848C358.4 54.696 358.208 53.752 357.824 53.016C357.44 52.248 356.928 51.672 356.288 51.288C355.648 50.904 354.928 50.712 354.128 50.712C353.328 50.712 352.608 50.904 351.968 51.288C351.328 51.672 350.816 52.248 350.432 53.016C350.048 53.752 349.856 54.696 349.856 55.848C349.856 56.968 350.048 57.928 350.432 58.728C350.816 59.496 351.328 60.072 351.968 60.456C352.608 60.84 353.328 61.032 354.128 61.032ZM358.736 69V65.448L358.688 55.848L358.208 46.248V33.384H369.056V69H358.736ZM388.356 69.48C385.156 69.48 382.356 68.888 379.956 67.704C377.588 66.52 375.748 64.904 374.436 62.856C373.124 60.776 372.468 58.44 372.468 55.848C372.468 53.192 373.108 50.84 374.388 48.792C375.7 46.744 377.476 45.144 379.716 43.992C381.988 42.84 384.532 42.264 387.348 42.264C389.94 42.264 392.324 42.776 394.5 43.8C396.708 44.824 398.468 46.344 399.78 48.36C401.124 50.376 401.796 52.872 401.796 55.848C401.796 56.232 401.78 56.664 401.748 57.144C401.716 57.592 401.684 58.008 401.652 58.392H381.444V53.16H395.892L391.812 54.552C391.812 53.528 391.62 52.664 391.236 51.96C390.884 51.224 390.388 50.664 389.748 50.28C389.108 49.864 388.34 49.656 387.444 49.656C386.548 49.656 385.764 49.864 385.092 50.28C384.452 50.664 383.956 51.224 383.604 51.96C383.252 52.664 383.076 53.528 383.076 54.552V56.184C383.076 57.304 383.3 58.264 383.748 59.064C384.196 59.864 384.836 60.472 385.668 60.888C386.5 61.272 387.508 61.464 388.692 61.464C389.908 61.464 390.9 61.304 391.668 60.984C392.468 60.664 393.3 60.184 394.164 59.544L399.828 65.256C398.548 66.632 396.964 67.688 395.076 68.424C393.22 69.128 390.98 69.48 388.356 69.48ZM434.106 69.48C430.906 69.48 428.106 68.888 425.706 67.704C423.338 66.52 421.498 64.904 420.186 62.856C418.874 60.776 418.218 58.44 418.218 55.848C418.218 53.192 418.858 50.84 420.138 48.792C421.45 46.744 423.226 45.144 425.466 43.992C427.738 42.84 430.282 42.264 433.098 42.264C435.69 42.264 438.074 42.776 440.25 43.8C442.458 44.824 444.218 46.344 445.53 48.36C446.874 50.376 447.546 52.872 447.546 55.848C447.546 56.232 447.53 56.664 447.498 57.144C447.466 57.592 447.434 58.008 447.402 58.392H427.194V53.16H441.642L437.562 54.552C437.562 53.528 437.37 52.664 436.986 51.96C436.634 51.224 436.138 50.664 435.498 50.28C434.858 49.864 434.09 49.656 433.194 49.656C432.298 49.656 431.514 49.864 430.842 50.28C430.202 50.664 429.706 51.224 429.354 51.96C429.002 52.664 428.826 53.528 428.826 54.552V56.184C428.826 57.304 429.05 58.264 429.498 59.064C429.946 59.864 430.586 60.472 431.418 60.888C432.25 61.272 433.258 61.464 434.442 61.464C435.658 61.464 436.65 61.304 437.418 60.984C438.218 60.664 439.05 60.184 439.914 59.544L445.578 65.256C444.298 66.632 442.714 67.688 440.826 68.424C438.97 69.128 436.73 69.48 434.106 69.48Z"
      fill="#0E3D59" />
  </g>
  <g filter="url(#filter3_i_15_137)">
    <path fill-rule="evenodd" clip-rule="evenodd"
      d="M183.113 197.858C159.685 198.124 142.409 190.492 130.264 179.791C117.807 168.814 110.683 154.588 107.838 142.382C106.966 138.665 106.507 135.2 106.403 132.13C105.827 111.872 112.097 100.715 118.061 90.117C124.06 79.4449 129.806 69.2628 129.754 52.2041C129.719 41.5688 125.338 32.0716 119.151 23.567C116.425 19.8326 113.392 16.329 110.272 13.0066H183.113V0.837158H80.5695L91.8345 11.4534C98.0514 17.3227 104.941 23.9095 110.085 30.9894C114.876 37.5805 118.284 44.7068 118.301 52.2041C118.335 65.9214 113.392 74.6989 108.226 83.8864C101.428 95.982 94.2686 108.692 94.9669 132.452C95.0713 136.423 95.6522 140.777 96.6907 145.269C100.028 159.606 108.383 176.267 122.934 189.107C136.962 201.462 156.676 210.268 183.113 209.994V197.857V197.858Z"
      fill="#EC651D" />
  </g>
  <defs>
    <filter id="filter0_i_15_137" x="142.84" y="126.108" width="314.24" height="31.1439" filterUnits="userSpaceOnUse"
      color-interpolation-filters="sRGB">
      <feFlood flood-opacity="0" result="BackgroundImageFix" />
      <feBlend mode="normal" in="SourceGraphic" in2="BackgroundImageFix" result="shape" />
      <feColorMatrix in="SourceAlpha" type="matrix" values="0 0 0 0 0 0 0 0 0 0 0 0 0 0 0 0 0 0 127 0"
        result="hardAlpha" />
      <feOffset dy="4" />
      <feGaussianBlur stdDeviation="2" />
      <feComposite in2="hardAlpha" operator="arithmetic" k2="-1" k3="1" />
      <feColorMatrix type="matrix" values="0 0 0 0 0 0 0 0 0 0 0 0 0 0 0 0 0 0 0.25 0" />
      <feBlend mode="normal" in2="shape" result="effect1_innerShadow_15_137" />
    </filter>
    <filter id="filter1_i_15_137" x="141.294" y="76.592" width="275.282" height="43.8879" filterUnits="userSpaceOnUse"
      color-interpolation-filters="sRGB">
      <feFlood flood-opacity="0" result="BackgroundImageFix" />
      <feBlend mode="normal" in="SourceGraphic" in2="BackgroundImageFix" result="shape" />
      <feColorMatrix in="SourceAlpha" type="matrix" values="0 0 0 0 0 0 0 0 0 0 0 0 0 0 0 0 0 0 127 0"
        result="hardAlpha" />
      <feOffset dy="4" />
      <feGaussianBlur stdDeviation="2" />
      <feComposite in2="hardAlpha" operator="arithmetic" k2="-1" k3="1" />
      <feColorMatrix type="matrix" values="0 0 0 0 0 0 0 0 0 0 0 0 0 0 0 0 0 0 0.25 0" />
      <feBlend mode="normal" in2="shape" result="effect1_innerShadow_15_137" />
    </filter>
    <filter id="filter2_i_15_137" x="137.867" y="29.592" width="309.678" height="51.9039" filterUnits="userSpaceOnUse"
      color-interpolation-filters="sRGB">
      <feFlood flood-opacity="0" result="BackgroundImageFix" />
      <feBlend mode="normal" in="SourceGraphic" in2="BackgroundImageFix" result="shape" />
      <feColorMatrix in="SourceAlpha" type="matrix" values="0 0 0 0 0 0 0 0 0 0 0 0 0 0 0 0 0 0 127 0"
        result="hardAlpha" />
      <feOffset dy="4" />
      <feGaussianBlur stdDeviation="2" />
      <feComposite in2="hardAlpha" operator="arithmetic" k2="-1" k3="1" />
      <feColorMatrix type="matrix" values="0 0 0 0 0 0 0 0 0 0 0 0 0 0 0 0 0 0 0.25 0" />
      <feBlend mode="normal" in2="shape" result="effect1_innerShadow_15_137" />
    </filter>
    <filter id="filter3_i_15_137" x="80.5695" y="0.837158" width="102.543" height="213.163" filterUnits="userSpaceOnUse"
      color-interpolation-filters="sRGB">
      <feFlood flood-opacity="0" result="BackgroundImageFix" />
      <feBlend mode="normal" in="SourceGraphic" in2="BackgroundImageFix" result="shape" />
      <feColorMatrix in="SourceAlpha" type="matrix" values="0 0 0 0 0 0 0 0 0 0 0 0 0 0 0 0 0 0 127 0"
        result="hardAlpha" />
      <feOffset dy="4" />
      <feGaussianBlur stdDeviation="2" />
      <feComposite in2="hardAlpha" operator="arithmetic" k2="-1" k3="1" />
      <feColorMatrix type="matrix" values="0 0 0 0 0 0 0 0 0 0 0 0 0 0 0 0 0 0 0.25 0" />
      <feBlend mode="normal" in2="shape" result="effect1_innerShadow_15_137" />
    </filter>
  </defs>
</svg>