<svg width="162" height="21" viewBox="0 0 162 21" fill="none" xmlns="http://www.w3.org/2000/svg">
<g clip-path="url(#clip0_50_19)">
<path fill-rule="evenodd" clip-rule="evenodd" d="M83.1777 20.7171H79.3277L87.9348 0.143188H91.9762L100.765 20.7171H96.7232L94.4052 15.1033H87.6727L88.9628 11.8004H93.0446L89.8598 4.06982L83.1777 20.7171ZM58.7676 20.7171V0.143188H62.5269L73.2303 15.1339V0.143188H76.8484V20.7171H73.0892L62.3858 5.40938V20.7171H58.7676ZM54.5145 0.143188V20.7171H50.7653V0.143188H54.5145ZM48.6287 0.143188V3.45629H42.8134V20.7171H39.0541V3.45629H33.2388V0.143188H48.6287ZM17.4358 20.7171H13.5757L22.1827 0.143188H26.2242L35.0127 20.7171H30.9712L28.6632 15.1033H21.9308L23.2208 11.8004H27.3026L24.1178 4.06982L17.4358 20.7171ZM3.75927 0.143188V17.4143H11.812V20.7274H0V0.143188H3.75927Z" fill="#003B52"/>
<path fill-rule="evenodd" clip-rule="evenodd" d="M153.213 0.14313V17.4142H161.266V20.7273H149.464V0.14313H153.223H153.213ZM127.765 12.6286V0.14313H131.524V12.6286C131.524 15.911 133.177 17.5471 136.483 17.5471C139.789 17.5471 141.441 15.911 141.441 12.6286V0.14313H145.201V12.6286C145.201 18.1198 142.298 20.8602 136.483 20.8602C130.668 20.8602 127.765 18.1198 127.765 12.6286ZM109.261 19.8479V16.3916C111.287 17.1586 113.595 17.5369 116.155 17.5369C119.269 17.5369 120.821 16.4837 120.821 14.3772C120.821 12.8433 119.863 12.0764 117.959 12.0764H114.784C110.632 12.0764 108.565 10.1642 108.565 6.3194C108.565 2.10645 111.518 -0.0102539 117.424 -0.0102539C119.692 -0.0102539 121.839 0.327191 123.875 0.991856V4.44811C121.839 3.68119 119.692 3.30285 117.424 3.30285C114.018 3.30285 112.315 4.31518 112.315 6.3194C112.315 7.85324 113.141 8.62017 114.784 8.62017H117.959C122.373 8.62017 124.58 10.5426 124.58 14.3772C124.58 18.6924 121.768 20.85 116.155 20.85C113.595 20.85 111.297 20.5126 109.261 19.8479Z" fill="#EC651D"/>
</g>
<defs>
<clipPath id="clip0_50_19">
<rect width="161.266" height="20.8603" fill="white"/>
</clipPath>
</defs>
</svg>
